<svg xmlns="http://www.w3.org/2000/svg" viewBox="0 0 218.96 211.59"><defs><style>.cls-1,.cls-3{fill:#5b461b;}.cls-2{fill:#d6a463;}.cls-2,.cls-4{stroke:#5b461b;stroke-miterlimit:10;stroke-width:2px;}.cls-3{opacity:0.1;}.cls-4{fill:#f8c478;}</style></defs><g id="Layer_2" data-name="Layer 2"><g id="Layer_1-2" data-name="Layer 1"><g id="bread"><path class="cls-1" d="M14.93,108.81s-30.3-9.32.36-44.21,57.21-37.29,67-36.5S106.54,33.61,106.65,46c7.37,0,12.65-.8,28,24.92s42,61.14,40.57,67.63-42.7,35-52.15,41.52-34.72,26.89-41.42,30.51-13.31-2.82-19.76-11.27S18.68,135.58,15.08,129,10.37,113.9,14.93,108.81Z"/><path class="cls-2" d="M14.36,102.5s-30.3-9.32.36-44.21,57.22-37.29,67-36.5S106,27.3,106.08,39.67c7.37,0,12.65-.8,28,24.92s42,61.14,40.57,67.63-42.69,35-52.14,41.52S87.8,200.63,81.1,204.25,67.79,201.43,61.34,193s-43.23-63.71-46.83-70.25S9.8,107.59,14.36,102.5Z"/><path class="cls-3" d="M23.51,66.36c.18,1.93-.13,3.53-.68,3.58s-1.14-1.47-1.31-3.4S21.65,63,22.2,63,23.34,64.44,23.51,66.36ZM36.3,72.74c-1.56.14-2.75,1-2.67,1.92s1.41,1.54,3,1.4,2.76-1,2.67-1.91S37.86,72.6,36.3,72.74Zm22.32,4.35c-1.65.15-2.95.71-2.9,1.26s1.43.88,3.08.73,2.94-.71,2.89-1.27S60.27,76.94,58.62,77.09Zm13.84,8.79A2.51,2.51,0,1,0,75,88.16,2.43,2.43,0,0,0,72.46,85.88Zm-4,15.09c-.74.06-1.29.56-1.24,1.11a1.21,1.21,0,0,0,1.42.88c.73-.07,1.29-.57,1.24-1.12A1.2,1.2,0,0,0,68.47,101Zm30.74-9.8c-1.37.12-2.45.67-2.4,1.22s1.21.89,2.58.77,2.45-.67,2.4-1.22S100.59,91,99.21,91.17Zm11.12,10c-.92.08-1.63.52-1.59,1s.82.76,1.74.68,1.62-.52,1.58-1S111.24,101.13,110.33,101.21Zm-18.8,33.15c-.75.07-1.33.42-1.3.79s.67.61,1.42.54,1.33-.42,1.3-.79S92.28,134.3,91.53,134.36Zm-6.94,17.36c-.82.08-1.47.44-1.43.8s.73.61,1.55.53,1.47-.43,1.44-.8S85.42,151.65,84.59,151.72ZM50.47,120.33c-2.57.23-4.52,1.83-4.37,3.57s2.37,3,4.94,2.74,4.52-1.84,4.36-3.58S53,120.1,50.47,120.33ZM125.14,130c-1.93.18-3.46.62-3.43,1s1.62.53,3.55.35,3.46-.61,3.42-1S127.06,129.82,125.14,130Zm22.55-15.25a1.64,1.64,0,0,0-1.52,1.73,1.67,1.67,0,1,0,1.52-1.73ZM140.1,95.51c-1.37.13-2.43.89-2.36,1.72s1.25,1.39,2.63,1.27,2.43-.89,2.36-1.72S141.48,95.39,140.1,95.51ZM116,71.92c-2.16.19-3.8,1.54-3.66,3s2,2.5,4.14,2.31,3.79-1.54,3.66-3S118.12,71.72,116,71.92ZM96.7,63.28l-2.08.19-2.07.18,2.07-.18ZM79,49.82C77,50,75.5,51,75.6,52s1.74,1.68,3.7,1.51,3.47-1.14,3.38-2.15S80.93,49.64,79,49.82Zm-5,5.8c-1,.1-1.85.77-1.79,1.5s1,1.25,2,1.16,1.86-.77,1.79-1.5S75.06,55.52,74,55.62Zm10.41,8.77c-1.19.1-2.11.71-2,1.35s1.07,1.08,2.26,1,2.11-.71,2.06-1.36S85.61,64.28,84.41,64.39Zm7.94-26.15c-1.15.1-2,.78-2,1.51s1,1.24,2.2,1.14,2-.78,2-1.51S93.49,38.13,92.35,38.24Zm-34.6,4.45c-1.52.14-2.69,1-2.6,1.91s1.38,1.55,2.9,1.41,2.7-1,2.61-1.91S59.28,42.56,57.75,42.69ZM75.27,161.6c-2.2.2-3.89,1.33-3.79,2.52s2,2,4.18,1.8,3.9-1.33,3.79-2.52S77.47,161.4,75.27,161.6ZM108.2,163l-1.25.12-1.24.11,1.24-.11Zm48.88-56.11c-1.19-1.52-1.8-3-1.36-3.37s1.75.62,2.94,2.14,1.79,3,1.35,3.38S158.26,108.4,157.08,106.87Zm-14.21,1.55c1.23-1,1.78-2.33,1.21-3s-2-.54-3.26.42-1.78,2.33-1.21,3S141.63,109.38,142.87,108.42Zm-21.13,8.4c1.31-1,2.1-2.19,1.76-2.63s-1.67,0-3,1-2.1,2.2-1.76,2.63S120.44,117.84,121.74,116.82Zm-16.4.09a2.51,2.51,0,1,0-3.37-.54A2.42,2.42,0,0,0,105.34,116.91Zm-4.79-14.85a1.21,1.21,0,0,0,.44-1.61,1.2,1.2,0,0,0-1.67,0,1,1,0,1,0,1.23,1.58ZM80,126.92c1.09-.85,1.7-1.89,1.36-2.33s-1.5-.1-2.59.75-1.7,1.89-1.36,2.32S78.89,127.77,80,126.92ZM65.2,124.48c.73-.57,1.09-1.32.81-1.69s-1.1-.2-1.83.37-1.09,1.32-.8,1.68S64.48,125,65.2,124.48ZM63.1,86.42c.59-.46.89-1.07.66-1.36s-.89-.15-1.48.31-.89,1.07-.67,1.36S62.5,86.88,63.1,86.42ZM59.55,68.06c.66-.5,1-1.15.78-1.44s-.94-.12-1.6.39-1,1.16-.77,1.45S58.9,68.57,59.55,68.06Zm45.68,8c2-1.58,2.81-4,1.74-5.37s-3.59-1.22-5.63.37-2.81,4-1.74,5.36S103.2,77.62,105.23,76ZM37.18,108.26c1.53-1.19,2.58-2.38,2.36-2.68s-1.65.44-3.18,1.63-2.58,2.38-2.35,2.67S35.66,109.45,37.18,108.26Zm-10.73,25a1.58,1.58,0,1,0-1.94-2.5,1.58,1.58,0,1,0,1.94,2.5Zm16.78,12.08c1.09-.85,1.56-2.06,1.05-2.72s-1.8-.5-2.89.35-1.56,2.07-1,2.72S42.14,146.21,43.23,145.36Zm33.06,6.81c1.7-1.33,2.36-3.35,1.45-4.51s-3-1-4.73.3-2.36,3.35-1.45,4.51S74.58,153.5,76.29,152.17ZM97.17,149l1.64-1.28,1.65-1.28-1.65,1.28Zm22.19,1.75c1.55-1.21,2.3-2.83,1.68-3.63s-2.38-.47-3.93.73-2.3,2.83-1.68,3.63S117.81,152,119.36,150.77Zm1-7.57c.84-.65,1.15-1.65.7-2.23a1.71,1.71,0,0,0-2.33.12c-.84.65-1.15,1.65-.7,2.23A1.71,1.71,0,0,0,120.4,143.2Zm-13.5-1.75c.95-.73,1.39-1.74,1-2.25s-1.48-.33-2.43.41-1.39,1.74-1,2.25S106,142.19,106.9,141.45Zm7.46,26.29c.91-.71,1.28-1.75.83-2.33s-1.55-.48-2.46.23-1.28,1.75-.83,2.33S113.45,168.45,114.36,167.74Zm26.7-22.44c1.21-.94,1.73-2.29,1.16-3s-2-.56-3.21.38-1.73,2.29-1.16,3S139.85,146.23,141.06,145.3Zm-79-90.58c1.74-1.36,2.56-3.22,1.82-4.17s-2.74-.61-4.49.75-2.56,3.22-1.82,4.16S60.31,56.07,62.06,54.72ZM33.61,71.35l1-.77,1-.77-1,.77Z"/><path class="cls-1" d="M60.84,82.23s-29.34-12,4.33-44,60.33-32,70-30.33,23.67,7.66,22.67,20c7.33.66,12.66.33,25.66,27.33s36.34,64.66,34.34,71-45.67,31-55.67,36.67-37,23.66-44,26.66-13-4-18.67-13S62.17,109.23,59.17,102.4,55.84,86.89,60.84,82.23Z"/><path class="cls-4" d="M60.84,75.89s-29.34-12,4.33-44,60.33-32,70-30.33,23.67,7.67,22.67,20c7.33.67,12.66.33,25.66,27.33s36.34,64.67,34.34,71-45.67,31-55.67,36.67-37,23.67-44,26.67-13-4-18.67-13S62.17,102.89,59.17,96.06,55.84,80.56,60.84,75.89Z"/><path class="cls-3" d="M73.2,40.73c0,1.93-.45,3.5-1,3.5s-1-1.57-1-3.5.45-3.5,1-3.5S73.2,38.8,73.2,40.73Zm12.17,7.5c-1.57,0-2.84.75-2.84,1.67s1.27,1.66,2.84,1.66,2.83-.74,2.83-1.66S86.93,48.23,85.37,48.23Zm21.83,6.33c-1.66,0-3,.45-3,1s1.34,1,3,1,3-.44,3-1S108.86,54.56,107.2,54.56Zm13,10a2.51,2.51,0,1,0,2.33,2.5A2.42,2.42,0,0,0,120.2,64.56Zm-5.33,14.67c-.74,0-1.34.45-1.34,1s.6,1,1.34,1,1.33-.45,1.33-1S115.6,79.23,114.87,79.23Zm31.5-7c-1.38,0-2.5.45-2.5,1s1.12,1,2.5,1,2.5-.45,2.5-1S147.75,72.23,146.37,72.23Zm10.16,11c-.92,0-1.66.37-1.66.83s.74.84,1.66.84,1.67-.38,1.67-.84S157.45,83.23,156.53,83.23Zm-21.69,31.33c-.76,0-1.37.3-1.37.67s.61.67,1.37.67,1.36-.3,1.36-.67S135.59,114.56,134.84,114.56Zm-8.47,16.67c-.83,0-1.5.3-1.5.67s.67.66,1.5.66,1.5-.3,1.5-.66S127.19,131.23,126.37,131.23ZM95.2,96.9c-2.58,0-4.67,1.41-4.67,3.16s2.09,3.17,4.67,3.17,4.67-1.42,4.67-3.17S97.78,96.9,95.2,96.9Zm73.5,16.33c-1.93,0-3.5.3-3.5.67s1.57.66,3.5.66,3.5-.3,3.5-.66S170.63,113.23,168.7,113.23Zm23.83-13.17a1.59,1.59,0,1,0,1.67,1.59A1.62,1.62,0,0,0,192.53,100.06ZM186.7,80.23c-1.38,0-2.5.67-2.5,1.5s1.12,1.5,2.5,1.5,2.5-.67,2.5-1.5S188.08,80.23,186.7,80.23ZM164.78,54.56c-2.16,0-3.91,1.2-3.91,2.67s1.75,2.67,3.91,2.67,3.92-1.2,3.92-2.67S167,54.56,164.78,54.56ZM146.37,44.23h0Zm-16.45-15c-2,0-3.55.82-3.55,1.83s1.59,1.84,3.55,1.84,3.55-.83,3.55-1.84S131.88,29.23,129.92,29.23Zm-5.47,5.33c-1.06,0-1.92.6-1.92,1.34s.86,1.33,1.92,1.33,1.92-.6,1.92-1.33S125.51,34.56,124.45,34.56ZM134,44.23c-1.19,0-2.16.52-2.16,1.17s1,1.16,2.16,1.16,2.17-.52,2.17-1.16S135.23,44.23,134,44.23ZM144.28,18.9c-1.15,0-2.08.59-2.08,1.33s.93,1.33,2.08,1.33,2.09-.59,2.09-1.33S145.43,18.9,144.28,18.9Zm-34.85,1.33c-1.53,0-2.77.75-2.77,1.67s1.24,1.66,2.77,1.66,2.77-.74,2.77-1.66S111,20.23,109.43,20.23Zm6.77,120c-2.21,0-4,1-4,2.17s1.79,2.16,4,2.16,4-1,4-2.16S118.41,140.23,116.2,140.23Zm32.67,4.33h0Zm53.72-51.49c-1.05-1.63-1.52-3.19-1.05-3.49s1.68.78,2.73,2.41,1.51,3.18,1,3.48S203.63,94.69,202.59,93.07Zm-14.29.26c1.31-.84,2-2.15,1.48-2.93s-2-.72-3.29.13-2,2.16-1.48,2.93S187,94.18,188.3,93.33ZM166.5,99.8c1.4-.89,2.29-2,2-2.46s-1.67-.11-3.07.78-2.28,2-2,2.46S165.11,100.7,166.5,99.8Zm-16.34-1.38a2.51,2.51,0,1,0-3.31-.85A2.43,2.43,0,0,0,150.16,98.42ZM146.72,83.2a1,1,0,1,0-1.66-.13A1.21,1.21,0,0,0,146.72,83.2ZM124,106.11c1.16-.75,1.86-1.73,1.56-2.19s-1.48-.24-2.64.51-1.86,1.72-1.56,2.19S122.84,106.86,124,106.11Zm-14.5-3.76c.78-.5,1.2-1.22,1-1.6s-1.07-.3-1.85.2-1.2,1.21-.95,1.6S108.73,102.85,109.5,102.35Zm1.32-38.09c.63-.41,1-1,.79-1.3s-.88-.23-1.51.18-1,1-.78,1.3S110.19,64.67,110.82,64.26Zm-1.88-18.6c.7-.45,1.1-1.06.9-1.37s-.92-.2-1.62.25-1.1,1.06-.9,1.37S108.25,46.11,108.94,45.66Zm44.78,12c2.17-1.39,3.16-3.71,2.22-5.18s-3.47-1.54-5.64-.15-3.16,3.72-2.22,5.19S151.55,59.1,153.72,57.7Zm-70.67,26c1.63-1,2.79-2.14,2.59-2.45s-1.68.29-3.31,1.33S79.55,84.7,79.75,85,81.43,84.73,83.05,83.68Zm-12.93,24a1.59,1.59,0,1,0-2.26-.43A1.63,1.63,0,0,0,70.12,107.64Zm15.62,13.54c1.17-.75,1.74-1.92,1.29-2.62s-1.75-.65-2.91.09-1.74,1.92-1.29,2.62S84.58,121.92,85.74,121.18Zm32.31,9.75c1.82-1.17,2.65-3.12,1.86-4.36s-2.92-1.3-4.74-.13-2.65,3.12-1.85,4.36S116.24,132.1,118.05,130.93Zm21.08-1.26,1.76-1.13,1.75-1.12-1.75,1.12Zm22,3.73c1.65-1.06,2.54-2.61,2-3.46s-2.33-.69-4,.37-2.55,2.62-2,3.47S159.43,134.46,161.08,133.4ZM162.8,126c.89-.58,1.29-1.54.89-2.16a1.7,1.7,0,0,0-2.33-.09c-.89.57-1.29,1.54-.9,2.16A1.72,1.72,0,0,0,162.8,126Zm-13.29-3c1-.65,1.54-1.61,1.19-2.15s-1.44-.46-2.45.19-1.54,1.61-1.19,2.15S148.51,123.65,149.51,123Zm5.07,26.86c1-.63,1.43-1.63,1-2.25s-1.5-.62-2.47,0-1.43,1.63-1,2.25S153.61,150.48,154.58,149.86Zm28.6-20c1.29-.83,1.93-2.13,1.43-2.9s-1.94-.73-3.23.09-1.93,2.13-1.43,2.9S181.9,130.73,183.18,129.9ZM112.63,32.59c1.86-1.19,2.84-3,2.2-4s-2.68-.86-4.54.33-2.84,3-2.19,4S110.77,33.79,112.63,32.59ZM82.8,46.6l1.06-.67,1-.68-1,.68Z"/></g></g></g></svg>
