<svg xmlns="http://www.w3.org/2000/svg" xmlns:xlink="http://www.w3.org/1999/xlink" viewBox="0 0 183.14 102.23"><defs><style>.cls-1{fill:none;}.cls-2{fill:#e6d9ac;}.cls-3{fill:#9f762b;}.cls-4{fill:#eeecbd;}.cls-5{fill:#d6be2a;}.cls-6{opacity:0.4;}.cls-7{clip-path:url(#clip-path);}.cls-8{fill:#fff;}.cls-9{font-size:12px;fill:#231f20;font-family:BookAntiqua, Book Antiqua;}.cls-10{fill:#ddd57d;}.cls-11{fill:#b6942f;}.cls-12{fill:#decc3c;}</style><clipPath id="clip-path" transform="translate(0 13.43)"><path class="cls-1" d="M168,4.46a170.63,170.63,0,0,0-17.22-3.12A99,99,0,0,1,139.8,0c-3.42,1.1-91.21,18.68-91.21,18.68a9.43,9.43,0,0,0,2.57,2.08c1.71,1,9,1.22,12,2.19s12.29,1.44,15.38,1.24V65.43l1.56.5s85.38-21.73,86.72-23.56c-.37-2.45,0-8.79,0-11.85S168,18.92,168,16.24,168.36,7,168,4.46Z"/></clipPath></defs><g id="Layer_2" data-name="Layer 2"><g id="Layer_1-2" data-name="Layer 1"><g id="Butter"><path class="cls-2" d="M0,47.84s101.74,38,111.67,41c6.52-2.44,25.72-7.81,27-23.44-16.77-.49-52.24-35.65-58.43-36.63S2.44,46.93,0,47.84Z" transform="translate(0 13.43)"/><path class="cls-3" d="M78.5,23.44v42l1.56.5s85.38-21.73,86.72-23.56c-.37-2.45,0-8.79,0-11.85S168,18.92,168,16.24s.36-9.28,0-11.78c-6.47.06-85.22,14.22-85.22,14.22Z" transform="translate(0 13.43)"/><path class="cls-4" d="M48.59,18.68S136.38,1.1,139.8,0a99,99,0,0,0,11,1.34A170.63,170.63,0,0,1,168,4.46c-5.74,1-55.19,12.39-57,12.75s-3.17.25-4.88.86a55.38,55.38,0,0,1-6.84,1.46c-2,.37-19.66,3.06-20.51,4.64-2.81.25-12.7-.24-15.63-1.22s-10.25-1.22-12-2.19A9.43,9.43,0,0,1,48.59,18.68Z" transform="translate(0 13.43)"/><path class="cls-5" d="M48.59,18.68s14.9,2.91,19.29,3.91,7.08.8,12,.83V36.63c0,3.9.49,19,0,22s.92,5.86.21,7.33c-6.07-2-25.12-7.81-29-8.3C51,54.21,49.72,41,49.57,38S48.59,18.68,48.59,18.68Z" transform="translate(0 13.43)"/><g class="cls-6"><g class="cls-7"><polygon class="cls-8" points="114.02 30.41 114.43 75.5 183.14 55.02 183.14 11.56 153.84 0 80.27 21 114.02 30.41"/><text class="cls-9" transform="translate(115.11 53.82) rotate(-11.98)">UTTER</text></g></g><path class="cls-10" d="M93.28,48.92s34.84,1.95,36.95,2.77a121,121,0,0,0,9.44,9.49c.49,1.09,2.93,1.9-1,4.18s-38.1,1-38.1,1l-7.32-3.91Z" transform="translate(0 13.43)"/><path class="cls-11" d="M95.23,61.18s44.28,2.06,45.42,2.06c-.16,3.42-1,11.56-1,12.7-4.72-.65-44.11-.65-45.41-1.3-.15-2.66,0-9.77,0-9.77Z" transform="translate(0 13.43)"/><path class="cls-12" d="M93.28,48.92s2.93,11.23,3.91,12.7c-.66,2.76-3.59,10.58-3.26,12a79.7,79.7,0,0,1-4.56-10.91c-.32-1.46,2.93-10.41,2.28-11.06S93,47.84,93.28,48.92Z" transform="translate(0 13.43)"/></g></g></g></svg>
