<svg xmlns="http://www.w3.org/2000/svg" xmlns:xlink="http://www.w3.org/1999/xlink" viewBox="0 0 150.06 307.49"><defs><style>.cls-1{fill:none;}.cls-2{fill:#527b38;}.cls-3{fill:#df5c26;}.cls-4{opacity:0.5;}.cls-5{clip-path:url(#clip-path);}.cls-6{clip-path:url(#clip-path-2);}</style><clipPath id="clip-path" transform="translate(12.48)"><path class="cls-1" d="M25.8,57.13c-58,0,0,196.91,0,225.93C25.8,251.52,84.26,57.13,25.8,57.13Z"/></clipPath><clipPath id="clip-path-2" transform="translate(12.48)"><path class="cls-1" d="M95.1,250.36c58,0,0-196.91,0-225.93C95.1,56,36.63,250.36,95.1,250.36Z"/></clipPath></defs><g id="Layer_2" data-name="Layer 2"><g id="Layer_1-2" data-name="Layer 1"><g id="Carrots"><path class="cls-2" d="M35.05,70.15s18.51-27.53,30.28-24C59,35.75,36.62,53.9,32.68,62.91c4.47-19.17,28.45-34.29,27.61-46.29C52.71,21.45,25.16,57.26,25.9,66.91,23.27,49.21,37.57,12.62,46.83,0c-14.3,12.62-29.37,62.92-25.2,68.05-2.14-23.47,5-55-5.09-55.43-1.26,9.67-7.57,44.4,0,54C22,72.34,35.05,70.15,35.05,70.15Z" transform="translate(12.48)"/><path class="cls-3" d="M25.8,57.13c-58,0,0,196.91,0,225.93C25.8,251.52,84.26,57.13,25.8,57.13Z" transform="translate(12.48)"/><g class="cls-4"><g class="cls-5"><path d="M8,107.31l.57-.1c.38-.07.93-.17,1.63-.28,1.4-.22,3.4-.52,5.81-.8,1.21-.15,2.52-.3,3.9-.43s2.85-.27,4.36-.37,3.08-.23,4.68-.29,3.21-.13,4.83-.17,3.25,0,4.85,0,3.17.09,4.69.18,3,.23,4.39.41a37,37,0,0,1,3.9.68,17.67,17.67,0,0,1,3.22,1A5.38,5.38,0,0,1,57,108.7c.06.07.11.15.16.22l.12.23a2.11,2.11,0,0,1,.14.45,1.89,1.89,0,0,1,0,.72,1.49,1.49,0,0,1-.13.42l0,.14a3,3,0,0,0,.09-.57,1.82,1.82,0,0,0-.57-1.39,5.39,5.39,0,0,0-2.14-1.15,21.16,21.16,0,0,0-3.16-.68c-1.18-.17-2.47-.28-3.85-.38s-2.82-.14-4.32-.18-3.06,0-4.65,0-3.19,0-4.8.06-3.22.06-4.8.11l-4.66.14-8.26.29c-2.43.08-4.45.14-5.86.17Z" transform="translate(12.48)"/><path d="M-12.48,120.71l.48-.15c.32-.1.77-.26,1.36-.43,1.18-.36,2.86-.84,4.91-1.35,1-.26,2.12-.53,3.3-.78s2.42-.54,3.72-.78,2.63-.5,4-.7,2.76-.42,4.16-.6,2.8-.29,4.18-.4,2.75-.16,4.08-.18,2.61,0,3.83.11A21.89,21.89,0,0,1,25,116,9.15,9.15,0,0,1,27.74,117a4.18,4.18,0,0,1,1,.8,2.61,2.61,0,0,1,.58,2.41l-.15.48.06-.5a2.76,2.76,0,0,0-.26-1.32,2.28,2.28,0,0,0-.58-.73,4.29,4.29,0,0,0-.94-.58,9.94,9.94,0,0,0-2.66-.67,26,26,0,0,0-3.3-.2c-1.18,0-2.43,0-3.73.11s-2.63.2-4,.32-2.74.28-4.12.45-2.76.34-4.12.53l-4,.56-7.08,1-5,.73Z" transform="translate(12.48)"/><path d="M-6.17,140.48s.43-.17,1.21-.44,1.88-.62,3.22-1c.68-.18,1.41-.38,2.18-.56S2,138.13,2.9,138c1.71-.34,3.55-.64,5.4-.86.93-.11,1.86-.2,2.78-.25s1.82-.09,2.71-.09,1.73.05,2.55.13a15.24,15.24,0,0,1,2.28.39,6.82,6.82,0,0,1,1.86.74,3.33,3.33,0,0,1,.68.53,2.08,2.08,0,0,1,.41.62,1.93,1.93,0,0,1,.11,1,3.06,3.06,0,0,1-.09.33s0-.11,0-.33a1.65,1.65,0,0,0-.31-.82,2.24,2.24,0,0,0-1.08-.73,6.91,6.91,0,0,0-1.74-.37c-.67-.06-1.4-.08-2.17-.08s-1.6,0-2.45.1-1.73.14-2.62.22l-2.72.3c-1.82.21-3.64.44-5.35.66l-2.47.31-2.22.27c-1.38.16-2.53.28-3.34.36S-6.17,140.48-6.17,140.48Z" transform="translate(12.48)"/><path d="M26.13,161.29s.37-.26,1-.68,1.63-1,2.82-1.65c.59-.33,1.24-.68,1.93-1s1.42-.71,2.19-1.06c1.54-.7,3.2-1.4,4.9-2a42.75,42.75,0,0,1,5.1-1.53,23.35,23.35,0,0,1,2.44-.44,14.65,14.65,0,0,1,2.25-.12,6,6,0,0,1,1.92.35,2.67,2.67,0,0,1,.74.43,1.69,1.69,0,0,1,.45.57,1.88,1.88,0,0,1,.17,1l-.06.32s0-.11,0-.32a1.58,1.58,0,0,0-1.44-1.33,6.1,6.1,0,0,0-1.71,0,26.19,26.19,0,0,0-4.33,1c-.79.24-1.6.51-2.43.79s-1.66.57-2.49.88c-1.67.6-3.33,1.22-4.9,1.81l-2.26.83-2,.74c-1.26.46-2.32.82-3.07,1.08S26.13,161.29,26.13,161.29Z" transform="translate(12.48)"/></g></g><path class="cls-2" d="M85.84,237.34s-18.5,27.53-30.28,24c6.31,10.37,28.71-7.77,32.65-16.79-4.47,19.17-28.44,34.29-27.61,46.29C68.18,286,95.73,250.23,95,240.59c2.63,17.69-11.67,54.29-20.92,66.9,14.29-12.61,29.36-62.92,25.19-68.05,2.14,23.47-5,55,5.09,55.44,1.26-9.68,7.57-44.41,0-54C98.88,235.15,85.84,237.34,85.84,237.34Z" transform="translate(12.48)"/><path class="cls-3" d="M95.1,250.36c58,0,0-196.91,0-225.93C95.1,56,36.63,250.36,95.1,250.36Z" transform="translate(12.48)"/><g class="cls-4"><g class="cls-6"><path d="M137.58,214.11l-.58.1c-.37.06-.92.17-1.62.28-1.4.22-3.4.52-5.81.8-1.21.14-2.52.29-3.9.42s-2.85.28-4.37.38-3.08.22-4.67.29-3.21.13-4.83.17-3.25,0-4.85,0-3.17-.1-4.69-.18-3-.24-4.39-.41-2.7-.41-3.9-.69a16.93,16.93,0,0,1-3.22-1,5.37,5.37,0,0,1-2.15-1.52l-.16-.23a2,2,0,0,1-.26-.68,1.71,1.71,0,0,1,0-.72,2.52,2.52,0,0,1,.12-.42l.06-.13a2.81,2.81,0,0,0-.09.56,1.84,1.84,0,0,0,.57,1.4A5.33,5.33,0,0,0,91,213.64a19,19,0,0,0,3.17.68c1.18.17,2.47.29,3.84.39s2.83.13,4.33.18,3.06,0,4.64,0,3.2,0,4.8-.06,3.22-.06,4.81-.11l4.66-.15,8.26-.28c2.42-.09,4.45-.14,5.86-.18Z" transform="translate(12.48)"/><path d="M133.37,186.78l-.48.16-1.36.43c-1.18.35-2.86.84-4.9,1.34-1,.26-2.13.53-3.31.79s-2.42.53-3.72.77-2.62.5-4,.71-2.76.41-4.16.59-2.79.3-4.18.41-2.75.15-4.08.18-2.61,0-3.83-.12a23.36,23.36,0,0,1-3.43-.5,9.42,9.42,0,0,1-2.78-1.06,4.19,4.19,0,0,1-1-.81,2.78,2.78,0,0,1-.55-.94,2.74,2.74,0,0,1,0-1.47c.1-.31.15-.48.15-.48s0,.17,0,.5a2.73,2.73,0,0,0,.25,1.32,2.59,2.59,0,0,0,.58.73,4.14,4.14,0,0,0,.95.58,9.5,9.5,0,0,0,2.65.67,27.94,27.94,0,0,0,3.31.21c1.18,0,2.43,0,3.72-.11s2.63-.21,4-.32,2.74-.29,4.12-.46,2.76-.34,4.12-.53l4-.56,7.08-1,5-.73Z" transform="translate(12.48)"/><path d="M95.72,159.34s-.43.17-1.21.43-1.88.62-3.22,1c-.68.18-1.41.38-2.18.55s-1.6.38-2.46.55c-1.71.34-3.55.64-5.4.86-.92.1-1.86.19-2.78.25s-1.82.09-2.7.08a23.45,23.45,0,0,1-2.56-.13,14.08,14.08,0,0,1-2.28-.38,6.82,6.82,0,0,1-1.86-.74,3.33,3.33,0,0,1-.68-.53,2.17,2.17,0,0,1-.4-.62,1.88,1.88,0,0,1-.12-1,3.22,3.22,0,0,1,.09-.32s0,.11,0,.33a1.75,1.75,0,0,0,.31.82,2.24,2.24,0,0,0,1.08.73,7.38,7.38,0,0,0,1.74.37c.67.06,1.4.08,2.17.08s1.6,0,2.45-.11,1.73-.13,2.63-.22,1.8-.18,2.71-.29c1.82-.21,3.64-.44,5.35-.66l2.47-.31,2.22-.27c1.38-.16,2.53-.28,3.34-.36S95.72,159.34,95.72,159.34Z" transform="translate(12.48)"/><path d="M120.89,140.51s-.37.27-1,.69-1.63,1-2.81,1.65c-.6.32-1.24.67-1.94,1s-1.42.71-2.18,1.06c-1.54.71-3.2,1.4-4.9,2a44.83,44.83,0,0,1-5.11,1.53c-.83.19-1.65.33-2.44.43a12.39,12.39,0,0,1-2.24.12,5.53,5.53,0,0,1-1.93-.35,2.37,2.37,0,0,1-.73-.42,1.64,1.64,0,0,1-.46-.58,1.91,1.91,0,0,1-.16-.94c0-.22,0-.33,0-.33s0,.11,0,.32a1.85,1.85,0,0,0,.35.78,1.75,1.75,0,0,0,1.09.55,6,6,0,0,0,1.7,0,26,26,0,0,0,4.34-1c.79-.24,1.6-.52,2.42-.79l2.49-.88c1.67-.6,3.34-1.23,4.9-1.81l2.27-.84c.71-.27,1.4-.51,2-.74,1.26-.46,2.33-.82,3.07-1.07Z" transform="translate(12.48)"/></g></g></g></g></g></svg>
