<svg xmlns="http://www.w3.org/2000/svg" viewBox="0 0 157.65 152.4"><defs><style>.cls-1{fill:#e6b022;}.cls-2{fill:#f2c25b;}.cls-3{opacity:0.05;}.cls-4{opacity:0.1;}.cls-5{opacity:0.2;}.cls-6{opacity:0.25;}</style></defs><g id="Layer_2" data-name="Layer 2"><g id="Layer_1-2" data-name="Layer 1"><g id="Cheese"><path class="cls-1" d="M1.13,76.2c0,2.06-.88,12.21-1.13,24.91a11.17,11.17,0,0,1,9,11A11.16,11.16,0,0,1,.38,122.94c.69,11,2.29,21.74,5.56,29.46a54.25,54.25,0,0,1,7.74-3.6A11,11,0,0,1,34,141.37c38.08-13.12,101.53-32.09,114-33.59,6.18-6.87,9.61-75.52,9.61-75.52Z"/><path class="cls-2" d="M72.53,0,1.13,76.2,157.65,32.26S89.69,0,72.53,0Z"/><path class="cls-3" d="M97.22,107.09A9.2,9.2,0,1,1,88,97.88,9.2,9.2,0,0,1,97.22,107.09Z"/><path class="cls-4" d="M136,76.2A15.24,15.24,0,1,1,120.78,61,15.23,15.23,0,0,1,136,76.2Z"/><path class="cls-5" d="M41.64,107.09a6.18,6.18,0,1,1-6.18-6.18A6.18,6.18,0,0,1,41.64,107.09Z"/><circle class="cls-6" cx="88.02" cy="30.71" r="9.22" transform="matrix(0.16, -0.99, 0.99, 0.16, 43.64, 112.69)"/><path class="cls-4" d="M56.83,44.73a3.09,3.09,0,1,1-3.09-3.09A3.09,3.09,0,0,1,56.83,44.73Z"/></g></g></g></svg>
