<svg xmlns="http://www.w3.org/2000/svg" xmlns:xlink="http://www.w3.org/1999/xlink" viewBox="0 0 186.13 243.48"><defs><style>.cls-1{fill:none;}.cls-2{fill:#b2806b;}.cls-3{fill:#e4ac91;}.cls-4{opacity:0.7;}.cls-5{clip-path:url(#clip-path);}.cls-6{opacity:0.5;}.cls-7{fill:#fff;}</style><clipPath id="clip-path"><path class="cls-1" d="M93.07,203.33c23.29,0,36.33-35,43.66-54.66C131.73,163,123.07,182,124.4,196s-15,23.33-13,34,3.67,10.33,9,11.67,18.67,8.33,20.33-18.34,11.67-16.66,24.34-33.66,34.33-34.34,5.33-85c9-20.67,19.48-55.34,14.41-73.34-4.74-9-5.41-8.66-9.08-9S161.73,35,156.4,40c-.67-6.33-5-24.33-13-31S112.07,0,97.73,0H88.4C74.07,0,50.73,2.33,42.73,9s-12.33,24.67-13,31C24.4,35,14.07,22,10.4,22.33s-4.33,0-9.07,9c-5.08,18,5.4,52.67,14.4,73.34-29,50.66-7.33,68,5.34,85s22.66,7,24.33,33.66,15,19.67,20.33,18.34,7-1,9-11.67-14.33-20-13-34S54.4,163,49.4,148.67C56.73,168.33,70.36,203.33,93.07,203.33Z"/></clipPath></defs><g id="Layer_2" data-name="Layer 2"><g id="Layer_1-2" data-name="Layer 1"><g id="Chicken"><path class="cls-2" d="M142.23,173.67S114.9,207,93.07,207C70.9,207,51.22,185.29,47,163.79s-8-38.71-8-38.71l36.75-4.5,71.5,11.75Z"/><path class="cls-3" d="M93.07,203.33c23.29,0,36.33-35,43.66-54.66C131.73,163,123.07,182,124.4,196s-15,23.33-13,34,3.67,10.33,9,11.67,18.67,8.33,20.33-18.34,11.67-16.66,24.34-33.66,34.33-34.34,5.33-85c9-20.67,19.48-55.34,14.41-73.34-4.74-9-5.41-8.66-9.08-9S161.73,35,156.4,40c-.67-6.33-5-24.33-13-31S112.07,0,97.73,0H88.4C74.07,0,50.73,2.33,42.73,9s-12.33,24.67-13,31C24.4,35,14.07,22,10.4,22.33s-4.33,0-9.07,9c-5.08,18,5.4,52.67,14.4,73.34-29,50.66-7.33,68,5.34,85s22.66,7,24.33,33.66,15,19.67,20.33,18.34,7-1,9-11.67-14.33-20-13-34S54.4,163,49.4,148.67C56.73,168.33,70.36,203.33,93.07,203.33Z"/><g class="cls-4"><g class="cls-5"><g class="cls-6"><path d="M18.54,61.3c.3.88.6,1.75.95,2.6s.65,1.73,1.05,2.56L21.7,69c.42.82.85,1.64,1.3,2.46a26.15,26.15,0,0,0,1.43,2.43c.51.79,1,1.63,1.53,2.39s1.11,1.45,1.66,2.18L28,79l.21.27.31.34.55.57.61.53a9.35,9.35,0,0,0,1.8,1.11.13.13,0,0,1,0,.06,5.74,5.74,0,0,0-.1.82c0,.27,0,.56,0,.85,0,.59,0,1.22,0,1.85a9,9,0,0,0,.08.92c0,.3,0,.6.08.89.06.57.11,1.11.16,1.57,0,.11-.06.23,0,.33a3.08,3.08,0,0,1,.25.27c.15.16.31.31.43.43s.42.36.42.36l.33-.47c.1-.14.22-.32.33-.51l.2-.31c.08-.12,0-.21,0-.32,0-.44-.09-1-.14-1.51q0-.4-.09-.84c0-.29-.07-.59-.07-.88,0-.57,0-1.15,0-1.68,0-.27,0-.53,0-.78a2.39,2.39,0,0,1,0-.42,8.24,8.24,0,0,0,2.62.06,12,12,0,0,0,3.1-.86,20.4,20.4,0,0,0,5.07-3.23,29,29,0,0,0,2.12-2c.45-.47.87-.94,1.3-1.44l.09,0a2.25,2.25,0,0,0,.69-.21,2.45,2.45,0,0,0,1.34-1.6,3.34,3.34,0,0,0,.09-.52,1.68,1.68,0,0,0,0-.35,4.23,4.23,0,0,0-.11-.62,4.69,4.69,0,0,0-.31-.75,5.14,5.14,0,0,0-.32-.54,8.18,8.18,0,0,0-.64-.89,24.84,24.84,0,0,0-2.63-2.76c-.91-.87-1.83-1.61-2.67-2.38A16.42,16.42,0,0,1,41.06,62c-.64-.89-1.26-1.81-1.83-2.78s-1.16-2-1.7-3c-1.08-2-2.05-4.13-3-6.26s-1.87-4.28-2.73-6.45S30.08,39.17,29.26,37s-1.65-4.4-2.44-6.62L24.4,23.67c.34,2.34.76,4.68,1.23,7s1,4.63,1.61,6.93,1.2,4.59,1.91,6.87,1.46,4.53,2.29,6.78,1.77,4.45,2.81,6.64c.52,1.09,1.07,2.18,1.67,3.25s1.29,2.12,2,3.15a19.68,19.68,0,0,0,2.58,3c.89.83,1.8,1.59,2.59,2.36s1.52,1.47,2.14,2.19l-.08,0c-.47.61-1.06,1.3-1.63,1.92s-1.2,1.23-1.83,1.79a16.64,16.64,0,0,1-4,2.85,6.54,6.54,0,0,1-4.19.69,5.57,5.57,0,0,1-1.93-.84l-.45-.33-.43-.39-.11-.1-.06,0,0,0,0,0s.09.1,0,0h0l-.23-.25-.46-.51c-.61-.68-1.21-1.37-1.84-2s-1.09-1.38-1.64-2.08a24.89,24.89,0,0,1-1.59-2.15l-1.55-2.22-1.44-2.3c-.5-.77-.93-1.56-1.4-2.34s-.9-1.59-1.35-2.39-.87-1.61-1.3-2.42C18,59.55,18.24,60.43,18.54,61.3Zm28,10a.82.82,0,0,1,.2-.12,1.47,1.47,0,0,1,.27-.09h.09s-.06,0,0,0l-.58.22Z"/><path d="M136.27,73.13a2.47,2.47,0,0,0,1.34,1.6,2.38,2.38,0,0,0,.7.21l.09,0c.42.5.85,1,1.3,1.44a29,29,0,0,0,2.12,2,20.4,20.4,0,0,0,5.07,3.23,11.92,11.92,0,0,0,3.1.86l.41,0s0,.1,0,.15c0,.27,0,.56,0,.85,0,.59,0,1.22,0,1.85,0,.32,0,.62.07.92l.09.89c.06.57.11,1.11.15,1.57,0,.11-.05.23,0,.33l.25.27c.15.16.31.31.43.43s.41.36.41.36.14-.18.34-.47.22-.32.33-.51.13-.2.19-.31,0-.21,0-.32c0-.44-.09-1-.15-1.51,0-.27-.05-.55-.08-.84s-.07-.59-.07-.88c0-.57,0-1.15,0-1.68,0-.27,0-.53,0-.78a1.43,1.43,0,0,1,0-.38,7.7,7.7,0,0,0,1-.22,8.74,8.74,0,0,0,3-1.56l.61-.53.55-.57.32-.34L158,79l.41-.55c.56-.73,1.12-1.44,1.67-2.18s1-1.6,1.53-2.39,1-1.6,1.43-2.43.87-1.64,1.3-2.46l1.15-2.53c.41-.83.71-1.71,1.06-2.56s.65-1.72.95-2.6.56-1.75.8-2.63c-.42.81-.84,1.63-1.29,2.42s-.87,1.61-1.35,2.39-.91,1.57-1.4,2.34l-1.45,2.3-1.54,2.22a24.89,24.89,0,0,1-1.59,2.15c-.55.7-1.06,1.4-1.65,2.08s-1.22,1.36-1.83,2l-.46.51-.23.25h0c0,.05.06-.06,0,0v0l0,0,0,0-.11.1-.43.39-.46.33a5.52,5.52,0,0,1-1.92.84,6.54,6.54,0,0,1-4.19-.69,16.89,16.89,0,0,1-4-2.85c-.63-.56-1.24-1.16-1.82-1.79a24.87,24.87,0,0,1-1.63-1.92l-.08,0c.62-.72,1.38-1.47,2.14-2.19s1.7-1.53,2.58-2.36a19.76,19.76,0,0,0,2.59-3q1.09-1.55,2-3.15c.6-1.07,1.16-2.16,1.68-3.25,1-2.19,2-4.41,2.81-6.64s1.58-4.51,2.28-6.78,1.32-4.57,1.92-6.87,1.1-4.61,1.6-6.93.9-4.66,1.24-7l-2.42,6.67c-.79,2.22-1.63,4.42-2.45,6.62s-1.69,4.39-2.55,6.57-1.76,4.33-2.72,6.45-1.92,4.23-3,6.26c-.53,1-1.1,2-1.69,3S145.63,61.1,145,62a16.37,16.37,0,0,1-2.09,2.33c-.85.77-1.76,1.51-2.67,2.38a24.84,24.84,0,0,0-2.63,2.76,9.8,9.8,0,0,0-.65.89c-.11.18-.2.31-.32.54a7.74,7.74,0,0,0-.31.75,6.17,6.17,0,0,0-.11.62,1.82,1.82,0,0,0,0,.35A3.28,3.28,0,0,0,136.27,73.13Zm2.64-2H139a1.26,1.26,0,0,1,.28.09.82.82,0,0,1,.2.12h0l-.59-.22C139,71.07,138.87,71.09,138.91,71.08Z"/></g><path class="cls-7" d="M94.82,176.58l2.3-25.69c.68-7.71,1.46-16.7,2.31-26.33s1.67-19.91,2.38-30.2,1.47-20.57,1.91-30.22.79-18.66.69-26.38S104,23.6,103.16,19.17a22.28,22.28,0,0,0-1.4-5,6.56,6.56,0,0,0-.67-1.2l-.27-.39.29.38a7.11,7.11,0,0,1,.75,1.16,21.37,21.37,0,0,1,1.69,5,105.81,105.81,0,0,1,2,18.63c.26,7.75.28,16.8-.08,26.48s-.94,20-1.66,30.3-1.72,20.57-2.65,30.21-2,18.6-2.91,26.29-1.81,14.07-2.41,18.55S94.82,176.58,94.82,176.58Z"/></g></g></g></g></g></svg>
