<svg xmlns="http://www.w3.org/2000/svg" xmlns:xlink="http://www.w3.org/1999/xlink" viewBox="0 0 163.07 139.61"><defs><style>.cls-1{fill:none;}.cls-2{fill:#af8b6e;}.cls-3{fill:#e4bc95;}.cls-4{opacity:0.8;}.cls-5{clip-path:url(#clip-path);}.cls-6{fill:#231f20;}.cls-7{fill:#e2a36a;}.cls-8{clip-path:url(#clip-path-2);}</style><clipPath id="clip-path"><path class="cls-1" d="M2.93,88.15c1.19-3.56,24.45-20.88,29.32-24.6s16.44-17,25.45-17,10.58,3,13.58,6.43S85.87,68.42,90.16,71.42s11.58,15.3,10.43,30.17-10.86,22.73-17.44,27-23.31,10.16-34.89,10.16S12.8,130.19,8.08,122.32-4.22,109.6,2.93,88.15Z"/></clipPath><clipPath id="clip-path-2"><path class="cls-1" d="M63.7,41.61C64.88,38.05,88.15,20.73,93,17S109.45,0,118.46,0,129,3,132.05,6.43s14.58,15.45,18.87,18.45,11.58,15.3,10.44,30.17-10.87,22.74-17.45,27S120.61,92.23,109,92.23,73.56,83.65,68.85,75.78,56.55,63.06,63.7,41.61Z"/></clipPath></defs><g id="Layer_2" data-name="Layer 2"><g id="Layer_1-2" data-name="Layer 1"><g id="Clams"><path class="cls-2" d="M5,94.07c.79-3.67,22-23.42,26.46-27.65S46,47.72,54.92,46.74s10.85,1.83,14.21,4.91S85.31,65.41,89.9,67.93s13.18,13.95,13.66,28.86-8.32,23.78-14.39,28.76-22.06,12.63-33.58,13.89-36.18-4.66-41.73-12S.25,116.17,5,94.07Z"/><path class="cls-3" d="M2.93,88.15c1.19-3.56,24.45-20.88,29.32-24.6s16.44-17,25.45-17,10.58,3,13.58,6.43S85.87,68.42,90.16,71.42s11.58,15.3,10.43,30.17-10.86,22.73-17.44,27-23.31,10.16-34.89,10.16S12.8,130.19,8.08,122.32-4.22,109.6,2.93,88.15Z"/><g class="cls-4"><g class="cls-5"><path class="cls-6" d="M58.94,54a38.28,38.28,0,0,1-7.53-.72A26.39,26.39,0,0,1,42.59,50l.47-.71c.12.08,12.38,7.94,32.08.81l.29.81A48.37,48.37,0,0,1,58.94,54Z"/><path class="cls-6" d="M66,68.15c-1.29,0-2.7,0-4.22-.11a145.66,145.66,0,0,1-16.59-1.78c-2.71-.49-5.11-2.72-7-6.45a26.52,26.52,0,0,1-2-5.46l.84-.18c0,.1,2.3,10.17,8.24,11.25,7.24,1.32,27.49,3.36,30.19.15,3-3.52,7.08-9.63,7.12-9.69l.71.48c0,.06-4.19,6.21-7.17,9.76C75.05,67.47,71.63,68.15,66,68.15Z"/><path class="cls-6" d="M62.42,98.07c-10.21,0-22.44-2.79-29.16-5-4-1.33-6.53-6.64-7.43-15.78a86,86,0,0,1-.16-13.19l.86.07c0,.25-1.88,25.15,7,28.09a115.88,115.88,0,0,0,21.95,4.6c10.24,1,17.49,0,21-3.16,8.23-7.37,14.72-13.2,14-27.83l.86,0C92,80.86,85.07,87.1,77,94.33,74,97.06,68.55,98.07,62.42,98.07Z"/><path class="cls-6" d="M61,132.22c-5.73,0-11.66-1.34-17.47-2.66-5.3-1.19-10.31-2.33-14.88-2.38-4.22,0-8.3-2.19-11.8-6.2a36.15,36.15,0,0,1-6.55-11.76c-1.38-4-2-8-1.66-10.69,1-7.7-2.53-24.14-2.57-24.3L6.93,74c.14.69,3.58,16.75,2.58,24.6-.66,5.19,2.46,15.41,8,21.78,3.33,3.82,7.19,5.86,11.16,5.91,4.66,0,9.71,1.19,15,2.4,9.57,2.16,19.46,4.4,28.09.49,12-5.41,24.82-14.83,29.64-43.72l.85.14c-4.89,29.29-18,38.86-30.14,44.37A26.67,26.67,0,0,1,61,132.22Z"/></g></g><path class="cls-2" d="M61,43.22c1.3-3.52,25.11-20.08,30.09-23.64s17-16.47,26-16.18,10.48,3.34,13.37,6.86,14.08,15.91,18.27,19S159.8,45,158.18,59.8s-11.59,22.37-18.3,26.45-23.63,9.4-35.2,9S69.51,85.56,65.05,77.54,53.17,64.43,61,43.22Z"/><path class="cls-7" d="M63.7,41.61C64.88,38.05,88.15,20.73,93,17S109.45,0,118.46,0,129,3,132.05,6.43s14.58,15.45,18.87,18.45,11.58,15.3,10.44,30.17-10.87,22.74-17.45,27S120.61,92.23,109,92.23,73.56,83.65,68.85,75.78,56.55,63.06,63.7,41.61Z"/><g class="cls-4"><g class="cls-8"><path class="cls-6" d="M119.7,7.46a38.2,38.2,0,0,1-7.53-.73,26.39,26.39,0,0,1-8.82-3.23l.48-.71c.12.08,12.37,7.94,32.07.81l.3.81A48.46,48.46,0,0,1,119.7,7.46Z"/><path class="cls-6" d="M126.75,21.61c-1.29,0-2.69,0-4.22-.11A143.35,143.35,0,0,1,106,19.73c-2.72-.5-5.12-2.73-7-6.46a26.68,26.68,0,0,1-2-5.46l.84-.18c0,.1,2.3,10.17,8.24,11.25,7.24,1.32,27.5,3.36,30.19.15,3-3.52,7.09-9.63,7.13-9.69l.71.48c0,.06-4.2,6.21-7.18,9.76C135.82,20.93,132.39,21.61,126.75,21.61Z"/><path class="cls-6" d="M123.18,51.53c-10.21,0-22.44-2.78-29.16-5-4-1.33-6.53-6.64-7.42-15.78a86.7,86.7,0,0,1-.17-13.19l.86.07c0,.25-1.87,25.15,7,28.09a115.71,115.71,0,0,0,21.95,4.6c10.23,1,17.48,0,21-3.16,8.23-7.37,14.73-13.2,14-27.83l.85,0c.73,15-6.23,21.28-14.29,28.51C134.72,50.53,129.31,51.53,123.18,51.53Z"/><path class="cls-6" d="M121.79,85.68c-5.74,0-11.67-1.34-17.48-2.65C99,81.83,94,80.7,89.43,80.65c-4.22-.05-8.3-2.2-11.79-6.21a36,36,0,0,1-6.55-11.76c-1.38-4-2-8-1.67-10.69,1-7.7-2.53-24.14-2.57-24.3l.84-.18c.15.68,3.58,16.75,2.58,24.59-.66,5.19,2.47,15.41,8,21.78,3.33,3.82,7.19,5.86,11.16,5.91,4.67,0,9.72,1.19,15.06,2.4,9.57,2.16,19.46,4.4,28.09.5,11.95-5.42,24.82-14.84,29.63-43.72l.85.14c-4.88,29.28-18,38.85-30.13,44.36A26.7,26.7,0,0,1,121.79,85.68Z"/></g></g></g></g></g></svg>
