<svg xmlns="http://www.w3.org/2000/svg" viewBox="0 0 216.42 234.61"><defs><style>.cls-1{fill:#898a35;}.cls-2{fill:#e39925;}.cls-3{fill:#fdd135;}.cls-4{fill:#f8de84;}.cls-5{fill:#f68b3a;}.cls-6{fill:#bec431;}</style></defs><g id="Layer_2" data-name="Layer 2"><g id="Layer_1-2" data-name="Layer 1"><g id="Corn"><path class="cls-1" d="M130.34,151.05l-2.54-50.93-8.17-54.44S127.43,8.88,132.86,0c.73,13.41,6.53,134.13,6.53,139.21S130.34,151.05,130.34,151.05Z"/><path class="cls-1" d="M71.78,141.2S74.32,106,68.7,100.05,48.22,61.63,57.28,52.56c2,7.07,17.58,30.09,22.29,31.91s8.7-1.27,8.34,5.62,3.63,85-1.09,100C80.48,178,71.78,141.2,71.78,141.2Z"/><rect class="cls-2" x="94.98" y="115.28" width="12.32" height="12.33"/><rect class="cls-3" x="94.98" y="144.28" width="12.32" height="12.33"/><rect class="cls-4" x="94.98" y="129.78" width="12.32" height="12.33"/><path class="cls-3" d="M107.3,55.1V42.78H96.2c-.42,1.08-.83,2.2-1.22,3.35v9Z"/><rect class="cls-3" x="94.98" y="173.28" width="12.32" height="12.33"/><rect class="cls-3" x="94.98" y="158.78" width="12.32" height="12.33"/><rect class="cls-3" x="109.48" y="187.79" width="12.33" height="12.33"/><rect class="cls-5" x="94.98" y="57.28" width="12.32" height="12.33"/><rect class="cls-4" x="109.48" y="173.28" width="12.33" height="12.33"/><rect class="cls-4" x="94.98" y="86.28" width="12.32" height="12.32"/><rect class="cls-3" x="94.98" y="71.78" width="12.32" height="12.33"/><rect class="cls-3" x="94.98" y="100.78" width="12.32" height="12.33"/><rect class="cls-3" x="94.98" y="187.79" width="12.32" height="12.33"/><path class="cls-3" d="M92.29,55.1h.51V53.21Z"/><path class="cls-3" d="M92.8,144.28H84.15c-.05,3.6-.11,7.8-.15,12.33h8.8Z"/><path class="cls-2" d="M92.8,158.78H84c0,4,0,8.13,0,12.33H92.8Z"/><path class="cls-3" d="M92.8,173.28H83.94c0,4.18,0,8.34.13,12.33H92.8Z"/><path class="cls-3" d="M92.8,115.28H85.27c-.33,4.69-.61,9-.78,12.33H92.8Z"/><path class="cls-3" d="M92.8,129.78H84.39c0,1.3-.08,2.41-.08,3.26,0,1.38-.06,4.63-.13,9.07H92.8Z"/><path class="cls-3" d="M92.8,187.79H84.11c.1,4.48.25,8.67.47,12.32H92.8Z"/><path class="cls-3" d="M92.8,100.78H86.33c-.31,4.16-.62,8.36-.9,12.33H92.8Z"/><path class="cls-3" d="M92.8,57.28H91.74c-1,4.19-1.89,8.4-2.55,12.32H92.8Z"/><path class="cls-3" d="M92.8,71.78h-4c-.59,3.78-1,7.21-1.16,10-.05.75-.1,1.55-.15,2.35H92.8Z"/><path class="cls-3" d="M92.8,86.28H87.38c-.26,3.8-.57,8-.89,12.32H92.8Z"/><path class="cls-3" d="M127.73,71.78H124V84.1h6.47c-.08-.54-.18-1-.28-1.45C129.49,79.78,128.68,76,127.73,71.78Z"/><path class="cls-3" d="M124,86.28V98.6h7.49c-.16-5-.4-9.27-.73-12.32Z"/><rect class="cls-3" x="109.48" y="158.78" width="12.33" height="12.33"/><path class="cls-3" d="M130.77,187.79H124v12.32h6.47C130.54,196.62,130.65,192.45,130.77,187.79Z"/><path class="cls-3" d="M124,100.78v12.33h7.75c0-4.43-.1-8.58-.2-12.33Z"/><path class="cls-3" d="M131.75,115.28H124v12.33h7.77C131.77,123.36,131.77,119.22,131.75,115.28Z"/><path class="cls-5" d="M124,129.78v12.33h7.65c.05-4.16.09-8.29.11-12.33Z"/><path class="cls-3" d="M124,144.28v12.33h7.44c.07-4.08.13-8.21.19-12.33Z"/><path class="cls-3" d="M107.3,202.29H95V215.7c3.65.22,7.76,0,11.17,0h1.15Z"/><path class="cls-3" d="M109.48,40.6h9.34c-2.7-6.51-5.8-11.32-9.34-12.31Z"/><path class="cls-3" d="M124,202.29v12.37c3.59-.66,6.19-1.73,6.19-3.49,0-.7.09-3.91.22-8.88Z"/><path class="cls-3" d="M107.3,40.6V28.17c-3.85.63-7.31,5.59-10.22,12.43Z"/><path class="cls-3" d="M92.8,202.29H84.73c.42,5.83,1,9.9,2,10.87,1.25,1.33,3.47,2,6.11,2.34Z"/><path class="cls-3" d="M124,69.6h3.25c-.89-3.91-1.89-8.13-3-12.32H124Z"/><rect class="cls-3" x="109.48" y="86.28" width="12.33" height="12.32"/><rect class="cls-4" x="109.48" y="115.28" width="12.33" height="12.33"/><rect class="cls-3" x="109.48" y="100.78" width="12.33" height="12.33"/><rect class="cls-3" x="109.48" y="144.28" width="12.33" height="12.33"/><rect class="cls-3" x="109.48" y="129.78" width="12.33" height="12.33"/><path class="cls-3" d="M121.81,202.29H109.48v13.4a110.74,110.74,0,0,0,12.33-.69Z"/><path class="cls-3" d="M124,185.61h6.84c.09-3.85.19-8,.28-12.33H124Z"/><path class="cls-5" d="M119.68,42.78h-10.2V55.1h12.33V48.93C121.13,46.79,120.42,44.73,119.68,42.78Z"/><rect class="cls-3" x="109.48" y="57.28" width="12.33" height="12.33"/><path class="cls-2" d="M124,158.78v12.33h7.17c.08-4,.16-8.12.24-12.33Z"/><rect class="cls-2" x="109.48" y="71.78" width="12.33" height="12.33"/><path class="cls-1" d="M65.07,125.07S6.16,87,0,80.3c4,13.23,9.25,25.55,9.25,25.55l62.53,53.66Z"/><path class="cls-6" d="M96.43,229.11s-2.72,4.72,1.63,5.26,23.57.36,24.83-2.63-2.17-5-2.9-6.8,2.9-7.79,8-10.33,19-77.76,19.94-87.55c6.89.18,51.84,29.55,60.36,30.09,7.07-.54,8.15-2.54,8.15-2.54S157.33,120,150.26,118c-4.89,0-22.11,31-22.47,37.7s4.07,43.74.08,45.73-33.61,7.2-35.43,6.47c-1.08-4.53-15.77-79.21-16.31-84.28s-10.51-6.16-16.5-5.62-23.92,5.26-31.35,9.43c-10.52-1.64-16.5-.55-21.39-.73s.72,8.7,8.34,11.6c8.15-1.45,15.22-3.81,18.85-3.81s21.57,2.9,24.47,2.9c2.17,4.9,24.67,67.43,25.38,75.23,7.06,3.8,13.59,2.9,12.86,6.34S96.43,229.11,96.43,229.11Z"/></g></g></g></svg>
