<svg xmlns="http://www.w3.org/2000/svg" viewBox="0 0 258.81 148.55"><defs><style>.cls-1{isolation:isolate;}.cls-2{fill:#ed2024;}.cls-3,.cls-6{opacity:0.2;}.cls-3{mix-blend-mode:luminosity;}.cls-4{fill:#fff;}.cls-5{fill:#231f20;}</style></defs><g class="cls-1"><g id="Layer_2" data-name="Layer 2"><g id="Layer_1-2" data-name="Layer 1"><g id="Crab"><path d="M147.14,48.88A2.18,2.18,0,1,1,145,46.71,2.18,2.18,0,0,1,147.14,48.88Z"/><path d="M106.91,51.47a2.2,2.2,0,1,1-2.2-2.2A2.2,2.2,0,0,1,106.91,51.47Z"/><path class="cls-2" d="M129.8,33.38s13.5-9,22.5-4c-1.34-3-9.34-6.68-21.17,1.25,3.17-6.41,13.83-16.25,31-12.25l.5-.83s17.17,6.83,21.5,14.33c2.83-.33,10.67,5.34,11.83,11s-3,20.34-5.83,20.5c.17,1.5-2.67,6.5-7.67,8.84,1.17,1.66,0,8.66,0,8.66s11-14.33,15.67-13c.33-2.16,5.33-14.16,7.5-13.66-.33-1,4-25.17,7.17-25.5-.67-1.84-3.84-23.34-12.34-23.67,5.67-.67,16.84,14.5,16.84,19.33,1.66.5.66,32.67-4.5,32.5.66.84-7.5,16.5-10.84,15.34-.66,2-17.76,19.5-28,21.16-1.79,3-3.46,5.84-3.46,5.84s29.67-20.34,32.67-22.5c1.5-2.67,13.33-14.34,16-12.5,4.17-3.34,20.17-14.34,23.5-14,1.17-1.5,2-14.84-2-16,7.33,0,7.17,12,5.33,15.33.5,2.5-21.33,18.83-23.5,18.5,0,1.83-12.16,13.67-14.66,13.83.33,2.17-31,26.84-38.84,25.84-2.5,3.66-5.16,6.66-4.16,9,3.66-1.67,39.83-30,43.83-28.17,2.83-3,20.5-7.5,22.83-3.33,2.67,0,23.5,4,24.5,9,2.67-.17,5.34,25.66-1.33,31,0-6,2.33-26-1.33-26.67-2.17,1-26.17-2.33-29-4.17-2.67,1.34-10.5.67-13.67-.66-.5,2.33-29.17,23.66-40,26.83,2,.17,32-16,33-13,2.5-1.83,30.33,2.33,28.83,20.33.67,8.84-14.83,17.5-22.83,20.67,3.67-4.83,14.33-10.33,12.67-17.33-2.17-.34-16.84-15.5-16.17-16.5-2.83,3.16-31,14.5-41.33,15.83s-26.5,4-32.34,4-34.5-1-47.16-6.33-29.67-15.34-33-17.17c-3.34,2.5-12.84,12.83-16.84,14.17,4,6.16,9,15.66,12.84,17.33-6.84-1.5-22.84-15.67-21.84-17.83-1.83-2-2-21,25.67-21.17,3.67-2.17,33,14.67,37,17.67-5.33-5.34-39.67-27-37.33-32-6.84.16-43.34,1.16-45.17.5-.17,1.5-7,15.83-1.83,24.16-3.5-2.66-9.17-28,.83-30.66,3.17-3.5,41.83-6.5,47.33,1.16,4.17-.5,15.84,4.67,39.67,33a39.76,39.76,0,0,1,4.5.67S57.13,82.22,57,79.88c0,0-16.5-12-16.5-16.83-8-3.17-26.16-15.5-26.5-18-3-2.33-2-23.83,4-20.83-1.83,1.66-1.09,14.6-2,18.5,4.84.16,26,12.33,26.67,16,4.33.33,15.17,11.66,15.67,15,2,.83,22.83,17.83,25,22.16-.17-6.5-.34-10.33-.34-10.33s-18.16-3.33-22-16C53.63,64.05,49.8,55.88,50.8,54.22c-2-2.5-5.5-31.67-3.67-32.17,0-3,13.67-23.17,20.5-22-2.33,2-14.17,16.5-13.67,22.5,2.34,2.67,5.34,26.33,5,29.5,2.5,3.17,6.34,10.67,6.17,13.67,3,.33,12,12.33,16.17,10.16-4.17-5.66-10-10.5-9-12.16-5.17-2.67-14.84-13.67-8.67-24.67S83.8,14.22,86.13,13.38c2.33,1,3.83,1.5,3.83,1.5s30.56-10.5,39.45,6.84c-5.11-2.5-24.78-6.17-27.61,0,3.5,2,22.33-2.17,25.5,1.5l.33,1.66s-9,4.34-15.5,5.34S98.3,36.05,95,38.05,83,45.38,82.8,46.22A20,20,0,0,1,83,48.38s-3.16,0-2.83,1.17,1,6,1,6,10.5-.33,11.83,2.5a47.86,47.86,0,0,1,7.17-5.33c4.17,2.16,4.83.5,7.67-3.34,3.83-1.16,9.83-6,17.16-6s10.34,1.84,13.67,3.34,2.67,4,4.83,4,4.67-4.67,7.34-2.67,19.5,9.83,21.66,9.17,7.67-1.34,6.5-7-16.33-8.67-20.16-10.5S134,33.05,129.8,33.38Z"/><g class="cls-3"><path class="cls-4" d="M127.32,55.94s-.15,1-.4,2.72-.57,4.2-1,7.16-.78,6.44-1.2,10.15c-.18,1.86-.41,3.78-.57,5.73s-.35,3.94-.44,5.93-.29,4-.35,5.93c0,1-.08,2-.11,2.91s0,1.9,0,2.84c0,1.86,0,3.66.07,5.37s.17,3.32.29,4.81.3,2.83.48,4c.09.6.17,1.17.24,1.69s.24,1,.33,1.4l.66,2.66-.85-2.61c-.12-.42-.3-.88-.41-1.4s-.22-1.07-.34-1.67a33,33,0,0,1-.67-4c-.17-1.5-.4-3.11-.46-4.83s-.24-3.53-.2-5.41c0-.94,0-1.89,0-2.86s.05-1.94.08-2.93c0-2,.15-4,.28-6s.34-4,.52-6,.43-3.88.63-5.74.49-3.65.74-5.35.51-3.3.77-4.78c.48-3,1-5.4,1.33-7.12S127.32,55.94,127.32,55.94Z"/></g><g class="cls-3"><path class="cls-5" d="M155.46,67.05a16.71,16.71,0,0,0-2.32-1.12,14.25,14.25,0,0,0-6.46-1.16,8.62,8.62,0,0,0-4,1.34,11.43,11.43,0,0,0-3.22,3.4,23.15,23.15,0,0,0-2.13,4.73c-.29.84-.49,1.74-.74,2.61s-.37,1.8-.56,2.7-.29,1.82-.43,2.73-.21,1.83-.31,2.74c-.19,1.82-.3,3.62-.4,5.37s-.17,3.44-.16,5-.07,3.13,0,4.53,0,2.7,0,3.85,0,2.14,0,3c0,1.65,0,2.59,0,2.59l-.41-2.56c-.11-.82-.25-1.81-.41-2.95s-.27-2.43-.4-3.85-.21-2.94-.3-4.57-.1-3.34-.11-5.11c0-.89.05-1.8.07-2.71s.06-1.85.17-2.78.15-1.88.28-2.82.27-1.89.41-2.84.4-1.88.62-2.81.5-1.86.83-2.76A20.35,20.35,0,0,1,136.64,71,19.47,19.47,0,0,1,138,68.54a11.93,11.93,0,0,1,3.93-3.7,9.27,9.27,0,0,1,4.68-1.21,11.85,11.85,0,0,1,3.93.68,17.2,17.2,0,0,1,2.75,1.26,16.68,16.68,0,0,1,1.61,1.06A5.84,5.84,0,0,1,155.46,67.05Z"/></g><g class="cls-3"><path class="cls-5" d="M97.8,70.05s.17-.19.51-.53a18,18,0,0,1,1.55-1.41,19.62,19.62,0,0,1,2.71-1.86,9.21,9.21,0,0,1,4.18-1.33,5.55,5.55,0,0,1,2.62.55,6.47,6.47,0,0,1,2.14,1.93,14.06,14.06,0,0,1,2,5.49,36.68,36.68,0,0,1,.47,6c0,2-.12,4.13-.29,6.19s-.36,4.08-.54,6.09-.4,4-.58,5.9c-.39,3.83-.8,7.39-1.18,10.45s-.77,5.59-1.08,7.37-.5,2.78-.5,2.78,0-1,.11-2.83c0-.9.11-2,.17-3.23s.08-2.66.15-4.19c.13-3.08.32-6.66.57-10.5.14-1.92.24-3.9.41-5.91s.32-4.06.48-6.1.31-4,.35-6a41.73,41.73,0,0,0-.27-5.77,13.63,13.63,0,0,0-1.5-4.94,5.45,5.45,0,0,0-1.54-1.59,4.39,4.39,0,0,0-2-.57,9.17,9.17,0,0,0-3.84.85,19.29,19.29,0,0,0-2.81,1.51A25.61,25.61,0,0,0,97.8,70.05Z"/></g><g class="cls-6"><path class="cls-4" d="M149.46,20.05s.52-.09,1.43-.16c.45,0,1-.05,1.64-.08s1.36,0,2.14,0,1.63.08,2.53.18,1.83.23,2.8.38,2,.38,3,.65,2,.55,3,.94l1.47.55c.49.2.95.43,1.42.65s.94.42,1.39.66l1.3.76c.42.25.86.47,1.24.75l1.12.82L175,27c.33.26.63.55.93.81.58.52,1.12,1,1.56,1.45l1.09,1.25.92,1.09-1.06-1-1.2-1.1c-.49-.4-1.07-.81-1.67-1.3-.31-.23-.61-.49-.95-.73l-1.09-.69L172.35,26c-.4-.23-.82-.44-1.24-.68s-.86-.45-1.29-.69l-1.37-.62c-.46-.2-.91-.42-1.39-.61l-1.44-.52c-1-.4-2-.64-2.91-1s-1.94-.5-2.88-.72-1.85-.4-2.73-.52-1.7-.26-2.47-.34-1.48-.14-2.11-.21-1.18-.09-1.63-.09C150,20,149.46,20.05,149.46,20.05Z"/></g><g class="cls-6"><path class="cls-4" d="M74.25,30.7s.26-.46.78-1.2c.26-.38.6-.81,1-1.32s.83-1.08,1.36-1.64,1.1-1.21,1.74-1.84,1.33-1.28,2.06-1.94,1.53-1.28,2.37-1.88,1.69-1.22,2.61-1.73l1.36-.79c.45-.26.93-.47,1.39-.7s.92-.46,1.39-.66l1.4-.53c.47-.17.91-.37,1.36-.5l1.35-.35,1.26-.33c.42-.1.83-.14,1.21-.21.78-.13,1.49-.25,2.12-.3l1.64-.06,1.43,0-1.41.23L99,15.14,97,15.63c-.38.09-.77.16-1.17.28l-1.22.41-1.28.43c-.43.16-.86.35-1.31.54l-1.34.56-1.34.67c-.45.23-.91.44-1.35.7L86.66,20c-.9.49-1.71,1.11-2.56,1.66s-1.61,1.19-2.37,1.78-1.48,1.18-2.12,1.78-1.28,1.16-1.83,1.7c-1.1,1.09-2,2-2.6,2.7S74.25,30.7,74.25,30.7Z"/></g></g></g></g></g></svg>
