<svg xmlns="http://www.w3.org/2000/svg" viewBox="0 0 191.63 161.53"><defs><style>.cls-1{fill:#ebe7de;}.cls-2{fill:#d3af2a;}.cls-3{fill:#e5e1d5;opacity:0.5;}</style></defs><g id="Layer_2" data-name="Layer 2"><g id="Layer_1-2" data-name="Layer 1"><g id="Egg"><path class="cls-1" d="M9.83,56.58c-.73-7-14-17-8.5-27s27-31,53-29.5,22,6,39.5,5c30.67-1.76,47.68,3.49,54.83,5.83,8.67,2.83,12.67,12.67,16.17,27.67s22,24,22,42.5-1,22.5,3.5,30-3,20-17.5,22.5-13.5,22.5-36.5,23.5-8.5,9.5-40,0-33,12.5-55-8-34-38.5-35.5-47.5S11.05,68.37,9.83,56.58Z"/><circle class="cls-2" cx="98.83" cy="72.08" r="36.5"/><path class="cls-3" d="M72.33,61.58c0-7.46,11.87-15.5,26.5-15.5s26.5,8,26.5,15.5-11.86-.5-26.5-.5S72.33,69,72.33,61.58Z"/></g></g></g></svg>
