<svg xmlns="http://www.w3.org/2000/svg" viewBox="0 0 210.03 143.83"><defs><style>.cls-1{fill:#2878af;}.cls-2{fill:#233166;}.cls-3{fill:#2e4d9f;}.cls-4{opacity:0.5;}.cls-5{fill:#fff;}.cls-6{fill:#353638;}.cls-7{fill:#afbddc;}</style></defs><g id="Layer_2" data-name="Layer 2"><g id="Layer_1-2" data-name="Layer 1"><g id="Fish"><path class="cls-1" d="M47.13,71.17s17.89-38,60-38v68.09S57.69,101,45.39,86.33C48.12,75,47.13,71.17,47.13,71.17Z"/><path class="cls-2" d="M126.37,99c-4.79,9.22-10.87,33.35-8.59,40.65s-12.08,4.92-6-6.06-1.25-7.46-4.08-3.68-9.79,2.29-5.61-3.28,6.4-12,.93-11.18a3.29,3.29,0,0,1-2.59-1.94c-.78-5.48-6.3-1.54-10.47,4s-7.56-.7-4.72-4.48,4.17-11.78-4.68-2.88-15.16-4.23-7.5-4.08,29.12-12.45,36.62-19.63c4.17-4,10-5.54,14.62-2.09S129,93.86,126.37,99Z"/><path class="cls-2" d="M111.7,37.21c4.07,4.08,2.92,11.06,8.6,12s10.14-3.15,12-8.61c3.33-9.84,16.54-30.93,23.4-34.34s-4.81-12.12-8.54-.14-6.24,4.26-5.48-.4-5.12-8.65-6.25-1.78-4.2,12.9-7.43,8.41c-.47-.66-2.71-1.18-3.19-.53-.88,1.21-2.22,6.1-4.4,4-.79-.74-.56-3.07-3.07-3.07S108.14,33.66,111.7,37.21Z"/><path class="cls-3" d="M207.29,68.18c-11.45-24-41.63-48.89-64.11-48.89-24,0-31.7,4.42-31.7,4.42h0c-8.86,3.78-15.21,14-15.21,25.92,0,9.33,3.86,17.57,9.77,22.54a26.68,26.68,0,0,0-6.42,17.75c0,13.42,9,24.29,20.2,24.29,45.47,0,73.31-25.71,90.21-46Z"/><g class="cls-4"><path class="cls-5" d="M73.9,54.55a22.14,22.14,0,0,1,2,1.61A22.45,22.45,0,0,1,77.72,58a12.57,12.57,0,0,1,1.54,2.13,7.18,7.18,0,0,1,.6,1.21l.2.67.11.71-1-.11c.29-.91.62-1.82.92-2.72.15-.46.34-.9.53-1.34l.56-1.31c.38-.88.78-1.75,1.21-2.6s.86-1.7,1.35-2.52C83.21,54,82.59,55.74,82,57.53c-.29.9-.66,1.78-.93,2.68s-.57,1.79-.88,2.67l-.69,1.94-.28-2-.08-.55L79,61.67a11.91,11.91,0,0,0-.49-1.1c-.18-.37-.41-.71-.62-1.06s-.46-.7-.71-1A49.35,49.35,0,0,0,73.9,54.55Z"/></g><g class="cls-4"><path class="cls-5" d="M84.42,60.2a6.83,6.83,0,0,1,1.81,1.36,3.31,3.31,0,0,1,.39.44,3.54,3.54,0,0,1,.34.49,4.77,4.77,0,0,1,.29.55c.06.22.11.45.16.68l-1-.11c.28-.79.59-1.57.94-2.33a8.93,8.93,0,0,1,.59-1.1,11.91,11.91,0,0,1,.72-1,29.72,29.72,0,0,1-1.3,4.73l-.55,1.47-.42-1.58c0-.13-.06-.26-.08-.4s-.13-.29-.19-.44a2.79,2.79,0,0,0-.24-.45,4.12,4.12,0,0,0-.27-.45C85.26,61.42,84.83,60.83,84.42,60.2Z"/></g><g class="cls-4"><path class="cls-5" d="M87.3,69.6a13.19,13.19,0,0,1,1.48,1.1A12.55,12.55,0,0,1,90.11,72a9,9,0,0,1,1.13,1.51,4.61,4.61,0,0,1,.44.89l.16.49.08.53-1-.11c.21-.66.45-1.3.67-2s.52-1.26.8-1.89.57-1.23.9-1.83.65-1.2,1-1.77c-.35,1.32-.76,2.62-1.18,3.9-.2.64-.46,1.27-.65,1.91s-.39,1.27-.62,1.9l-.69,1.94-.28-2-.05-.36-.11-.39c-.1-.25-.2-.51-.33-.76a13.14,13.14,0,0,0-.92-1.5C88.84,71.49,88.09,70.54,87.3,69.6Z"/></g><g class="cls-4"><path class="cls-5" d="M73.9,73.39a13.19,13.19,0,0,1,1.48,1.1,12.55,12.55,0,0,1,1.33,1.3,9,9,0,0,1,1.13,1.51,4.52,4.52,0,0,1,.44.88l.15.5.09.53-1-.11c.21-.66.45-1.3.67-1.95s.52-1.26.8-1.89.57-1.23.9-1.83.65-1.2,1-1.77c-.35,1.32-.76,2.62-1.18,3.9-.2.64-.46,1.27-.65,1.91s-.39,1.27-.62,1.9l-.69,1.94-.28-2,0-.37-.11-.38c-.1-.25-.2-.51-.33-.76a13.14,13.14,0,0,0-.92-1.5C75.44,75.28,74.68,74.33,73.9,73.39Z"/></g><g class="cls-4"><path class="cls-5" d="M64.05,64.7a13.19,13.19,0,0,1,1.48,1.1,12.55,12.55,0,0,1,1.33,1.3A9.06,9.06,0,0,1,68,68.61a5.23,5.23,0,0,1,.43.89l.16.49.08.53-1-.11c.21-.65.45-1.3.67-2s.52-1.26.8-1.89.57-1.23.9-1.83.65-1.2,1-1.77c-.35,1.32-.76,2.62-1.18,3.9-.2.64-.46,1.27-.64,1.91s-.4,1.27-.63,1.9L68,72.62l-.28-2.05-.05-.36-.11-.39c-.1-.25-.2-.51-.33-.76a13.14,13.14,0,0,0-.92-1.5C65.59,66.59,64.84,65.64,64.05,64.7Z"/></g><path class="cls-2" d="M43.55,89.19c-10.25,1.69-33.21,11.3-37.68,17.52S-5.31,100,7.11,98.26s5.22-5.47.5-5.47-7.7-6.46-.74-6.46,13.41-2.06,9.5-6a3.26,3.26,0,0,1,0-3.23c3.91-3.91-2.55-6-9.5-6s-4-6.46.74-6.46,11.93-3.73-.5-5.47S1.4,44.58,5.87,50.79,33.3,66.61,43.55,68.31C49.24,69.25,54,73,54,78.75S49.24,88.24,43.55,89.19Z"/><path class="cls-6" d="M128.12,32.18a15.62,15.62,0,0,0-2.6,1.77,22.61,22.61,0,0,0-2.62,2.46,31,31,0,0,0-2.85,3.65,37.29,37.29,0,0,0-2.64,4.77,41.33,41.33,0,0,0-2.08,5.72c-.33,1-.52,2.07-.79,3.12s-.43,2.15-.59,3.25-.33,2.21-.41,3.33-.2,2.25-.23,3.39l-.08,1.7v3.39l.06,1.68c.07,2.24.25,4.44.44,6.57.12,1.06.24,2.11.35,3.13s.29,2,.42,3c.25,1.94.61,3.77.89,5.47s.63,3.23.88,4.61.54,2.57.76,3.55c.44,2,.66,3.1.66,3.1s-.39-1.08-1-3c-.31-1-.72-2.11-1.1-3.47s-.89-2.86-1.28-4.55-.9-3.5-1.24-5.46c-.19-1-.41-2-.58-3s-.31-2.09-.47-3.17-.24-2.18-.37-3.29-.19-2.25-.25-3.39c0-.58,0-1.15-.08-1.73V65.29l.07-1.75c0-1.16.14-2.33.27-3.48s.29-2.31.46-3.45.44-2.25.68-3.36.54-2.18.92-3.22a36.37,36.37,0,0,1,2.43-5.85,31,31,0,0,1,3-4.79,25,25,0,0,1,3.25-3.51,22.71,22.71,0,0,1,2.91-2.24,14.68,14.68,0,0,1,2.06-1.14C127.85,32.27,128.12,32.18,128.12,32.18Z"/><path class="cls-6" d="M129.26,37.54a6.6,6.6,0,0,0-.6.36,15.89,15.89,0,0,0-1.56,1.17l-1,.91c-.34.37-.72.76-1.13,1.18s-.75.92-1.17,1.42l-.61.78-.57.88-.59.91a6.67,6.67,0,0,0-.55,1c-.35.68-.7,1.39-1.07,2.11s-.59,1.54-.9,2.33c-.15.4-.3.8-.46,1.21s-.22.84-.34,1.27q-.33,1.29-.69,2.61c-.14.9-.29,1.81-.43,2.74A41.62,41.62,0,0,0,117,64l-.1,1.42,0,1.43c0,1,0,1.89,0,2.83,0,1.88.24,3.72.38,5.51q.12,1.35.24,2.64c.08.86.25,1.69.36,2.51.27,1.63.5,3.18.7,4.61.09.72.24,1.4.38,2s.26,1.26.38,1.83c.23,1.16.43,2.17.59,3l.49,2.63s-.32-.92-.87-2.53c-.27-.8-.59-1.78-1-2.91s-.84-2.39-1.14-3.82-.69-3-1-4.6c-.17-.82-.39-1.65-.52-2.52s-.24-1.77-.36-2.68a44.37,44.37,0,0,1-.55-5.63c0-1-.06-1.94-.09-2.92l0-1.46.1-1.48a43.46,43.46,0,0,1,.63-5.84c.17-1,.34-1.91.53-2.85s.55-1.82.82-2.71c.14-.44.28-.88.41-1.31l.54-1.25c.38-.81.7-1.63,1.09-2.38l1.27-2.14a7.3,7.3,0,0,1,.66-1q.36-.45.69-.9l.67-.86c.23-.27.48-.51.71-.76.49-.47.9-1,1.37-1.34l1.29-1.07,1.19-.79a7,7,0,0,1,1-.57,4.66,4.66,0,0,1,.75-.37A5.29,5.29,0,0,1,129.26,37.54Z"/><path class="cls-6" d="M132.09,40.38a4.23,4.23,0,0,0-.55.34,13.49,13.49,0,0,0-1.45,1.09l-1,.85-1,1.09A17,17,0,0,0,127,45.07l-.57.73c-.17.26-.34.54-.52.81a31.35,31.35,0,0,0-2,3.71c-.31.68-.54,1.42-.83,2.16l-.42,1.11c-.1.39-.2.78-.31,1.18-.21.79-.42,1.6-.63,2.41s-.27,1.68-.41,2.53a38.94,38.94,0,0,0-.49,5.22l-.1,1.31,0,1.32c0,.88,0,1.76,0,2.62,0,1.74.21,3.45.34,5.11.07.83.14,1.64.21,2.44s.23,1.57.34,2.32c.24,1.51.44,3,.63,4.28.08.66.22,1.29.34,1.89s.24,1.16.35,1.7c.2,1.07.39,2,.53,2.78l.44,2.43s-.3-.84-.82-2.33l-.9-2.7c-.31-1-.78-2.21-1.06-3.53s-.65-2.74-1-4.26c-.16-.76-.37-1.54-.5-2.34s-.22-1.64-.33-2.48a40.1,40.1,0,0,1-.52-5.23q0-1.33-.09-2.7l0-1.36.09-1.37a41,41,0,0,1,.59-5.43c.16-.89.32-1.77.5-2.63s.51-1.69.76-2.52c.13-.41.25-.82.38-1.22l.51-1.16c.35-.75.64-1.51,1-2.2l1.18-2A18.13,18.13,0,0,1,125,45.94c.21-.27.41-.54.62-.8s.44-.47.66-.69a16.32,16.32,0,0,1,1.28-1.24l1.2-1,1.1-.73a11.42,11.42,0,0,1,1.63-.87A6.39,6.39,0,0,1,132.09,40.38Z"/><circle class="cls-7" cx="169.15" cy="42.72" r="16"/><path class="cls-3" d="M180.61,42.72A5.73,5.73,0,1,1,174.88,37,5.73,5.73,0,0,1,180.61,42.72Z"/></g></g></g></svg>
