<svg xmlns="http://www.w3.org/2000/svg" viewBox="0 0 172.27 231.76"><defs><style>.cls-1,.cls-5{fill:#ab1e23;}.cls-2{fill:#e5a624;}.cls-3{fill:#f9d972;}.cls-4{fill:#f4c050;}.cls-5{opacity:0.2;}.cls-6{fill:#d12026;}</style></defs><g id="Layer_2" data-name="Layer 2"><g id="Layer_1-2" data-name="Layer 1"><g id="French_Fries" data-name="French Fries"><path class="cls-1" d="M22,231.76H141.15l22-155.11H0Z"/><rect class="cls-2" x="71.86" y="94.53" width="163.69" height="8.51" transform="translate(30.24 233.46) rotate(-80.21)"/><polygon class="cls-3" points="166.42 25 158.03 23.56 162.94 17.32 172.27 18.93 166.42 25"/><rect class="cls-4" x="70.57" y="97.25" width="156.71" height="8.51" transform="translate(23.61 231.03) rotate(-80.22)"/><rect class="cls-2" x="53.31" y="111.26" width="163.69" height="8.51" transform="translate(4.06 235.6) rotate(-83.01)"/><polygon class="cls-3" points="144.27 41.2 135.82 40.16 140.41 33.7 149.81 34.85 144.27 41.2"/><rect class="cls-4" x="52.15" y="114.2" width="156.71" height="8.51" transform="translate(-2.94 233.58) rotate(-83.01)"/><rect class="cls-2" x="114.39" y="44.88" width="8.51" height="163.69" transform="translate(-0.43 0.4) rotate(-0.19)"/><polygon class="cls-3" points="118.39 51.85 109.88 51.88 113.62 44.89 123.1 44.86 118.39 51.85"/><rect class="cls-4" x="110.15" y="51.87" width="8.51" height="156.71" transform="translate(-0.46 0.41) rotate(-0.2)"/><rect class="cls-2" x="27.23" y="40.17" width="8.51" height="163.69" transform="translate(-0.42 0.11) rotate(-0.2)"/><polygon class="cls-3" points="31.23 47.15 22.72 47.18 26.46 40.19 35.94 40.16 31.23 47.15"/><rect class="cls-4" x="22.99" y="47.16" width="8.51" height="156.71" transform="translate(-0.43 0.09) rotate(-0.2)"/><rect class="cls-2" x="15.12" y="44.63" width="8.51" height="163.69" transform="translate(-16.68 3.71) rotate(-7.66)"/><polygon class="cls-3" points="9.38 52.27 0.95 53.41 3.76 45.99 13.15 44.73 9.38 52.27"/><rect class="cls-4" x="11.38" y="52.14" width="8.51" height="156.71" transform="translate(-17.26 3.25) rotate(-7.66)"/><rect class="cls-2" x="20.11" y="-0.1" width="8.51" height="163.69" transform="translate(-10.69 3.98) rotate(-7.67)"/><polygon class="cls-3" points="14.37 7.55 5.94 8.68 8.74 1.26 18.13 0 14.37 7.55"/><rect class="cls-4" x="16.36" y="7.41" width="8.51" height="156.71" transform="translate(-11.26 3.52) rotate(-7.67)"/><rect class="cls-2" x="44.46" y="44.86" width="8.51" height="163.69" transform="translate(-1.17 0.46) rotate(-0.53)"/><polygon class="cls-3" points="48.01 51.84 39.5 51.92 43.2 44.91 52.68 44.82 48.01 51.84"/><rect class="cls-4" x="40.24" y="51.87" width="8.51" height="156.71" transform="translate(-1.25 0.43) rotate(-0.55)"/><rect class="cls-2" x="60.32" y="51.88" width="8.51" height="163.69" transform="translate(-1.23 0.6) rotate(-0.53)"/><polygon class="cls-3" points="63.87 58.86 55.36 58.94 59.07 51.93 68.54 51.84 63.87 58.86"/><rect class="cls-4" x="56.1" y="58.9" width="8.51" height="156.71" transform="translate(-1.3 0.58) rotate(-0.54)"/><rect class="cls-2" x="77.14" y="37.49" width="8.51" height="163.69" transform="translate(-1.1 0.76) rotate(-0.53)"/><polygon class="cls-3" points="80.69 44.47 72.19 44.55 75.89 37.53 85.36 37.45 80.69 44.47"/><rect class="cls-4" x="72.92" y="44.5" width="8.51" height="156.71" transform="translate(-1.15 0.73) rotate(-0.54)"/><rect class="cls-2" x="90.32" y="58.98" width="8.51" height="163.69" transform="translate(-1.3 0.88) rotate(-0.53)"/><polygon class="cls-3" points="93.87 65.96 85.36 66.04 89.07 59.03 98.54 58.94 93.87 65.96"/><rect class="cls-4" x="86.1" y="66" width="8.51" height="156.71" transform="translate(-1.35 0.86) rotate(-0.54)"/><rect class="cls-2" x="103.5" y="57.19" width="8.51" height="163.69" transform="translate(-1.28 1) rotate(-0.53)"/><polygon class="cls-3" points="107.05 64.17 98.54 64.25 102.25 57.24 111.72 57.15 107.05 64.17"/><rect class="cls-4" x="99.28" y="64.21" width="8.51" height="156.71" transform="translate(-1.37 1) rotate(-0.55)"/><rect class="cls-2" x="67.17" y="85.81" width="8.51" height="107.7" transform="translate(-1.29 0.67) rotate(-0.53)"/><polygon class="cls-3" points="70.96 90.41 62.45 90.49 66.18 85.86 75.66 85.77 70.96 90.41"/><rect class="cls-4" x="62.94" y="90.44" width="8.51" height="103.11" transform="translate(-1.33 0.64) rotate(-0.54)"/><rect class="cls-2" x="123.36" y="65.46" width="8.51" height="107.7" transform="translate(-1.1 1.18) rotate(-0.53)"/><polygon class="cls-3" points="127.15 70.06 118.64 70.14 122.37 65.51 131.84 65.42 127.15 70.06"/><rect class="cls-4" x="119.13" y="70.09" width="8.51" height="103.11" transform="translate(-1.14 1.17) rotate(-0.54)"/><rect class="cls-2" x="37.35" y="17.45" width="8.51" height="107.7" transform="translate(-0.65 0.39) rotate(-0.53)"/><polygon class="cls-3" points="41.14 22.04 32.64 22.12 36.36 17.49 45.84 17.4 41.14 22.04"/><rect class="cls-4" x="33.12" y="22.08" width="8.51" height="103.11" transform="translate(-0.69 0.36) rotate(-0.54)"/><rect class="cls-2" x="66.39" y="12.17" width="8.51" height="107.7" transform="translate(-0.61 0.66) rotate(-0.53)"/><polygon class="cls-3" points="70.18 16.77 61.67 16.84 65.4 12.22 74.88 12.13 70.18 16.77"/><rect class="cls-4" x="62.16" y="16.8" width="8.51" height="103.11" transform="translate(-0.64 0.63) rotate(-0.54)"/><rect class="cls-2" x="54.2" y="17.43" width="8.51" height="107.7" transform="translate(-0.65 0.54) rotate(-0.53)"/><polygon class="cls-3" points="57.99 22.02 49.48 22.1 53.21 17.47 62.68 17.38 57.99 22.02"/><rect class="cls-4" x="49.97" y="22.06" width="8.51" height="103.11" transform="translate(-0.69 0.51) rotate(-0.54)"/><rect class="cls-2" x="140.67" y="5.07" width="8.51" height="107.7" transform="translate(-0.54 1.34) rotate(-0.53)"/><polygon class="cls-3" points="144.46 9.67 135.95 9.75 139.68 5.12 149.15 5.03 144.46 9.67"/><rect class="cls-4" x="136.44" y="9.7" width="8.51" height="103.11" transform="translate(-0.58 1.35) rotate(-0.55)"/><path class="cls-5" d="M21.52,83.85s32.74,45.84,59.4,45.84c28.83,0,63.45-45.52,63.45-45.52l3.21,25.22L88.2,171.65S14,124.29,21.52,83.85Z"/><path class="cls-6" d="M81.58,224.78c17.17,0,47.76,3.76,59.57,7,5.37-8,22-155.11,22-155.11L142.22,81S119.68,131.4,81.58,131.4,20.93,81,20.93,81L0,76.65S16.64,223.71,22,231.76c11.81-3.22,42.4-7,59.58-7"/></g></g></g></svg>
