<svg xmlns="http://www.w3.org/2000/svg" xmlns:xlink="http://www.w3.org/1999/xlink" viewBox="0 0 75.54 180.73"><defs><style>.cls-1{fill:none;}.cls-2{fill:#5a2816;}.cls-3{fill:#df9d50;}.cls-4{opacity:0.2;}.cls-5{clip-path:url(#clip-path);}.cls-6{fill:#020202;}.cls-7{fill:#e17ab1;}.cls-8{fill:#dedddd;}.cls-9{fill:#bb548e;}.cls-10{fill:#bababa;}.cls-11{fill:#3c1a11;}</style><clipPath id="clip-path"><path class="cls-1" d="M8.23,111.77s-.45,5.4,2.25,6.3c.45,3.15,3.15,17.54,6.3,19.79,0,4,.9,5.4,2.7,5.85,0,4.95,1.87,32,5.9,34.65,2.57,1.71,6.87,2.73,12.15,2.25,3.06-.29,9.55-.54,12.11-2.25,4-2.69,5.9-29.7,5.9-34.65,1.8-.45,2.7-1.8,2.7-5.85,3.15-2.25,5.85-16.64,6.3-19.79,2.7-.9,2.25-6.3,2.25-6.3Z"/></clipPath></defs><g id="Layer_2" data-name="Layer 2"><g id="Layer_1-2" data-name="Layer 1"><g id="Ice_Cream" data-name="Ice Cream"><path class="cls-2" d="M37.51,67.75A30.38,30.38,0,0,0,8.4,89.46a8.28,8.28,0,0,0,1.93,2.66c1.6,1.4-1,1.87-2.92,2a30.81,30.81,0,0,0-.27,4A30.37,30.37,0,1,0,37.51,67.75Z"/><path class="cls-3" d="M8.23,111.77s-.45,5.4,2.25,6.3c.45,3.15,3.15,17.54,6.3,19.79,0,4,.9,5.4,2.7,5.85,0,4.95,1.87,32,5.9,34.65,2.57,1.71,6.87,2.73,12.15,2.25,3.06-.29,9.55-.54,12.11-2.25,4-2.69,5.9-29.7,5.9-34.65,1.8-.45,2.7-1.8,2.7-5.85,3.15-2.25,5.85-16.64,6.3-19.79,2.7-.9,2.25-6.3,2.25-6.3Z"/><g class="cls-4"><g class="cls-5"><path class="cls-6" d="M7.14,118.07s3.41-.3,8.52-.48c2.55-.11,5.53-.19,8.73-.24,1.59,0,3.24,0,4.92,0h5.08l5.07,0c1.68,0,3.33.06,4.92.09s3.14.09,4.6.14l4.12.1c5.09.13,8.52.4,8.52.4s-3.38.4-8.5.75c-1.27.08-2.67.21-4.13.24s-3,.11-4.6.13-3.25.08-4.93.08l-5.08,0-5.09-.06c-1.67,0-3.32-.09-4.92-.13-3.19-.1-6.17-.23-8.73-.38C10.54,118.44,7.14,118.07,7.14,118.07Z"/><path class="cls-6" d="M13.33,136.51s3.23-.19,8.06-.28c1.2,0,2.51,0,3.89,0l4.35,0,9.44,0,17.65.29c1.21,0,2.32.07,3.29,0l2.54,0,2.22,0-2.18.38-2.53.38c-1,.17-2.08.26-3.29.35-2.41.19-5.24.43-8.26.48-1.51,0-3.07.09-4.66.1s-3.19,0-4.8,0l-4.81-.09c-1.59,0-3.14-.13-4.65-.2-3-.13-5.83-.32-8.24-.53C16.53,137,13.33,136.51,13.33,136.51Z"/></g></g><path class="cls-7" d="M66.05,59.41A30.37,30.37,0,0,0,37,37.64a8.51,8.51,0,0,0-2,2.6c-.89,1.94-2.08-.44-2.76-2.23a31.54,31.54,0,0,0-3.89.87A30.37,30.37,0,0,0,7.8,76.61c4.75,16.09,8.88,6.63,25.65,7.09C63.28,84.54,70.8,75.49,66.05,59.41Z"/><path class="cls-8" d="M67.88,29.5A30.37,30.37,0,0,0,45.34,1a8.47,8.47,0,0,0-2.6,2c-1.36,1.64-1.9-1-2.11-2.87a30.81,30.81,0,0,0-4-.15A30.37,30.37,0,0,0,7.17,31.24C7.65,48,22.85,46.85,39.62,46.37S68.37,46.26,67.88,29.5Z"/><path class="cls-9" d="M13.61,90.36H8.89L1.8,87.13S1.41,80,1.8,80s5.12,2.59,8.66,0,3.15-5.51,9.45-4.21,7.58,4.53,12.45,4.85,3.3,0,5.67-3.23,3.93-7.76,7.48-1.94,4.72,7.55,6.3,6S62,79,62.83,75.8s.39-2.92,2.76-5.51,3.93,2.27,5.51,4.86S76.22,78,75.43,80,68,84.86,64.8,85.51s-3.94,2.91-5.91,3.24S27,83.57,13.61,90.36Z"/><path class="cls-10" d="M63.56,52.21h4.72l7.09-2.41s.39-5.3,0-5.3-5.12,1.93-8.66,0-3.15-4.09-9.45-3.13S49.68,44.74,44.81,45s-3.3,0-5.67-2.4-3.93-5.77-7.48-1.44-4.72,5.61-6.3,4.49-10.23-1.85-11-4.26-.39-2.16-2.76-4.09S7.65,39,6.07,40.89,1,43,1.74,44.47s7.48,3.64,10.63,4.13,3.94,2.16,5.91,2.4S50.17,47.15,63.56,52.21Z"/><path class="cls-11" d="M61.93,115.54h4.72l7.09-2.41s.4-5.29,0-5.29-5.12,1.92-8.66,0-3.15-4.1-9.45-3.13-7.57,3.37-12.45,3.61-3.3,0-5.66-2.41-3.94-5.77-7.48-1.44-4.73,5.61-6.3,4.49-10.24-1.85-11-4.25-.39-2.17-2.75-4.09S6,102.3,4.44,104.23s-5.11,2.1-4.33,3.57,7.48,3.65,10.63,4.13,3.94,2.17,5.91,2.41S48.54,110.48,61.93,115.54Z"/></g></g></g></svg>
