<svg xmlns="http://www.w3.org/2000/svg" xmlns:xlink="http://www.w3.org/1999/xlink" viewBox="0 0 175.93 367.76"><defs><style>.cls-1{fill:none;}.cls-2{fill:#efefef;}.cls-3{opacity:0.5;}.cls-4{fill:#ababab;}.cls-5{fill:#fff;}.cls-6{fill:#dedddd;}.cls-7{opacity:0.05;}.cls-8{clip-path:url(#clip-path);}.cls-9{fill:#444545;}</style><clipPath id="clip-path" transform="translate(16.74)"><path class="cls-1" d="M107.85,93.71A72.63,72.63,0,0,1,83,89.85c-9.84-3.45-17.71-1.26-23.23.71s-18.5,1.57-35,0a169.85,169.85,0,0,0-18-.69C2.8,94,0,98.1,0,102V314a11.81,11.81,0,0,0,11.81,11.81H115.3A11.81,11.81,0,0,0,127.11,314V102c0-3.71-2.49-7.55-6.13-11.45C116.24,92.09,111.17,93.71,107.85,93.71Z"/></clipPath></defs><g id="Layer_2" data-name="Layer 2"><g id="Layer_1-2" data-name="Layer 1"><g id="Milk"><path class="cls-2" d="M107.85,93.71A72.63,72.63,0,0,1,83,89.85c-9.84-3.45-17.71-1.26-23.23.71s-18.5,1.57-35,0a169.85,169.85,0,0,0-18-.69C2.8,94,0,98.1,0,102V314a11.81,11.81,0,0,0,11.81,11.81H115.3A11.81,11.81,0,0,0,127.11,314V102c0-3.71-2.49-7.55-6.13-11.45C116.24,92.09,111.17,93.71,107.85,93.71Z" transform="translate(16.74)"/><g class="cls-3"><path class="cls-4" d="M88.89,11V59c0,8.71,9,16.41,18.51,24.56a137,137,0,0,1,10.66,9.77c3.35,3.59,5,6.53,5,8.72V314a7.82,7.82,0,0,1-7.81,7.81H11.81A7.82,7.82,0,0,1,4,314V102c0-2.32,1.91-5.48,5.68-9.38,2.86-3,6.51-6.09,10-9.11C29.23,75.39,38.22,67.69,38.22,59V11H88.89m4-4H34.22V59c0,9.81-17.44,20.55-27.42,30.89C2.8,94,0,98.1,0,102V314a11.81,11.81,0,0,0,11.81,11.81H115.3A11.81,11.81,0,0,0,127.11,314V102c0-3.71-2.49-7.55-6.13-11.45C111.14,80,92.89,69,92.89,59V7Z" transform="translate(16.74)"/></g><path class="cls-5" d="M28.18,104.34s2.95,4.13,5.11,7.48c-2.36,6.3-7.08,21.06-6.29,23.82a11.7,11.7,0,0,1-6.11-1.77S27.19,105.12,28.18,104.34Z" transform="translate(16.74)"/><rect class="cls-5" x="37.63" y="146.86" width="6.2" height="155.32"/><path class="cls-6" d="M101.6,4.33c0,2.39-3.33,4.33-7.44,4.33H31.88c-4.11,0-7.44-1.94-7.44-4.33h0C24.44,1.94,27.77,0,31.88,0H94.16c4.11,0,7.44,1.94,7.44,4.33Z" transform="translate(16.74)"/><g class="cls-7"><g class="cls-8"><path class="cls-9" d="M127.11,75.84,68,51.77C67.67,79,76.82,84.1,88.65,88c24.81,8.26,17.85,154.89,15.64,209.3-.11,2.66,3,16-15.25,16-20.74,0-83,.75-104.75.75-7,0,24,14.5,24,14.5h97.15c12.87,30.3,36.9,71.74,49.6-2.74C172.94,221,127.11,75.84,127.11,75.84Z" transform="translate(16.74)"/></g></g></g></g></g></svg>
