<svg xmlns="http://www.w3.org/2000/svg" viewBox="0 0 173.93 213.87"><defs><style>.cls-1{fill:#df5c26;}.cls-2{fill:#77422b;}.cls-3{fill:#447838;}.cls-4{fill:#e8e3e2;opacity:0.2;}.cls-5{fill:#fff;opacity:0.5;}</style></defs><g id="Layer_2" data-name="Layer 2"><g id="Layer_1-2" data-name="Layer 1"><g id="Orange"><circle class="cls-1" cx="86.97" cy="126.91" r="86.97"/><path class="cls-2" d="M91,16.76c-.48,1.91-1,3.86-1.34,5.84-.19,1-.4,2-.55,3s-.35,2-.49,3c-.3,2-.56,4-.81,5.86s-.44,3.78-.65,5.53-.36,3.45-.53,5c-.33,3.12-.61,5.72-.81,7.54s-.33,2.88-.33,2.88-.3-1-.65-2.84a74.25,74.25,0,0,1-1.09-7.59,87.68,87.68,0,0,1-.35-10.84c.07-2,.18-4.05.42-6.14s.54-4.21.94-6.33a60.2,60.2,0,0,1,1.59-6.25Z"/><path class="cls-3" d="M84.52,25.11s-19-36-45.75-21.77C40.52,22.84,51.77,35.88,84.52,25.11Z"/><path class="cls-4" d="M49.73,6.37s1.77,1,4.38,2.56l9.54,5.73c.87.53,1.72,1.08,2.59,1.56l2.51,1.49c.81.49,1.59,1,2.36,1.39l2.13,1.2c.65.38,1.26.72,1.82,1l1.43.7,1.24.64-1.32-.46-1.51-.54L74,21.27l-1-.47-2.22-1.06c-.79-.37-1.61-.79-2.44-1.26l-2.57-1.42c-.88-.48-1.74-1-2.61-1.54-1.74-1.06-3.46-2.13-5-3.19s-3-2.07-4.29-2.93-2.26-1.65-3-2.17S49.73,6.37,49.73,6.37Z"/><path class="cls-5" d="M66.48,47.12A30.69,30.69,0,0,1,72.07,47a23.22,23.22,0,0,1,5.52,1,14.2,14.2,0,0,1,5,2.66,13.75,13.75,0,0,1,1,1,10.57,10.57,0,0,1,.88,1.12A10.77,10.77,0,0,1,85.15,54a13.94,13.94,0,0,1,.56,1.31l-.33-.14A60.76,60.76,0,0,1,92,52.48a54.73,54.73,0,0,1,6.91-1.9,24.89,24.89,0,0,1,7.15-.47,13.12,13.12,0,0,1,1.77.32l.87.26.83.35.78.45.72.53.63.64.54.71-.56-.69-.65-.6-.73-.51-.79-.4-.83-.31c-.28-.09-.57-.15-.85-.23a15.08,15.08,0,0,0-1.75-.26A24.62,24.62,0,0,0,99,51a52.7,52.7,0,0,0-6.84,1.94c-2.24.78-4.45,1.67-6.6,2.66l-.22.1-.11-.24a11.51,11.51,0,0,0-.52-1.26A10.68,10.68,0,0,0,84.06,53a10.79,10.79,0,0,0-.84-1.08,12.54,12.54,0,0,0-1-1,14.49,14.49,0,0,0-4.78-2.66,24.47,24.47,0,0,0-5.43-1.11A30.48,30.48,0,0,0,66.48,47.12Z"/><path class="cls-5" d="M40.9,85c3-3.53,6.2-6.93,9.47-10.24s6.7-6.45,10.29-9.42c.89-.75,1.81-1.46,2.72-2.18S65.23,61.7,66.19,61s1.92-1.32,2.89-2,2-1.22,3-1.76c.5-.3,1-.55,1.56-.8a15.25,15.25,0,0,1,1.6-.71,15.53,15.53,0,0,1,1.65-.62,14.15,14.15,0,0,1,1.69-.48,11.54,11.54,0,0,1,1.74-.31l.89-.09.89,0a8.73,8.73,0,0,1,3.46.82l-.13,0c2.23-.18,4.46-.23,6.69-.2s4.45.14,6.67.35A57.91,57.91,0,0,1,111.9,58c1,.39,2.1.77,3.11,1.25a15.91,15.91,0,0,1,1.5.72c.49.27,1,.5,1.47.81s1,.58,1.42.89l1.35,1a22.14,22.14,0,0,1,2.46,2.28,20.62,20.62,0,0,1,2,2.66c.27.49.61.94.83,1.45l.7,1.52a21.38,21.38,0,0,1,.93,3.21,26.17,26.17,0,0,1,.45,3.3,25.87,25.87,0,0,0-.51-3.29,20.74,20.74,0,0,0-1-3.17l-.72-1.5a15.67,15.67,0,0,0-.85-1.42,11.72,11.72,0,0,0-1-1.34A10.85,10.85,0,0,0,123,65.07a22.5,22.5,0,0,0-2.44-2.24l-1.34-1c-.46-.3-.94-.58-1.41-.87s-1-.53-1.46-.79a14.63,14.63,0,0,0-1.5-.71c-1-.47-2-.84-3.09-1.21a57,57,0,0,0-13-2.59q-3.32-.28-6.64-.31c-2.21,0-4.44,0-6.64.24h-.06l-.07,0a8.51,8.51,0,0,0-3.26-.77l-.85,0-.86.08a10.74,10.74,0,0,0-1.68.29,15.67,15.67,0,0,0-1.66.46,14.93,14.93,0,0,0-1.62.6c-.54.2-1.07.44-1.59.69s-1,.49-1.55.78c-1,.53-2,1.13-3,1.73s-2,1.25-2.89,1.93-1.88,1.36-2.81,2-1.83,1.42-2.73,2.16c-3.59,2.94-7,6.09-10.33,9.34S44,81.48,40.9,85Z"/></g></g></g></svg>
