<svg xmlns="http://www.w3.org/2000/svg" xmlns:xlink="http://www.w3.org/1999/xlink" viewBox="0 0 284.72 274.69"><defs><style>.cls-1{fill:none;}.cls-2{fill:#e5be5c;}.cls-3{opacity:0.3;}.cls-4,.cls-7{fill:#fff;}.cls-5{opacity:0.05;}.cls-6,.cls-8{opacity:0.2;}.cls-7{opacity:0.5;}.cls-9{clip-path:url(#clip-path);}.cls-10{clip-path:url(#clip-path-2);}.cls-11{fill:#e5bd5b;}.cls-12{fill:#b7964d;}</style><clipPath id="clip-path"><rect class="cls-1" x="123.56" y="81.43" width="52.94" height="52.94"/></clipPath><clipPath id="clip-path-2"><rect class="cls-1" x="122.47" y="148.04" width="52.94" height="52.94" transform="translate(-62.71 85.96) rotate(-26.82)"/></clipPath></defs><g id="Layer_2" data-name="Layer 2"><g id="Layer_1-2" data-name="Layer 1"><g id="Pasta"><path class="cls-2" d="M42.75,119.12c-2.46-1.12,3.14-23.27-4-27.45-6.55-3.82-2.73,4.54-4.37,4.54s-4.18-4.36-5.27-3.45-.18,4.36-1.09,5.45S24.43,96,23,96.76s1.27,5.27,0,5.82-5.27-3.09-6.18-1.46,1.81,4.36.91,5.64-4.37-.73-5.28,0,2.37,3.63,1.82,4.91S9.89,110.94,9,112s3.63,3.64,2.91,5.09-4.21.31-5.46,1.64c-6,6.36,20.85,6.22,27.41,9.27,2.45,1.14-3.28,22.91,3.82,27.09,6.54,3.82,2.72-4.54,4.36-4.54s4.18,4.36,5.27,3.45.18-4.36,1.09-5.45S52,150.76,53.47,150s-1.27-5.27,0-5.82,5.28,3.09,6.18,1.46-1.81-4.36-.9-5.64,4.36.73,5.27,0-2.37-3.63-1.82-4.91,4.36.73,5.27-.36-3.63-3.64-2.91-5.09,4.21-.31,5.46-1.64C76,121.67,49.26,122.12,42.75,119.12Z"/><g class="cls-3"><path class="cls-4" d="M31.11,114.94a7.44,7.44,0,0,1,.94.35,15,15,0,0,1,2.21,1.13,22.36,22.36,0,0,1,2.68,2c.45.4.91.81,1.34,1.26s.86.92,1.28,1.39.81,1,1.17,1.49.71,1,1,1.53a20.33,20.33,0,0,1,1.51,3,15.6,15.6,0,0,1,.76,2.37,8.77,8.77,0,0,1,.18,1,7.44,7.44,0,0,1-.94-.35,15,15,0,0,1-2.21-1.13,19.74,19.74,0,0,1-2.68-2c-.45-.4-.91-.81-1.34-1.26s-.86-.92-1.28-1.4-.8-1-1.16-1.49-.71-1-1-1.53a19.84,19.84,0,0,1-1.51-3,14.79,14.79,0,0,1-.76-2.36A8.2,8.2,0,0,1,31.11,114.94Z"/></g><g class="cls-5"><path d="M26.93,123.4a4.48,4.48,0,0,1,.81-.35,10.41,10.41,0,0,1,2.27-.5,11.41,11.41,0,0,1,1.57,0,9.39,9.39,0,0,1,1.76.24,10.52,10.52,0,0,1,1.86.59,8.92,8.92,0,0,1,.91.49,4.62,4.62,0,0,1,.88.58l.8.69a8.69,8.69,0,0,1,.68.82,6.72,6.72,0,0,1,1,1.77,3.35,3.35,0,0,1,.3.91l.18.88a6.36,6.36,0,0,1,.07,1.61,5.16,5.16,0,0,1-.17,1.32,9.9,9.9,0,0,1-.27,1,8.66,8.66,0,0,1-.31.82s-.13-.31-.29-.83c-.08-.26-.19-.57-.27-.91a8.56,8.56,0,0,0-.41-1.12,8.63,8.63,0,0,0-.52-1.24l-.32-.61-.16-.32c-.06-.1-.14-.19-.21-.29a7.23,7.23,0,0,0-.88-1.12c-.17-.17-.32-.36-.5-.53l-.58-.45a2.65,2.65,0,0,0-.6-.44c-.22-.12-.41-.28-.64-.4a14.45,14.45,0,0,0-1.37-.67,14.77,14.77,0,0,0-1.38-.56c-.45-.17-.9-.3-1.31-.45s-.81-.27-1.16-.36l-.93-.27Z"/></g><g class="cls-5"><path d="M51.11,124.05a4.69,4.69,0,0,1-.8.39,10.8,10.8,0,0,1-2.24.61,12.31,12.31,0,0,1-1.56.11,9.13,9.13,0,0,1-1.77-.15,10.59,10.59,0,0,1-1.89-.5c-.31-.13-.63-.28-.93-.44a5.59,5.59,0,0,1-.91-.54l-.84-.65a10.55,10.55,0,0,1-.71-.79,6.6,6.6,0,0,1-1.1-1.72,3,3,0,0,1-.35-.89c-.07-.3-.15-.59-.22-.87a6.12,6.12,0,0,1-.15-1.61,5.07,5.07,0,0,1,.1-1.33c.07-.38.16-.72.23-1a7,7,0,0,1,.26-.83s.15.3.34.81c.09.26.21.56.31.91a8.74,8.74,0,0,0,.47,1.09,7.34,7.34,0,0,0,.57,1.21c.12.19.23.4.35.6l.17.31c.07.1.16.18.23.28a6.8,6.8,0,0,0,.94,1.07c.18.17.34.35.52.51l.6.42a2.9,2.9,0,0,0,.62.41c.23.11.43.26.66.37.47.19.91.45,1.4.6a13.11,13.11,0,0,0,1.41.49c.46.16.91.26,1.33.39s.82.23,1.18.3l.93.22Z"/></g><path class="cls-2" d="M87.49,110.32c2.49-1.06,15.11,18,23,15.55,7.22-2.28-1.53-5.08-.43-6.29s6-.16,6.1-1.58-3.11-3.07-3.3-4.47,4.06-1.23,4.5-2.79-4.76-2.61-4.31-3.92,5.84-1.82,5.24-3.59-4.45-1.59-4.78-3.12,3.47-2.74,3.54-3.9-4.28-.7-4.85-2,3.47-2.74,3.28-4.14-5.14.24-5.73-1.28,2.6-3.32,2.46-5.13c-.67-8.72-18.63,11.24-25.3,14-2.49,1-14.75-17.83-22.61-15.4-7.23,2.27,1.53,5.08.43,6.29s-6,.15-6.11,1.57,3.11,3.07,3.31,4.48-4.06,1.22-4.5,2.79,4.75,2.6,4.3,3.91-5.83,1.82-5.23,3.6,4.45,1.59,4.78,3.12-3.48,2.74-3.55,3.9,4.28.69,4.86,2-3.48,2.74-3.28,4.15,5.14-.24,5.72,1.27-2.6,3.32-2.46,5.14C63.23,133.23,80.89,113.13,87.49,110.32Z"/><g class="cls-3"><path class="cls-4" d="M98.41,104.52a7.57,7.57,0,0,1-.88.47,16.05,16.05,0,0,1-2.33.87,21.49,21.49,0,0,1-3.27.65c-.6.07-1.21.13-1.83.15s-1.26,0-1.9,0-1.26-.06-1.88-.14-1.23-.16-1.82-.27a20.71,20.71,0,0,1-3.22-.89,15.62,15.62,0,0,1-2.26-1,7.58,7.58,0,0,1-.85-.52,8.44,8.44,0,0,1,.89-.47,15.61,15.61,0,0,1,2.33-.87,20.16,20.16,0,0,1,3.26-.66c.6-.06,1.22-.12,1.84-.14s1.26,0,1.89,0,1.26.07,1.88.15,1.24.16,1.83.27a22.12,22.12,0,0,1,3.21.88,15.69,15.69,0,0,1,2.26,1C98.1,104.3,98.41,104.52,98.41,104.52Z"/></g><g class="cls-5"><path d="M95,95.74a5.34,5.34,0,0,1-.29.84,10.52,10.52,0,0,1-1.16,2,11.79,11.79,0,0,1-1,1.19,9.76,9.76,0,0,1-1.36,1.14,10,10,0,0,1-1.69,1,10.33,10.33,0,0,1-1,.35,5,5,0,0,1-1,.25l-1.06.14a9.4,9.4,0,0,1-1.06,0,6.79,6.79,0,0,1-2-.44,3.32,3.32,0,0,1-.88-.39l-.78-.46a6.1,6.1,0,0,1-1.23-1,5.22,5.22,0,0,1-.87-1c-.23-.33-.4-.63-.54-.87a6.6,6.6,0,0,1-.4-.78s.32.12.81.35c.25.11.55.24.86.41a7.76,7.76,0,0,0,1.11.45,7.67,7.67,0,0,0,1.25.45l.68.18.34.1c.11,0,.24,0,.35,0a6.84,6.84,0,0,0,1.43.1h.72l.73-.12a2.73,2.73,0,0,0,.73-.16c.23-.08.48-.11.72-.19.47-.21,1-.33,1.42-.57A13.84,13.84,0,0,0,91.14,98c.44-.21.83-.46,1.22-.67s.74-.41,1-.61l.83-.5Z"/></g><g class="cls-5"><path d="M78.22,113.19a4.58,4.58,0,0,1,.25-.84,10.71,10.71,0,0,1,1.06-2.07,11.17,11.17,0,0,1,1-1.23,9.08,9.08,0,0,1,1.31-1.22,10.74,10.74,0,0,1,1.64-1.06c.3-.14.63-.27,1-.39a5.61,5.61,0,0,1,1-.3l1-.19a9.37,9.37,0,0,1,1.06,0,6.67,6.67,0,0,1,2,.34,3,3,0,0,1,.89.35l.8.42a5.73,5.73,0,0,1,1.29,1,5.08,5.08,0,0,1,.91,1,10.07,10.07,0,0,1,.58.84,6.53,6.53,0,0,1,.44.75s-.32-.1-.83-.3c-.25-.1-.55-.22-.88-.37a6.94,6.94,0,0,0-1.12-.4,8,8,0,0,0-1.28-.39l-.68-.14-.35-.08c-.11,0-.23,0-.35,0a6.84,6.84,0,0,0-1.43,0c-.24,0-.48,0-.72,0l-.72.15a3.06,3.06,0,0,0-.72.19c-.24.09-.48.14-.72.24-.46.22-.95.37-1.39.63s-.89.47-1.3.71-.81.51-1.19.73-.72.45-1,.67l-.8.54Z"/></g><path class="cls-2" d="M82.2,172.28c1.48-2.26,22.55,6.57,27.74.18,4.75-5.9-4.09-3.37-3.85-5s4.94-3.49,4.2-4.7-4.28-.83-5.23-1.89,2.7-3.27,2.2-4.82-5.41.47-5.76-.87,3.85-4.75,2.36-5.89-4.58,1.15-5.71.06,1.37-4.21.79-5.21-4,1.79-5.13,1.06,1.37-4.2.43-5.27-4.14,3.06-5.47,2.13.32-4.21-.81-5.64c-5.4-6.88-9.25,19.69-13.25,25.72-1.49,2.25-22.16-6.65-27.35-.26-4.75,5.91,4.09,3.38,3.84,5s-4.93,3.48-4.2,4.69,4.29.83,5.23,1.89-2.69,3.27-2.19,4.82,5.4-.47,5.75.87-3.84,4.75-2.36,5.89S58,183.9,59.14,185s-1.36,4.21-.78,5.22,4-1.8,5.12-1.07-1.36,4.21-.42,5.27,4.14-3.06,5.47-2.12-.32,4.2.8,5.64C74.73,204.81,78.27,178.28,82.2,172.28Z"/><g class="cls-3"><path class="cls-4" d="M88.07,161.4a9.71,9.71,0,0,1-.48.88,16.44,16.44,0,0,1-1.46,2,20.85,20.85,0,0,1-2.35,2.36c-.46.39-.94.78-1.45,1.14s-1,.71-1.57,1.06-1.08.65-1.64.93-1.11.55-1.67.78a19.79,19.79,0,0,1-3.16,1.05,14.41,14.41,0,0,1-2.45.4,8.33,8.33,0,0,1-1,0,7.31,7.31,0,0,1,.48-.88,15.21,15.21,0,0,1,1.45-2,20.06,20.06,0,0,1,2.35-2.36c.46-.39.94-.78,1.45-1.14s1-.71,1.57-1.05,1.09-.65,1.65-.93,1.11-.55,1.66-.78a19.88,19.88,0,0,1,3.17-1,14.25,14.25,0,0,1,2.45-.4A7.42,7.42,0,0,1,88.07,161.4Z"/></g><g class="cls-5"><path d="M80.33,156a4.86,4.86,0,0,1,.22.85,10.59,10.59,0,0,1,.16,2.32,13.46,13.46,0,0,1-.2,1.55,8.42,8.42,0,0,1-.5,1.71,8.86,8.86,0,0,1-.86,1.75,9.83,9.83,0,0,1-.61.83,5.26,5.26,0,0,1-.71.78l-.8.7c-.29.21-.61.37-.91.55a6.71,6.71,0,0,1-1.9.73,2.87,2.87,0,0,1-1,.16l-.9.06a6.17,6.17,0,0,1-1.6-.18,5,5,0,0,1-1.29-.35c-.36-.15-.67-.31-.92-.43a6.93,6.93,0,0,1-.77-.42s.33-.08.87-.17l.94-.13a7,7,0,0,0,1.17-.24,7.24,7.24,0,0,0,1.3-.32l.66-.23.33-.11c.11,0,.21-.11.32-.16a7.64,7.64,0,0,0,1.24-.71l.59-.41.54-.5a3,3,0,0,0,.52-.54c.16-.2.34-.37.5-.57.28-.43.62-.8.86-1.25s.52-.86.76-1.29.43-.84.64-1.23.38-.76.52-1.09.3-.63.41-.88Z"/></g><g class="cls-5"><path d="M76.08,179.82a5.58,5.58,0,0,1-.26-.85,10.4,10.4,0,0,1-.27-2.3,12.66,12.66,0,0,1,.12-1.56,10.43,10.43,0,0,1,1.19-3.53c.17-.29.37-.57.57-.86a6.4,6.4,0,0,1,.67-.81l.77-.73a8.44,8.44,0,0,1,.88-.59,6.34,6.34,0,0,1,1.87-.83,3.12,3.12,0,0,1,.93-.21l.9-.1a6,6,0,0,1,1.61.1,5.19,5.19,0,0,1,1.3.29c.37.13.69.27.94.38a7.25,7.25,0,0,1,.79.38s-.32.1-.86.21c-.26.06-.58.13-.94.18a7.56,7.56,0,0,0-1.15.3,7.14,7.14,0,0,0-1.28.38l-.65.27-.33.12-.3.18a6.69,6.69,0,0,0-1.21.77c-.19.15-.39.28-.57.44l-.52.52a3.28,3.28,0,0,0-.49.56c-.14.21-.32.38-.47.59-.25.45-.58.84-.8,1.3s-.48.88-.69,1.32-.39.87-.58,1.26-.35.78-.47,1.12l-.37.89Z"/></g><rect class="cls-6" x="124.5" y="82.07" width="52.94" height="52.94"/><rect class="cls-2" x="123.56" y="81.43" width="52.94" height="52.94"/><path class="cls-6" d="M153.9,123.66h-7.74a11.89,11.89,0,0,1-11.89-11.89v2.06c0,7.25,5.33,13.14,11.89,13.14h7.74c6.56,0,11.89-5.89,11.89-13.14v-2.06A11.89,11.89,0,0,1,153.9,123.66Z"/><path class="cls-7" d="M146.16,92.14A11.9,11.9,0,0,0,134.27,104v1.24C134.27,98,139.6,92.14,146.16,92.14Z"/><path class="cls-7" d="M153.9,92.14c6.56,0,11.89,5.89,11.89,13.14V104A11.9,11.9,0,0,0,153.9,92.14Z"/><path class="cls-7" d="M153.9,92.14h-7.74c-6.56,0-11.89,5.89-11.89,13.14v6.49a11.89,11.89,0,0,0,11.89,11.89h7.74a11.89,11.89,0,0,0,11.89-11.89v-6.49C165.79,98,160.46,92.14,153.9,92.14Z"/><g class="cls-8"><g class="cls-9"><path d="M118.42,86.27s.72-.08,1.8-.14,2.52-.12,4-.11,2.87,0,3.95.11,1.8.14,1.8.14-.72.08-1.8.14-2.51.11-3.95.11-2.88,0-4-.11S118.42,86.27,118.42,86.27Z"/><path d="M118.42,93.35s.72-.08,1.8-.14,2.52-.11,4-.11,2.87.05,3.95.11,1.8.14,1.8.14-.72.08-1.8.14-2.51.11-3.95.11-2.88,0-4-.11S118.42,93.35,118.42,93.35Z"/><path d="M118.42,100.43s.72-.08,1.8-.14,2.52-.11,4-.11,2.87,0,3.95.11,1.8.14,1.8.14-.72.08-1.8.14-2.51.12-3.95.11-2.88-.05-4-.11S118.42,100.43,118.42,100.43Z"/><path d="M118.42,107.51s.72-.08,1.8-.14,2.52-.11,4-.11,2.87,0,3.95.11,1.8.14,1.8.14-.72.08-1.8.14-2.51.12-3.95.11-2.88-.05-4-.11S118.42,107.51,118.42,107.51Z"/><path d="M118.42,114.6s.72-.08,1.8-.14,2.52-.12,4-.11,2.87.05,3.95.11,1.8.14,1.8.14-.72.08-1.8.14-2.51.11-3.95.11-2.88,0-4-.11S118.42,114.6,118.42,114.6Z"/><path d="M118.42,121.68s.72-.08,1.8-.14,2.52-.11,4-.11,2.87,0,3.95.11,1.8.14,1.8.14-.72.08-1.8.14-2.51.11-3.95.11-2.88-.05-4-.11S118.42,121.68,118.42,121.68Z"/><path d="M118.42,128.76s.72-.08,1.8-.14,2.52-.11,4-.11,2.87.05,3.95.11,1.8.14,1.8.14-.72.08-1.8.14-2.51.11-3.95.11-2.88,0-4-.11S118.42,128.76,118.42,128.76Z"/><path d="M170.3,75.68s.08.72.14,1.8.12,2.51.11,4-.05,2.88-.11,4-.14,1.8-.14,1.8-.08-.72-.14-1.8-.11-2.52-.11-4,0-2.88.11-4S170.3,75.68,170.3,75.68Z"/><path d="M163.22,75.68s.08.72.14,1.8.11,2.51.11,4-.05,2.88-.11,4-.14,1.8-.14,1.8-.08-.72-.14-1.8-.11-2.52-.11-4,.05-2.88.11-4S163.22,75.68,163.22,75.68Z"/><path d="M156.14,75.68s.08.72.14,1.8.11,2.51.11,4,0,2.88-.11,4-.14,1.8-.14,1.8-.08-.72-.14-1.8-.11-2.52-.11-4,.05-2.88.11-4S156.14,75.68,156.14,75.68Z"/><path d="M149.06,75.68s.08.72.14,1.8.11,2.51.11,4-.05,2.88-.11,4-.14,1.8-.14,1.8-.08-.72-.14-1.8-.12-2.52-.11-4,.05-2.88.11-4S149.06,75.68,149.06,75.68Z"/><path d="M142,75.68s.08.72.14,1.8.12,2.51.11,4-.05,2.88-.11,4-.14,1.8-.14,1.8-.08-.72-.14-1.8-.11-2.52-.11-4,.05-2.88.11-4S142,75.68,142,75.68Z"/><path d="M134.89,75.68s.08.72.14,1.8.11,2.51.11,4,0,2.88-.11,4-.14,1.8-.14,1.8-.08-.72-.14-1.8-.11-2.52-.11-4,.05-2.88.11-4S134.89,75.68,134.89,75.68Z"/><path d="M127.81,75.68s.08.72.14,1.8.11,2.51.11,4-.05,2.88-.11,4-.14,1.8-.14,1.8-.08-.72-.14-1.8-.12-2.52-.11-4,0-2.88.11-4S127.81,75.68,127.81,75.68Z"/><path d="M179.69,127.57s-.72.08-1.8.14-2.52.12-4,.11-2.87,0-4-.11-1.8-.14-1.8-.14.72-.08,1.8-.14,2.51-.11,4-.11,2.88.05,4,.11S179.69,127.57,179.69,127.57Z"/><path d="M179.69,120.49s-.72.08-1.8.14-2.52.11-4,.11-2.87,0-4-.11-1.8-.14-1.8-.14.72-.08,1.8-.14,2.51-.11,4-.11,2.88.05,4,.11S179.69,120.49,179.69,120.49Z"/><path d="M179.69,113.41s-.72.08-1.8.14-2.52.11-4,.11-2.87,0-4-.11-1.8-.14-1.8-.14.72-.08,1.8-.14,2.51-.12,4-.11,2.88,0,4,.11S179.69,113.41,179.69,113.41Z"/><path d="M179.69,106.33s-.72.08-1.8.14-2.52.11-4,.11-2.87,0-4-.11-1.8-.14-1.8-.14.72-.08,1.8-.14,2.51-.12,4-.11,2.88,0,4,.11S179.69,106.33,179.69,106.33Z"/><path d="M179.69,99.24s-.72.08-1.8.14-2.52.12-4,.11-2.87,0-4-.11-1.8-.14-1.8-.14.72-.08,1.8-.14,2.51-.11,4-.11,2.88.05,4,.11S179.69,99.24,179.69,99.24Z"/><path d="M179.69,92.16s-.72.08-1.8.14-2.52.11-4,.11-2.87,0-4-.11-1.8-.14-1.8-.14.72-.08,1.8-.14,2.51-.11,4-.11,2.88,0,4,.11S179.69,92.16,179.69,92.16Z"/><path d="M179.69,85.08s-.72.08-1.8.14-2.52.11-4,.11-2.87,0-4-.11-1.8-.14-1.8-.14.72-.08,1.8-.14,2.51-.12,4-.11,2.88,0,4,.11S179.69,85.08,179.69,85.08Z"/><path d="M127.81,140.29s-.08-.72-.14-1.8-.12-2.52-.11-4,0-2.88.11-4,.14-1.79.14-1.79.08.72.14,1.79.11,2.52.11,4-.05,2.88-.11,4S127.81,140.29,127.81,140.29Z"/><path d="M134.89,140.29s-.08-.72-.14-1.8-.11-2.52-.11-4,.05-2.88.11-4,.14-1.79.14-1.79.08.72.14,1.79.11,2.52.11,4,0,2.88-.11,4S134.89,140.29,134.89,140.29Z"/><path d="M142,140.29s-.08-.72-.14-1.8-.11-2.52-.11-4,.05-2.88.11-4,.14-1.79.14-1.79.08.72.14,1.79.12,2.52.11,4-.05,2.88-.11,4S142,140.29,142,140.29Z"/><path d="M149.06,140.29s-.08-.72-.14-1.8-.12-2.52-.11-4,.05-2.88.11-4,.14-1.79.14-1.79.08.72.14,1.79.11,2.52.11,4-.05,2.88-.11,4S149.06,140.29,149.06,140.29Z"/><path d="M156.14,140.29s-.08-.72-.14-1.8-.11-2.52-.11-4,.05-2.88.11-4,.14-1.79.14-1.79.08.72.14,1.79.11,2.52.11,4,0,2.88-.11,4S156.14,140.29,156.14,140.29Z"/><path d="M163.22,140.29s-.08-.72-.14-1.8-.11-2.52-.11-4,.05-2.88.11-4,.14-1.79.14-1.79.08.72.14,1.79.11,2.52.11,4-.05,2.88-.11,4S163.22,140.29,163.22,140.29Z"/><path d="M170.3,140.29s-.08-.72-.14-1.8-.11-2.52-.11-4,0-2.88.11-4,.14-1.79.14-1.79.08.72.14,1.79.12,2.52.11,4-.05,2.88-.11,4S170.3,140.29,170.3,140.29Z"/></g></g><rect class="cls-6" x="123.6" y="148.19" width="52.94" height="52.94" transform="translate(-62.66 86.48) rotate(-26.82)"/><rect class="cls-2" x="122.47" y="148.04" width="52.94" height="52.94" transform="translate(-62.71 85.96) rotate(-26.82)"/><path class="cls-6" d="M159.5,186.84l-6.9,3.48a11.88,11.88,0,0,1-16-5.25l.93,1.84c3.27,6.48,10.68,9.33,16.54,6.36l6.9-3.48c5.86-3,8-10.62,4.68-17.1l-.92-1.83A11.9,11.9,0,0,1,159.5,186.84Z"/><path class="cls-7" d="M138.38,162.19a11.91,11.91,0,0,0-5.25,16l.56,1.11C130.42,172.81,132.52,165.16,138.38,162.19Z"/><path class="cls-7" d="M145.28,158.71c5.86-3,13.27-.12,16.54,6.36l-.56-1.11A11.88,11.88,0,0,0,145.28,158.71Z"/><path class="cls-7" d="M145.28,158.71l-6.9,3.48c-5.86,3-8,10.62-4.69,17.1l2.93,5.78a11.88,11.88,0,0,0,16,5.25l6.9-3.48a11.9,11.9,0,0,0,5.25-16l-2.93-5.79C158.55,158.59,151.14,155.74,145.28,158.71Z"/><g class="cls-8"><g class="cls-10"><path d="M111,169.46s.61-.39,1.54-.93,2.2-1.24,3.48-1.88,2.59-1.26,3.58-1.69,1.67-.69,1.67-.69-.6.4-1.54.94-2.2,1.23-3.48,1.88-2.59,1.25-3.58,1.69S111,169.46,111,169.46Z"/><path d="M114.17,175.79s.6-.4,1.54-.94,2.19-1.24,3.48-1.88,2.59-1.26,3.58-1.69,1.67-.69,1.67-.69-.61.4-1.54.94-2.2,1.24-3.49,1.88-2.59,1.26-3.58,1.69S114.17,175.79,114.17,175.79Z"/><path d="M117.36,182.11s.61-.4,1.54-.94,2.2-1.24,3.48-1.88S125,178,126,177.6s1.67-.69,1.67-.69-.6.4-1.54.94-2.2,1.24-3.48,1.88S120,181,119,181.42,117.36,182.11,117.36,182.11Z"/><path d="M120.55,188.43s.61-.4,1.55-.94,2.19-1.24,3.48-1.88,2.59-1.26,3.58-1.69,1.67-.69,1.67-.69-.61.4-1.54.94-2.2,1.24-3.49,1.88-2.59,1.26-3.58,1.69S120.55,188.43,120.55,188.43Z"/><path d="M123.75,194.75s.61-.4,1.54-.94,2.2-1.23,3.48-1.88,2.59-1.25,3.58-1.69,1.67-.68,1.67-.68-.6.39-1.54.93-2.2,1.24-3.48,1.88-2.59,1.26-3.58,1.69S123.75,194.75,123.75,194.75Z"/><path d="M127,201.07s.6-.4,1.54-.94,2.19-1.23,3.48-1.88,2.59-1.25,3.58-1.69,1.67-.68,1.67-.68-.61.39-1.54.93-2.2,1.24-3.49,1.88-2.59,1.26-3.58,1.69S127,201.07,127,201.07Z"/><path d="M130.14,207.39s.61-.4,1.54-.94,2.2-1.23,3.48-1.88,2.59-1.25,3.58-1.69,1.67-.68,1.67-.68-.6.39-1.54.93-2.2,1.24-3.48,1.89-2.59,1.25-3.58,1.68S130.14,207.39,130.14,207.39Z"/><path d="M152.49,136.61s.4.61.94,1.54,1.24,2.2,1.88,3.48,1.26,2.59,1.69,3.58.69,1.67.69,1.67-.4-.61-.94-1.54-1.24-2.2-1.88-3.48-1.26-2.59-1.69-3.58S152.49,136.61,152.49,136.61Z"/><path d="M146.17,139.8s.4.61.94,1.55,1.24,2.19,1.88,3.48,1.26,2.59,1.69,3.58.69,1.67.69,1.67-.4-.61-.94-1.55-1.24-2.19-1.88-3.48-1.26-2.59-1.69-3.58S146.17,139.8,146.17,139.8Z"/><path d="M139.85,143s.4.61.94,1.54,1.24,2.2,1.88,3.48,1.26,2.59,1.69,3.58.69,1.67.69,1.67-.4-.6-.94-1.54-1.24-2.2-1.88-3.48-1.26-2.59-1.69-3.58S139.85,143,139.85,143Z"/><path d="M133.53,146.19s.4.61.94,1.55,1.23,2.19,1.88,3.48,1.25,2.59,1.69,3.58.68,1.67.68,1.67-.39-.61-.93-1.54-1.24-2.2-1.89-3.49-1.25-2.59-1.68-3.58S133.53,146.19,133.53,146.19Z"/><path d="M127.21,149.39s.4.61.94,1.54,1.23,2.2,1.88,3.48,1.25,2.59,1.69,3.58.68,1.67.68,1.67-.39-.6-.93-1.54-1.24-2.2-1.89-3.48-1.25-2.59-1.68-3.58S127.21,149.39,127.21,149.39Z"/><path d="M120.89,152.58s.4.61.94,1.55,1.23,2.19,1.88,3.48,1.25,2.59,1.69,3.58.68,1.67.68,1.67-.39-.61-.93-1.54-1.24-2.2-1.89-3.49-1.25-2.59-1.68-3.58S120.89,152.58,120.89,152.58Z"/><path d="M114.57,155.78s.39.61.94,1.54,1.23,2.2,1.88,3.48,1.25,2.59,1.69,3.58.68,1.67.68,1.67-.4-.6-.94-1.54-1.23-2.2-1.88-3.48-1.25-2.59-1.68-3.58S114.57,155.78,114.57,155.78Z"/><path d="M184.28,178.69s-.6.4-1.54.94-2.2,1.23-3.48,1.88-2.59,1.25-3.58,1.69-1.67.68-1.67.68.6-.39,1.54-.93,2.2-1.24,3.48-1.89,2.59-1.25,3.58-1.68S184.28,178.69,184.28,178.69Z"/><path d="M181.09,172.37s-.61.39-1.55.94-2.19,1.23-3.48,1.88-2.59,1.25-3.58,1.69-1.67.68-1.67.68.61-.39,1.55-.94,2.19-1.23,3.48-1.88,2.59-1.25,3.58-1.68S181.09,172.37,181.09,172.37Z"/><path d="M177.89,166.05s-.6.39-1.54.93-2.2,1.24-3.48,1.89-2.59,1.25-3.58,1.69-1.67.68-1.67.68.6-.4,1.54-.94,2.2-1.23,3.48-1.88,2.59-1.25,3.58-1.69S177.89,166.05,177.89,166.05Z"/><path d="M174.7,159.73s-.61.39-1.55.93-2.19,1.24-3.48,1.89-2.59,1.25-3.58,1.68-1.67.69-1.67.69.61-.4,1.55-.94,2.19-1.23,3.48-1.88,2.59-1.25,3.58-1.69S174.7,159.73,174.7,159.73Z"/><path d="M171.5,153.41s-.61.39-1.54.93-2.2,1.24-3.48,1.89-2.59,1.25-3.58,1.68-1.67.69-1.67.69.6-.4,1.54-.94,2.2-1.23,3.48-1.88,2.59-1.25,3.58-1.69S171.5,153.41,171.5,153.41Z"/><path d="M168.31,147.09s-.61.39-1.55.93-2.19,1.24-3.48,1.88-2.59,1.26-3.58,1.69-1.67.69-1.67.69.61-.4,1.55-.94,2.19-1.23,3.48-1.88,2.59-1.25,3.58-1.69S168.31,147.09,168.31,147.09Z"/><path d="M165.11,140.76s-.61.4-1.54.94-2.2,1.24-3.48,1.88-2.59,1.26-3.58,1.69-1.67.69-1.67.69.6-.4,1.54-.94,2.2-1.24,3.48-1.88,2.59-1.26,3.58-1.69S165.11,140.76,165.11,140.76Z"/><path d="M143.72,213.44s-.4-.6-.94-1.54-1.24-2.2-1.88-3.48-1.26-2.59-1.69-3.58-.69-1.67-.69-1.67.4.6.94,1.54,1.24,2.2,1.88,3.48,1.26,2.59,1.69,3.58S143.72,213.44,143.72,213.44Z"/><path d="M150,210.25s-.4-.61-.94-1.55-1.24-2.19-1.88-3.48-1.26-2.59-1.69-3.58-.68-1.67-.68-1.67.39.61.93,1.55,1.24,2.19,1.88,3.48,1.26,2.59,1.69,3.58S150,210.25,150,210.25Z"/><path d="M156.36,207.05s-.4-.61-.94-1.54-1.24-2.2-1.88-3.48-1.26-2.59-1.69-3.58-.68-1.67-.68-1.67.39.6.93,1.54,1.24,2.2,1.88,3.48,1.26,2.59,1.69,3.58S156.36,207.05,156.36,207.05Z"/><path d="M162.68,203.86s-.4-.61-.94-1.55-1.23-2.19-1.88-3.48-1.25-2.59-1.69-3.58-.68-1.67-.68-1.67.39.61.93,1.54,1.24,2.2,1.88,3.49,1.26,2.59,1.69,3.58S162.68,203.86,162.68,203.86Z"/><path d="M169,200.66s-.4-.61-.94-1.54-1.23-2.2-1.88-3.48-1.25-2.59-1.69-3.58-.68-1.67-.68-1.67.39.6.93,1.54,1.24,2.2,1.89,3.48,1.25,2.59,1.68,3.58S169,200.66,169,200.66Z"/><path d="M175.32,197.46s-.39-.6-.94-1.54-1.23-2.19-1.88-3.48-1.25-2.59-1.69-3.58-.68-1.67-.68-1.67.4.61.94,1.54,1.23,2.2,1.88,3.49,1.25,2.59,1.69,3.58S175.32,197.46,175.32,197.46Z"/><path d="M181.64,194.27s-.39-.61-.94-1.54-1.23-2.2-1.88-3.48-1.25-2.59-1.69-3.58-.68-1.67-.68-1.67.4.6.94,1.54,1.23,2.2,1.88,3.48,1.25,2.59,1.68,3.58S181.64,194.27,181.64,194.27Z"/></g></g><path class="cls-11" d="M234.42,116.51c-.4,0-.8,0-1.2-.07-8.67-.91-16.8-11.74-25.61-34.09C200.37,64,193.22,55.44,182.94,52.93a32.26,32.26,0,0,0-7.77-.86c-9.08,0-20.26,2.8-35.74,6.68l-.37.09c-3.38.85-6.95,1.75-10.71,2.66l-4.95,1.21c-14.56,3.55-21.86,5.34-26.49,5.34-4.44,0-6.49-1.57-10.57-4.7a112,112,0,0,0-20.4-12.66,33.87,33.87,0,0,0-15-3.86,26.7,26.7,0,0,0-10.17,2c-18,7.36-26.86,32.57-26.95,32.83l-.08.23-1.42-.49.08-.23c.09-.26,9.26-26.14,27.8-33.73a28.34,28.34,0,0,1,10.75-2.13,35.26,35.26,0,0,1,15.7,4A113.23,113.23,0,0,1,87.25,62.16c3.79,2.9,5.69,4.35,9.79,4.35,4.45,0,11.65-1.75,26-5.26L128,60q5.85-1.42,11.07-2.74c15-3.76,26.82-6.72,36.18-6.72C190.89,50.58,200,59,209,81.8c8.58,21.77,16.32,32.31,24.37,33.15a9.46,9.46,0,0,0,1.07.06c6.6,0,13.81-6.26,22.69-19.68l.14-.21,1.25.83-.14.21c-9.19,13.88-16.8,20.35-23.94,20.35Z"/><path class="cls-12" d="M50.91,45.58a35,35,0,0,1,15.59,4A113.08,113.08,0,0,1,87.1,62.36c3.79,2.9,5.75,4.4,9.94,4.4,4.48,0,11.51-1.71,26.06-5.27l5-1.2c3.9-.95,7.59-1.88,11.08-2.75,15.21-3.81,26.78-6.71,36.11-6.71,15.06,0,24.28,7.56,33.54,31.06,8.61,21.87,16.42,32.45,24.57,33.31a10.14,10.14,0,0,0,1.1.06c6.67,0,14-6.34,22.9-19.79l.83.55c-9.1,13.76-16.69,20.24-23.73,20.24h0a11.48,11.48,0,0,1-1.17-.07c-8.57-.9-16.64-11.68-25.4-33.93-7.28-18.47-14.48-27-24.85-29.58a33,33,0,0,0-7.83-.86c-9.11,0-20.47,2.85-35.8,6.69-3.49.87-7.18,1.8-11.08,2.75l-4.95,1.21c-14.68,3.58-21.83,5.33-26.42,5.33-4.37,0-6.42-1.58-10.43-4.65A112.68,112.68,0,0,0,66.05,50.47,34,34,0,0,0,50.9,46.58a27,27,0,0,0-10.26,2c-18.1,7.41-27,32.73-27.1,33l-.94-.32c.09-.26,9.15-26,27.66-33.58a27.82,27.82,0,0,1,10.65-2.11m0-.5a28.4,28.4,0,0,0-10.84,2.15C21.43,54.85,12.22,80.84,12.13,81.1l-.17.48.47.16,1,.33.47.16.17-.47c.08-.26,8.92-25.36,26.81-32.68a26.33,26.33,0,0,1,10.07-2,33.53,33.53,0,0,1,14.93,3.84A111.16,111.16,0,0,1,86.19,63.55c4,3.06,6.19,4.75,10.73,4.75s12-1.79,26.52-5.35l5-1.21c3.76-.91,7.29-1.8,10.7-2.65l.38-.1c15.46-3.87,26.63-6.67,35.68-6.67a32.28,32.28,0,0,1,7.71.85c10.19,2.49,17.29,11,24.5,29.27,8.84,22.45,17,33.33,25.82,34.25.41,0,.82.07,1.22.07,7.27,0,14.94-6.5,24.18-20.46l.28-.42-.42-.28-.83-.55-.42-.27-.28.41c-8.83,13.35-16,19.57-22.48,19.57a9.24,9.24,0,0,1-1-.06c-7.94-.83-15.62-11.32-24.16-33-9-22.88-18.23-31.38-34-31.38-9.39,0-21.24,3-36.24,6.72-3.13.79-7,1.77-11.06,2.75L123,61c-14.33,3.5-21.52,5.25-25.94,5.25-4,0-5.89-1.43-9.63-4.3A114.16,114.16,0,0,0,66.72,49.13a35.48,35.48,0,0,0-15.81-4.05Z"/><path class="cls-11" d="M.84,104.33C-2.52,94.24,9,73.83,20.11,54.09c5.37-9.53,10.44-18.53,13.31-25.54,4.8-11.74,15.27-23.62,26-23.62h.53c5.33.18,12.72,3.52,17.6,18.36C83,40,88,50.39,97.08,54.25a22.49,22.49,0,0,0,8.9,1.66c8.3,0,19.08-3.34,33.91-10.51,13.29-6.42,19.46-11.11,19.42-14.74,0-3.85-7.19-7.11-16.24-11.23-7.56-3.45-17-7.74-25.2-13.8-3.49-2.57-6.61-3.88-9.28-3.88a7.32,7.32,0,0,0-3.52.88c-11.55,6.29-9.37,43-9.35,43.4l0,.25-1.5.09,0-.25a149.14,149.14,0,0,1,.35-19.7c1.25-13.8,4.55-22.25,9.79-25.1A8.69,8.69,0,0,1,108.59.25c3,0,6.42,1.4,10.17,4.17,8.1,6,17.42,10.22,24.91,13.63,9.93,4.52,17.09,7.79,17.14,12.59.05,4.4-6,9.22-20.27,16.11-15,7.27-26,10.65-34.58,10.65a23.87,23.87,0,0,1-9.47-1.77c-9.61-4.08-14.75-14.77-20.38-31.86C72.45,12.67,66.84,6.68,59.87,6.44h-.43c-8.89,0-19.25,9.54-24.63,22.68-2.9,7.1-8,16.14-13.4,25.72C11,73.37-.89,94.39,2.26,103.86l.08.24-1.42.47Z"/><path class="cls-12" d="M108.59.5c3,0,6.3,1.38,10,4.12,8.13,6,17.47,10.25,25,13.67,9.82,4.47,16.92,7.71,17,12.35.05,4.29-6,9-20.13,15.89C125.62,53.69,114.51,57.15,106,57.15a23.72,23.72,0,0,1-9.37-1.75c-9.53-4-14.64-14.69-20.24-31.71C72.66,12.49,67,6.43,59.88,6.19h-.44c-9,0-19.4,9.51-24.86,22.84-2.9,7.08-8,16.12-13.38,25.68C10.72,73.3-1.16,94.37,2,103.94l-.95.32c-3.33-10,8.15-30.36,19.24-50.05,5.38-9.54,10.46-18.55,13.33-25.57C38.46,16.89,48.8,5.18,59.4,5.18h.52c5.25.18,12.53,3.49,17.38,18.19C82.81,40.13,87.8,50.59,97,54.48a22.86,22.86,0,0,0,9,1.68c8.37,0,19.33-3.43,34-10.53,13.39-6.48,19.6-11.23,19.56-15,0-4-7.26-7.29-16.39-11.45-7.55-3.44-16.94-7.72-25.15-13.78-3.54-2.61-6.7-3.92-9.43-3.92a7.59,7.59,0,0,0-3.64.91C93.3,8.76,95.45,45.67,95.47,46l-1,.07a148.68,148.68,0,0,1,.35-19.67c1.25-13.71,4.49-22.09,9.65-24.9a8.41,8.41,0,0,1,4.12-1m0-.5a9,9,0,0,0-4.35,1.1C98.92,4,95.58,12.5,94.32,26.4A149.83,149.83,0,0,0,94,46.14l0,.5.5,0,1-.07.5,0,0-.5c-.65-10.25-.25-38,9.22-43.16a7.06,7.06,0,0,1,3.4-.85c2.62,0,5.69,1.29,9.13,3.83C126,11.91,135.4,16.2,143,19.65c8.62,3.93,16.06,7.32,16.1,11,0,3.48-6.27,8.23-19.28,14.52C125,52.33,114.24,55.66,106,55.66A22.13,22.13,0,0,1,97.18,54c-9-3.82-13.93-14.18-19.41-30.8C72.84,8.25,65.35,4.88,59.93,4.69H59.4c-10.82,0-21.37,12-26.21,23.77-2.86,7-7.93,16-13.3,25.52C8.74,73.75-2.79,94.21.6,104.41l.16.48.48-.16,1-.32.47-.15-.16-.48C-.61,94.42,11.2,73.45,21.63,55,27,45.37,32.13,36.32,35,29.21,40.38,16.15,50.65,6.68,59.44,6.68h.42c6.86.25,12.39,6.18,16,17.17,5.65,17.16,10.82,27.9,20.52,32A24,24,0,0,0,106,57.65c8.59,0,19.62-3.39,34.69-10.67,14.55-7,20.46-11.77,20.41-16.34-.05-5-7.27-8.26-17.27-12.81-7.49-3.41-16.8-7.66-24.88-13.61C115.11,1.42,111.64,0,108.59,0Z"/><path class="cls-11" d="M180.52,274.44c-8.12,0-16-4.35-23.5-12.93-7.12-8.16-10.06-15.43-9-22.2,2-12.75,17.63-22.2,37.42-34.17,6-3.6,12-7.28,18.22-11.32l6.67-4.35c20.11-13.07,31.18-20.27,32.29-27.8.57-3.9-1.37-8.14-6.48-14.16l-.16-.19,1.14-1,.16.19c5.42,6.38,7.46,11,6.82,15.34-1.2,8.2-11.81,15.1-32.95,28.85l-.62.4-6.05,3.94c-6.24,4.08-12.35,7.78-18.26,11.35-19.46,11.77-34.84,21.06-36.72,33.13-1,6.3,1.84,13.17,8.66,21,7.17,8.23,14.7,12.41,22.37,12.41a21.22,21.22,0,0,0,6.46-1c12.79-4.09,23.78-20.84,25.56-39,1.9-19.35,12-21.86,25.95-25.33,7.59-1.88,16.18-4,25.56-9.22,24.09-13.36,20.48-22.73,9.76-50.54l-.1-.25c-1-2.59-2.05-5.33-3.15-8.25-8.63-22.86-3.83-30,2.24-39,3.31-4.91,7.06-10.48,9.31-19.63,4.22-17.19-8.19-21.12-27-27.07-8.73-2.77-18.63-5.9-28.67-11l-.23-.11.68-1.34.22.11c9.93,5,19.77,8.14,28.45,10.89,18.9,6,32.55,10.3,28,28.85-2.31,9.42-6.14,15.1-9.52,20.11-6.06,9-10.44,15.49-2.09,37.63,1.13,3,2.22,5.83,3.25,8.49,11.07,28.72,14.8,38.4-10.43,52.39-9.55,5.3-18.25,7.46-25.93,9.37-13.86,3.44-23,5.72-24.82,24-1.87,19-13,35.91-26.59,40.24A22.65,22.65,0,0,1,180.52,274.44Z"/><path class="cls-12" d="M227,41.58c9.95,5,19.8,8.15,28.49,10.9,18.77,5.94,32.32,10.23,27.83,28.55-2.31,9.38-6.12,15-9.49,20-6.1,9.05-10.51,15.59-2.11,37.85,1.13,3,2.22,5.83,3.24,8.49,11,28.57,14.73,38.2-10.31,52.08-9.53,5.29-18.21,7.44-25.87,9.35-14,3.47-23.19,5.76-25,24.23-1.86,18.9-13,35.73-26.41,40a22.47,22.47,0,0,1-6.86,1.09c-6.52,0-14.64-2.9-23.31-12.84-7.07-8.11-10-15.31-9-22,2-12.64,17.57-22.06,37.31-34,5.9-3.57,12-7.25,18.23-11.32l6.67-4.35c20.17-13.11,31.27-20.34,32.39-28,.59-4-1.37-8.27-6.53-14.35l.76-.65c5.37,6.32,7.39,10.86,6.76,15.15-1.18,8.09-11.76,15-32.84,28.67l-6.66,4.34c-6.24,4.08-12.35,7.78-18.26,11.35-19.52,11.8-34.94,21.12-36.84,33.3-1,6.38,1.85,13.31,8.72,21.18,7.2,8.27,14.9,12.5,22.56,12.5a21.18,21.18,0,0,0,6.54-1C199.94,268,211,251.19,212.8,233c1.88-19.17,11.9-21.66,25.76-25.1,7.6-1.89,16.21-4,25.62-9.25,24.28-13.47,20.65-22.89,9.87-50.85-1-2.66-2.11-5.49-3.25-8.5-8.58-22.74-3.81-29.81,2.22-38.76,3.32-4.93,7.09-10.51,9.34-19.71,4.28-17.42-8.22-21.38-27.15-27.37-8.73-2.76-18.62-5.9-28.64-11l.45-.89m-.22-.68-.23.45-.45.89-.22.45.44.22c10.07,5.09,20,8.23,28.72,11,18.66,5.9,31,9.81,26.82,26.77-2.24,9.11-6,14.65-9.27,19.55-6.12,9.07-10.95,16.23-2.28,39.22,1.11,2.92,2.17,5.67,3.16,8.27l.09.23c5.39,14,9,23.22,8.19,30.63s-5.92,13-17.83,19.6c-9.35,5.19-17.93,7.32-25.5,9.2-14.06,3.49-24.22,6-26.14,25.54-1.77,18-12.69,34.7-25.38,38.75a20.81,20.81,0,0,1-6.39,1c-7.59,0-15.06-4.15-22.19-12.32-6.76-7.76-9.57-14.56-8.59-20.79,1.86-12,17.19-21.21,36.6-32.94,5.91-3.58,12-7.27,18.27-11.36l6.11-4,.56-.36c21.2-13.79,31.84-20.71,33.06-29,.65-4.45-1.41-9.1-6.88-15.54l-.32-.39-.38.33L236,147l-.38.33.32.38c5.06,6,7,10.14,6.42,14-1.09,7.42-12.13,14.6-32.17,27.63l-6.67,4.35c-6.19,4-12.26,7.71-18.13,11.26l-.09,0c-19.85,12-35.53,21.48-37.54,34.35-1.07,6.85,1.89,14.18,9.07,22.41,7.52,8.63,15.49,13,23.68,13a23.17,23.17,0,0,0,7-1.11c13.63-4.36,24.88-21.37,26.76-40.46,1.78-18.12,10.87-20.38,24.63-23.8,7.69-1.91,16.41-4.08,26-9.39,12.61-7,18.09-13.05,18.93-20.92s-2.83-17.36-8.39-31.78c-1-2.53-2.08-5.4-3.25-8.49-8.3-22-3.95-28.47,2.07-37.4,3.39-5,7.23-10.73,9.55-20.19C288.43,62.38,274.69,58,255.66,52c-8.67-2.75-18.5-5.86-28.41-10.87l-.45-.23Z"/><path class="cls-11" d="M192.51,166.87c-.31-1.51-7.64-37.25,1.88-44.16a6.24,6.24,0,0,1,3.76-1.19,13.16,13.16,0,0,1,6.3,2c6.87,3.94,15.45,6.81,23.75,9.57,18.75,6.26,36.45,12.17,30.81,29.31l-.08.24-1.43-.47.08-.24c5.18-15.72-11.83-21.4-29.84-27.41-8.37-2.79-17-5.68-24-9.7a11.59,11.59,0,0,0-5.54-1.82,4.84,4.84,0,0,0-2.89.89c-8.69,6.32-1.36,42.29-1.29,42.65l.05.24-1.47.31Z"/><path class="cls-12" d="M198.15,121.77a12.76,12.76,0,0,1,6.17,2c6.9,4,15.5,6.82,23.81,9.59,18.62,6.22,36.21,12.09,30.64,29l-.95-.31c5.26-16-11.87-21.68-30-27.73-8.35-2.79-17-5.67-24-9.68a11.91,11.91,0,0,0-5.67-1.85,5,5,0,0,0-3,.94c-8.88,6.44-1.47,42.54-1.39,42.9l-1,.2c-.32-1.51-7.61-37.09,1.78-43.91a6,6,0,0,1,3.61-1.14m0-.5a6.51,6.51,0,0,0-3.91,1.24c-9.65,7-2.29,42.89-2,44.42l.1.49.49-.11,1-.2.49-.1-.1-.49c-.08-.36-7.38-36.18,1.19-42.39a4.49,4.49,0,0,1,2.74-.85,11.37,11.37,0,0,1,5.42,1.79c7,4,15.69,6.92,24.08,9.72,17.89,6,34.79,11.61,29.68,27.09l-.15.48.47.15.95.32.48.15.15-.47c5.73-17.38-12.09-23.33-31-29.62-8.29-2.77-16.86-5.63-23.72-9.56a13.35,13.35,0,0,0-6.42-2.06Z"/></g></g></g></svg>
