<svg xmlns="http://www.w3.org/2000/svg" viewBox="0 0 187.43 138.92"><defs><style>.cls-1{fill:#f8c478;}</style></defs><g id="Layer_2" data-name="Layer 2"><g id="Layer_1-2" data-name="Layer 1"><g id="Peanuts"><path class="cls-1" d="M101.23,135v3.92l1,0a14.45,14.45,0,0,0,6.59-1.56V135Z"/><path class="cls-1" d="M92.79,135v1.84a16.84,16.84,0,0,0,7.6,2V135Z"/><path class="cls-1" d="M68.32,138.79a21.39,21.39,0,0,0,6.72-.85v-3h-7.6v3.77C67.73,138.77,68,138.79,68.32,138.79Z"/><path class="cls-1" d="M58.14,125.69v-7.6H55.27a14.18,14.18,0,0,0-1.39,6.14c0,.49,0,1,.06,1.46Z"/><path class="cls-1" d="M89.78,135c.76.51,1.47,1,2.16,1.37V135Z"/><rect class="cls-1" x="92.79" y="126.53" width="7.6" height="7.6"/><rect class="cls-1" x="101.23" y="126.53" width="7.6" height="7.6"/><path class="cls-1" d="M102.37,109.91h-1.14v7.32h7.61v-5.77A14.4,14.4,0,0,0,102.37,109.91Z"/><path class="cls-1" d="M84.34,114.71v2.53h7.6V112c-.86.44-1.75.95-2.73,1.57A6.66,6.66,0,0,1,84.34,114.71Z"/><path class="cls-1" d="M100.39,117.24v-7.3a18.64,18.64,0,0,0-7.6,1.66v5.64Z"/><path class="cls-1" d="M84.34,126.53v6.62a5.52,5.52,0,0,1,4.19,1h3.41v-7.61Z"/><path class="cls-1" d="M75.89,110.71v6.53h7.6v-2.75a8.29,8.29,0,0,1-1.92-.94A24,24,0,0,0,75.89,110.71Z"/><path class="cls-1" d="M58.14,117.24V114a14.6,14.6,0,0,0-2.44,3.23Z"/><path class="cls-1" d="M59,117.24h7.6v-7.35a14.47,14.47,0,0,0-7.6,3.35Z"/><path class="cls-1" d="M67.44,109.82v7.42H75v-6.78a26.43,26.43,0,0,0-6.61-.68C68.1,109.78,67.77,109.79,67.44,109.82Z"/><path class="cls-1" d="M75.89,135v2.66A25.13,25.13,0,0,0,80.77,135Z"/><rect class="cls-1" x="58.99" y="118.09" width="7.6" height="7.6"/><rect class="cls-1" x="67.44" y="118.09" width="7.6" height="7.6"/><rect class="cls-1" x="75.89" y="118.09" width="7.61" height="7.6"/><path class="cls-1" d="M109.68,117.24h5.23a14.55,14.55,0,0,0-5.23-5.31Z"/><path class="cls-1" d="M75.89,126.53v7.61h6.16a7.58,7.58,0,0,1,1.44-.74v-6.87Z"/><rect class="cls-1" x="92.79" y="118.09" width="7.6" height="7.6"/><path class="cls-1" d="M109.68,118.09v7.6h7.07c0-.4.06-.81.06-1.22a14.34,14.34,0,0,0-1.45-6.38Z"/><rect class="cls-1" x="101.23" y="118.09" width="7.6" height="7.6"/><rect class="cls-1" x="84.34" y="118.09" width="7.6" height="7.6"/><rect class="cls-1" x="58.99" y="126.53" width="7.6" height="7.6"/><rect class="cls-1" x="67.44" y="126.53" width="7.6" height="7.6"/><path class="cls-1" d="M66.59,135H59v.35a14.38,14.38,0,0,0,7.6,3.34Z"/><path class="cls-1" d="M109.68,135v1.92a14.08,14.08,0,0,0,2.55-1.92Z"/><path class="cls-1" d="M57.74,134.14h.4v-7.61H54.05A14.54,14.54,0,0,0,57.74,134.14Z"/><path class="cls-1" d="M109.68,126.53v7.61h3.39a14.39,14.39,0,0,0,3.58-7.61Z"/><path class="cls-1" d="M123.26,97.67v3.91l1,0a14.44,14.44,0,0,0,6.59-1.55V97.67Z"/><path class="cls-1" d="M114.81,97.67v1.84a17.08,17.08,0,0,0,7.61,2V97.67Z"/><path class="cls-1" d="M90.35,101.47a21.39,21.39,0,0,0,6.72-.85v-3h-7.6v3.77C89.76,101.46,90.05,101.47,90.35,101.47Z"/><path class="cls-1" d="M80.18,88.37v-7.6H77.3a14.33,14.33,0,0,0-1.39,6.14A14.14,14.14,0,0,0,76,88.37Z"/><path class="cls-1" d="M111.81,97.67c.76.5,1.47,1,2.16,1.36V97.67Z"/><rect class="cls-1" x="114.81" y="89.22" width="7.6" height="7.6"/><rect class="cls-1" x="123.26" y="89.22" width="7.6" height="7.6"/><path class="cls-1" d="M124.39,72.59h-1.13v7.32h7.61V74.15A14.54,14.54,0,0,0,124.39,72.59Z"/><path class="cls-1" d="M106.37,77.39v2.53H114V74.69c-.86.44-1.75,1-2.74,1.58A6.62,6.62,0,0,1,106.37,77.39Z"/><path class="cls-1" d="M122.42,79.92V72.63a18.57,18.57,0,0,0-7.61,1.65v5.64Z"/><path class="cls-1" d="M106.37,89.22v6.62a5.51,5.51,0,0,1,4.19,1H114v-7.6Z"/><path class="cls-1" d="M97.92,73.39v6.53h7.6V77.18a8.51,8.51,0,0,1-1.92-.94A23.9,23.9,0,0,0,97.92,73.39Z"/><path class="cls-1" d="M80.18,79.92V76.69a14.56,14.56,0,0,0-2.45,3.23Z"/><path class="cls-1" d="M81,79.92h7.61V72.58A14.41,14.41,0,0,0,81,75.92Z"/><path class="cls-1" d="M89.47,72.5v7.42h7.6V73.14a26.43,26.43,0,0,0-6.61-.68C90.13,72.46,89.8,72.48,89.47,72.5Z"/><path class="cls-1" d="M97.92,97.67v2.65a25.59,25.59,0,0,0,4.88-2.65Z"/><rect class="cls-1" x="81.02" y="80.77" width="7.61" height="7.6"/><rect class="cls-1" x="89.47" y="80.77" width="7.6" height="7.6"/><rect class="cls-1" x="97.92" y="80.77" width="7.6" height="7.6"/><path class="cls-1" d="M131.71,79.92h5.23a14.63,14.63,0,0,0-5.23-5.31Z"/><path class="cls-1" d="M97.92,89.22v7.6h6.16a7.58,7.58,0,0,1,1.44-.74V89.22Z"/><rect class="cls-1" x="114.81" y="80.77" width="7.6" height="7.6"/><path class="cls-1" d="M131.71,80.77v7.6h7.07c0-.4.06-.81.06-1.22a14.37,14.37,0,0,0-1.45-6.38Z"/><rect class="cls-1" x="123.26" y="80.77" width="7.6" height="7.6"/><rect class="cls-1" x="106.37" y="80.77" width="7.6" height="7.6"/><rect class="cls-1" x="81.02" y="89.22" width="7.61" height="7.6"/><rect class="cls-1" x="89.47" y="89.22" width="7.6" height="7.6"/><path class="cls-1" d="M88.63,97.67H81V98a14.53,14.53,0,0,0,7.61,3.34Z"/><path class="cls-1" d="M131.71,97.67v1.92a15.07,15.07,0,0,0,2.55-1.92Z"/><path class="cls-1" d="M79.77,96.82h.41v-7.6h-4.1A14.55,14.55,0,0,0,79.77,96.82Z"/><path class="cls-1" d="M131.71,89.22v7.6h3.39a14.56,14.56,0,0,0,3.59-7.6Z"/><path class="cls-1" d="M171.86,132.52v3.92l1,0a14.54,14.54,0,0,0,6.58-1.56v-2.38Z"/><path class="cls-1" d="M163.41,132.52v1.84a16.87,16.87,0,0,0,7.6,2v-3.88Z"/><path class="cls-1" d="M139,136.32a20.89,20.89,0,0,0,6.72-.85v-2.95h-7.61v3.77C138.35,136.31,138.65,136.32,139,136.32Z"/><path class="cls-1" d="M128.77,123.23v-7.61h-2.88a14.55,14.55,0,0,0-1.39,6.15,14.13,14.13,0,0,0,.07,1.46Z"/><path class="cls-1" d="M160.41,132.52c.76.51,1.47,1,2.15,1.37v-1.37Z"/><rect class="cls-1" x="163.41" y="124.07" width="7.6" height="7.6"/><rect class="cls-1" x="171.86" y="124.07" width="7.6" height="7.6"/><path class="cls-1" d="M173,107.45h-1.13v7.32h7.6V109A14.49,14.49,0,0,0,173,107.45Z"/><path class="cls-1" d="M155,112.24v2.54h7.6v-5.24c-.85.44-1.75,1-2.73,1.58A6.61,6.61,0,0,1,155,112.24Z"/><path class="cls-1" d="M171,114.78v-7.3a18.48,18.48,0,0,0-7.6,1.65v5.65Z"/><path class="cls-1" d="M155,124.07v6.62a5.46,5.46,0,0,1,4.19,1h3.41v-7.61Z"/><path class="cls-1" d="M146.51,108.24v6.54h7.61V112a8.35,8.35,0,0,1-1.93-.94A23.71,23.71,0,0,0,146.51,108.24Z"/><path class="cls-1" d="M128.77,114.78v-3.23a14.64,14.64,0,0,0-2.45,3.23Z"/><path class="cls-1" d="M129.61,114.78h7.61v-7.35a14.52,14.52,0,0,0-7.61,3.34Z"/><path class="cls-1" d="M138.06,107.35v7.43h7.61V108a26,26,0,0,0-6.61-.68C138.72,107.32,138.39,107.33,138.06,107.35Z"/><path class="cls-1" d="M146.51,132.52v2.66a26.25,26.25,0,0,0,4.88-2.66Z"/><rect class="cls-1" x="129.61" y="115.62" width="7.6" height="7.6"/><rect class="cls-1" x="138.06" y="115.62" width="7.6" height="7.6"/><rect class="cls-1" x="146.51" y="115.62" width="7.6" height="7.6"/><path class="cls-1" d="M180.31,114.78h5.22a14.52,14.52,0,0,0-5.22-5.31Z"/><path class="cls-1" d="M146.51,124.07v7.61h6.16a6.86,6.86,0,0,1,1.45-.74v-6.87Z"/><rect class="cls-1" x="163.41" y="115.62" width="7.6" height="7.6"/><path class="cls-1" d="M180.31,115.62v7.61h7.07c0-.4.05-.81.05-1.22a14.41,14.41,0,0,0-1.45-6.39Z"/><rect class="cls-1" x="171.86" y="115.62" width="7.6" height="7.6"/><rect class="cls-1" x="154.96" y="115.62" width="7.6" height="7.6"/><rect class="cls-1" x="129.61" y="124.07" width="7.6" height="7.6"/><rect class="cls-1" x="138.06" y="124.07" width="7.6" height="7.6"/><path class="cls-1" d="M137.22,132.52h-7.61v.35a14.44,14.44,0,0,0,7.61,3.34Z"/><path class="cls-1" d="M180.31,132.52v1.92a14.44,14.44,0,0,0,2.55-1.92Z"/><path class="cls-1" d="M128.37,131.68h.4v-7.61h-4.09A14.43,14.43,0,0,0,128.37,131.68Z"/><path class="cls-1" d="M180.31,124.07v7.61h3.38a14.48,14.48,0,0,0,3.59-7.61Z"/><path class="cls-1" d="M47.36,96.29v3.91l1,0A14.4,14.4,0,0,0,55,98.67V96.29Z"/><path class="cls-1" d="M38.91,96.29v1.84a17,17,0,0,0,7.6,2V96.29Z"/><path class="cls-1" d="M14.45,100.09a21.47,21.47,0,0,0,6.72-.85V96.29H13.56v3.77C13.85,100.08,14.15,100.09,14.45,100.09Z"/><path class="cls-1" d="M4.27,87v-7.6H1.39A14.47,14.47,0,0,0,0,85.53,14.13,14.13,0,0,0,.07,87Z"/><path class="cls-1" d="M35.91,96.29c.76.5,1.47,1,2.15,1.36V96.29Z"/><rect class="cls-1" x="38.91" y="87.84" width="7.6" height="7.6"/><rect class="cls-1" x="47.36" y="87.84" width="7.6" height="7.6"/><path class="cls-1" d="M48.49,71.21H47.36v7.32H55V72.77A14.5,14.5,0,0,0,48.49,71.21Z"/><path class="cls-1" d="M30.46,76v2.53h7.6V73.31c-.85.44-1.75,1-2.73,1.58A6.66,6.66,0,0,1,30.46,76Z"/><path class="cls-1" d="M46.51,78.54V71.25a18.48,18.48,0,0,0-7.6,1.65v5.64Z"/><path class="cls-1" d="M30.46,87.84v6.62a5.49,5.49,0,0,1,4.19,1h3.41v-7.6Z"/><path class="cls-1" d="M22,72v6.53h7.61V75.8a8.78,8.78,0,0,1-1.93-.94A23.71,23.71,0,0,0,22,72Z"/><path class="cls-1" d="M4.27,78.54V75.31a14.87,14.87,0,0,0-2.45,3.23Z"/><path class="cls-1" d="M5.11,78.54h7.61V71.2a14.44,14.44,0,0,0-7.61,3.34Z"/><path class="cls-1" d="M13.56,71.12v7.42h7.61V71.76a26.49,26.49,0,0,0-6.61-.68C14.22,71.08,13.89,71.1,13.56,71.12Z"/><path class="cls-1" d="M22,96.29v2.65a25.59,25.59,0,0,0,4.88-2.65Z"/><rect class="cls-1" x="5.11" y="79.39" width="7.6" height="7.6"/><rect class="cls-1" x="13.56" y="79.39" width="7.6" height="7.6"/><rect class="cls-1" x="22.01" y="79.39" width="7.6" height="7.6"/><path class="cls-1" d="M55.81,78.54H61a14.6,14.6,0,0,0-5.22-5.31Z"/><path class="cls-1" d="M22,87.84v7.6h6.16a8,8,0,0,1,1.45-.74V87.84Z"/><rect class="cls-1" x="38.91" y="79.39" width="7.6" height="7.6"/><path class="cls-1" d="M55.81,79.39V87h7.07c0-.4,0-.81,0-1.22a14.37,14.37,0,0,0-1.45-6.38Z"/><rect class="cls-1" x="47.36" y="79.39" width="7.6" height="7.6"/><rect class="cls-1" x="30.46" y="79.39" width="7.6" height="7.6"/><rect class="cls-1" x="5.11" y="87.84" width="7.6" height="7.6"/><rect class="cls-1" x="13.56" y="87.84" width="7.6" height="7.6"/><path class="cls-1" d="M12.72,96.29H5.11v.35A14.6,14.6,0,0,0,12.72,100Z"/><path class="cls-1" d="M55.81,96.29v1.92a15.48,15.48,0,0,0,2.55-1.92Z"/><path class="cls-1" d="M3.87,95.44h.4v-7.6H.18A14.4,14.4,0,0,0,3.87,95.44Z"/><path class="cls-1" d="M55.81,87.84v7.6h3.38a14.48,14.48,0,0,0,3.59-7.6Z"/><path class="cls-1" d="M88.28,61v3.92l1,0a14.38,14.38,0,0,0,6.58-1.56V61Z"/><path class="cls-1" d="M79.83,61v1.84a16.91,16.91,0,0,0,7.61,2V61Z"/><path class="cls-1" d="M55.37,64.79a20.86,20.86,0,0,0,6.72-.85V61h-7.6v3.77C54.78,64.78,55.07,64.79,55.37,64.79Z"/><path class="cls-1" d="M45.19,51.7V44.09H42.31a14.55,14.55,0,0,0-1.39,6.15c0,.49,0,1,.07,1.46Z"/><path class="cls-1" d="M76.83,61c.76.51,1.47,1,2.16,1.37V61Z"/><rect class="cls-1" x="79.83" y="52.54" width="7.6" height="7.6"/><rect class="cls-1" x="88.28" y="52.54" width="7.6" height="7.6"/><path class="cls-1" d="M89.41,35.92H88.28v7.32h7.6V37.47A14.46,14.46,0,0,0,89.41,35.92Z"/><path class="cls-1" d="M71.38,40.71v2.54H79V38c-.86.44-1.76.95-2.74,1.57A6.6,6.6,0,0,1,71.38,40.71Z"/><path class="cls-1" d="M87.44,43.25V36a18.53,18.53,0,0,0-7.61,1.65v5.65Z"/><path class="cls-1" d="M71.38,52.54v6.62a5.49,5.49,0,0,1,4.2,1H79V52.54Z"/><path class="cls-1" d="M62.93,36.71v6.54h7.61V40.5a8.35,8.35,0,0,1-1.93-.94A23.91,23.91,0,0,0,62.93,36.71Z"/><path class="cls-1" d="M45.19,43.25V40a14.29,14.29,0,0,0-2.44,3.23Z"/><path class="cls-1" d="M46,43.25h7.6V35.9A14.53,14.53,0,0,0,46,39.24Z"/><path class="cls-1" d="M54.49,35.82v7.43h7.6V36.47a26,26,0,0,0-6.61-.68Q55,35.79,54.49,35.82Z"/><path class="cls-1" d="M62.93,61v2.66A25.48,25.48,0,0,0,67.82,61Z"/><rect class="cls-1" x="46.04" y="44.09" width="7.6" height="7.6"/><rect class="cls-1" x="54.49" y="44.09" width="7.6" height="7.6"/><rect class="cls-1" x="62.93" y="44.09" width="7.6" height="7.6"/><path class="cls-1" d="M96.73,43.25H102a14.55,14.55,0,0,0-5.23-5.31Z"/><path class="cls-1" d="M62.93,52.54v7.61h6.16a6.86,6.86,0,0,1,1.45-.74V52.54Z"/><rect class="cls-1" x="79.83" y="44.09" width="7.6" height="7.6"/><path class="cls-1" d="M96.73,44.09V51.7h7.07c0-.4.06-.81.06-1.22a14.55,14.55,0,0,0-1.45-6.39Z"/><rect class="cls-1" x="88.28" y="44.09" width="7.6" height="7.6"/><rect class="cls-1" x="71.38" y="44.09" width="7.6" height="7.6"/><rect class="cls-1" x="46.04" y="52.54" width="7.6" height="7.6"/><rect class="cls-1" x="54.49" y="52.54" width="7.6" height="7.6"/><path class="cls-1" d="M53.64,61H46v.35a14.38,14.38,0,0,0,7.6,3.34Z"/><path class="cls-1" d="M96.73,61v1.92A14.08,14.08,0,0,0,99.28,61Z"/><path class="cls-1" d="M44.79,60.15h.4V52.54H41.1A14.39,14.39,0,0,0,44.79,60.15Z"/><path class="cls-1" d="M96.73,52.54v7.61h3.38a14.41,14.41,0,0,0,3.59-7.61Z"/><path class="cls-1" d="M166.34,62.33v3.92l1,0a14.41,14.41,0,0,0,6.58-1.56V62.33Z"/><path class="cls-1" d="M157.89,62.33v1.84a16.91,16.91,0,0,0,7.6,2V62.33Z"/><path class="cls-1" d="M133.43,66.13a20.86,20.86,0,0,0,6.72-.85v-3h-7.6V66.1C132.84,66.12,133.13,66.13,133.43,66.13Z"/><path class="cls-1" d="M123.25,53V45.43h-2.88A14.55,14.55,0,0,0,119,51.58a14.13,14.13,0,0,0,.07,1.46Z"/><path class="cls-1" d="M154.89,62.33c.76.51,1.47,1,2.16,1.37V62.33Z"/><rect class="cls-1" x="157.89" y="53.88" width="7.6" height="7.6"/><rect class="cls-1" x="166.34" y="53.88" width="7.6" height="7.6"/><path class="cls-1" d="M167.47,37.26h-1.13v7.32h7.6V38.81A14.46,14.46,0,0,0,167.47,37.26Z"/><path class="cls-1" d="M149.44,42.05v2.54h7.61V39.36a31.55,31.55,0,0,0-2.74,1.57A6.61,6.61,0,0,1,149.44,42.05Z"/><path class="cls-1" d="M165.49,44.59v-7.3a18.52,18.52,0,0,0-7.6,1.65v5.65Z"/><path class="cls-1" d="M149.44,53.88V60.5a5.46,5.46,0,0,1,4.19,1h3.42V53.88Z"/><path class="cls-1" d="M141,38.05v6.54h7.61V41.84a8.35,8.35,0,0,1-1.93-.94A24.09,24.09,0,0,0,141,38.05Z"/><path class="cls-1" d="M123.25,44.59V41.36a14.29,14.29,0,0,0-2.44,3.23Z"/><path class="cls-1" d="M124.1,44.59h7.6V37.24a14.46,14.46,0,0,0-7.6,3.34Z"/><path class="cls-1" d="M132.55,37.16v7.43h7.6V37.81a26,26,0,0,0-6.61-.68C133.21,37.13,132.87,37.14,132.55,37.16Z"/><path class="cls-1" d="M141,62.33V65a26,26,0,0,0,4.89-2.66Z"/><rect class="cls-1" x="124.1" y="45.43" width="7.6" height="7.6"/><rect class="cls-1" x="132.55" y="45.43" width="7.6" height="7.6"/><rect class="cls-1" x="140.99" y="45.43" width="7.6" height="7.6"/><path class="cls-1" d="M174.79,44.59H180a14.55,14.55,0,0,0-5.23-5.31Z"/><path class="cls-1" d="M141,53.88v7.61h6.16a6.86,6.86,0,0,1,1.45-.74V53.88Z"/><rect class="cls-1" x="157.89" y="45.43" width="7.6" height="7.6"/><path class="cls-1" d="M174.79,45.43V53h7.07c0-.4.06-.81.06-1.22a14.42,14.42,0,0,0-1.46-6.39Z"/><rect class="cls-1" x="166.34" y="45.43" width="7.6" height="7.6"/><rect class="cls-1" x="149.44" y="45.43" width="7.6" height="7.6"/><rect class="cls-1" x="124.1" y="53.88" width="7.6" height="7.6"/><rect class="cls-1" x="132.55" y="53.88" width="7.6" height="7.6"/><path class="cls-1" d="M131.7,62.33h-7.6v.35A14.38,14.38,0,0,0,131.7,66Z"/><path class="cls-1" d="M174.79,62.33v1.92a14.44,14.44,0,0,0,2.55-1.92Z"/><path class="cls-1" d="M122.85,61.49h.4V53.88h-4.09A14.43,14.43,0,0,0,122.85,61.49Z"/><path class="cls-1" d="M174.79,53.88v7.61h3.38a14.41,14.41,0,0,0,3.59-7.61Z"/><path class="cls-1" d="M122.27,25.2v3.92l1,0a14.41,14.41,0,0,0,6.58-1.56V25.2Z"/><path class="cls-1" d="M113.82,25.2V27a16.91,16.91,0,0,0,7.6,2V25.2Z"/><path class="cls-1" d="M89.36,29a20.89,20.89,0,0,0,6.72-.85V25.2H88.47V29C88.77,29,89.06,29,89.36,29Z"/><path class="cls-1" d="M79.18,15.91V8.3H76.3a14.55,14.55,0,0,0-1.39,6.15A14.13,14.13,0,0,0,75,15.91Z"/><path class="cls-1" d="M110.82,25.2c.76.51,1.47,1,2.15,1.37V25.2Z"/><rect class="cls-1" x="113.82" y="16.75" width="7.6" height="7.6"/><rect class="cls-1" x="122.27" y="16.75" width="7.6" height="7.6"/><path class="cls-1" d="M123.4.13h-1.13V7.46h7.6V1.68A14.49,14.49,0,0,0,123.4.13Z"/><path class="cls-1" d="M105.37,4.92V7.46H113V2.23c-.85.44-1.75,1-2.73,1.57A6.61,6.61,0,0,1,105.37,4.92Z"/><path class="cls-1" d="M121.42,7.46V.16a18.52,18.52,0,0,0-7.6,1.65V7.46Z"/><path class="cls-1" d="M105.37,16.75v6.62a5.46,5.46,0,0,1,4.19,1H113V16.75Z"/><path class="cls-1" d="M96.92.92V7.46h7.61V4.71a8.35,8.35,0,0,1-1.93-.94A24.09,24.09,0,0,0,96.92.92Z"/><path class="cls-1" d="M79.18,7.46V4.23a14.64,14.64,0,0,0-2.45,3.23Z"/><path class="cls-1" d="M80,7.46h7.61V.11A14.6,14.6,0,0,0,80,3.45Z"/><path class="cls-1" d="M88.47,0V7.46h7.61V.68A26,26,0,0,0,89.47,0C89.13,0,88.8,0,88.47,0Z"/><path class="cls-1" d="M96.92,25.2v2.66a25.13,25.13,0,0,0,4.88-2.66Z"/><rect class="cls-1" x="80.02" y="8.3" width="7.61" height="7.6"/><rect class="cls-1" x="88.47" y="8.3" width="7.6" height="7.6"/><rect class="cls-1" x="96.92" y="8.3" width="7.6" height="7.6"/><path class="cls-1" d="M130.72,7.46H136a14.63,14.63,0,0,0-5.23-5.31Z"/><path class="cls-1" d="M96.92,16.75v7.61h6.16a6.86,6.86,0,0,1,1.45-.74V16.75Z"/><rect class="cls-1" x="113.82" y="8.3" width="7.6" height="7.6"/><path class="cls-1" d="M130.72,8.3v7.61h7.07c0-.4.05-.81.06-1.22a14.55,14.55,0,0,0-1.46-6.39Z"/><rect class="cls-1" x="122.27" y="8.3" width="7.6" height="7.6"/><rect class="cls-1" x="105.37" y="8.3" width="7.6" height="7.6"/><rect class="cls-1" x="80.02" y="16.75" width="7.61" height="7.6"/><rect class="cls-1" x="88.47" y="16.75" width="7.6" height="7.6"/><path class="cls-1" d="M87.63,25.2H80v.35a14.44,14.44,0,0,0,7.61,3.34Z"/><path class="cls-1" d="M130.72,25.2v1.92a14.44,14.44,0,0,0,2.55-1.92Z"/><path class="cls-1" d="M78.78,24.36h.4V16.75H75.09A14.39,14.39,0,0,0,78.78,24.36Z"/><path class="cls-1" d="M130.72,16.75v7.61h3.38a14.48,14.48,0,0,0,3.59-7.61Z"/></g></g></g></svg>
