<svg xmlns="http://www.w3.org/2000/svg" xmlns:xlink="http://www.w3.org/1999/xlink" viewBox="0 0 219.74 128.27"><defs><style>.cls-1{fill:none;}.cls-2{fill:#bcc944;}.cls-3{fill:#40471e;}.cls-4{clip-path:url(#clip-path);}.cls-5{fill:#577233;}.cls-6{clip-path:url(#clip-path-2);}.cls-7{clip-path:url(#clip-path-3);}.cls-8{clip-path:url(#clip-path-4);}</style><clipPath id="clip-path" transform="translate(1.53 0.78)"><path class="cls-1" d="M0,46.4s6.65-5.32,10.87-5.1,60.53,1.09,66.74,0,20.4-8,22.84-10c2,.44,3.55,5.1,2.22,7.54S99.12,45.73,94,48s-28.83,6-43.91,5.32-36.58,1-39.69.08S3.1,46.62,0,46.4Z"/></clipPath><clipPath id="clip-path-2" transform="translate(1.53 0.78)"><path class="cls-1" d="M57.24,113.33s.81-8.48,3.9-11.35,42.93-42.69,46.46-47.92,8.47-20.2,8.74-23.34c1.71-1.12,6.13,1,7,3.66s2.46,7.33.5,12.54S108,71.78,97.06,82.14s-24.72,27-27.57,28.55S59.56,111.26,57.24,113.33Z"/></clipPath><clipPath id="clip-path-3" transform="translate(1.53 0.78)"><path class="cls-1" d="M148.94,126s-5.32-6.65-5.1-10.86,1.1-60.54,0-66.75-8-20.4-10-22.84c.45-2,5.1-3.54,7.54-2.21s6.87,3.54,9.09,8.64,6,28.83,5.32,43.91,1,36.58.08,39.69S149.16,122.86,148.94,126Z"/></clipPath><clipPath id="clip-path-4" transform="translate(1.53 0.78)"><path class="cls-1" d="M215.87,68.72s-8.48-.81-11.35-3.9S161.83,21.89,156.6,18.36s-20.2-8.47-23.34-8.74c-1.12-1.71,1-6.13,3.66-6.95s7.33-2.47,12.54-.51,24.86,15.77,35.22,26.74,27,24.72,28.55,27.58S213.8,66.4,215.87,68.72Z"/></clipPath></defs><g id="Layer_2" data-name="Layer 2"><g id="Layer_1-2" data-name="Layer 1"><g id="Peas"><path class="cls-2" d="M0,46.73s5.43,9.76,12.86,9.76a117.87,117.87,0,0,0,18.55-1,64.56,64.56,0,0,1,16.71-.89c6.09.56,12.75,1.33,17.51.11s7.66-1.66,14.64-1.55,7.54.62,12.31-2.18,9.5-6.59,10.35-12.74Z" transform="translate(1.53 0.78)"/><path class="cls-3" d="M0,46.4s6.65-5.32,10.87-5.1,60.53,1.09,66.74,0,20.4-8,22.84-10c2,.44,3.55,5.1,2.22,7.54S99.12,45.73,94,48s-28.83,6-43.91,5.32-36.58,1-39.69.08S3.1,46.62,0,46.4Z" transform="translate(1.53 0.78)"/><path class="cls-2" d="M22.09,47.06a4.24,4.24,0,1,1-4.24-4.24A4.24,4.24,0,0,1,22.09,47.06Z" transform="translate(1.53 0.78)"/><path class="cls-2" d="M31.41,47.06a4.25,4.25,0,1,1-4.25-4.24A4.25,4.25,0,0,1,31.41,47.06Z" transform="translate(1.53 0.78)"/><path class="cls-2" d="M42.94,47.06a4.25,4.25,0,1,1-4.25-4.24A4.25,4.25,0,0,1,42.94,47.06Z" transform="translate(1.53 0.78)"/><path class="cls-2" d="M53.58,47.06a4.25,4.25,0,1,1-4.24-4.24A4.24,4.24,0,0,1,53.58,47.06Z" transform="translate(1.53 0.78)"/><path class="cls-2" d="M62.89,46.73a4.24,4.24,0,1,1-4.24-4.24A4.24,4.24,0,0,1,62.89,46.73Z" transform="translate(1.53 0.78)"/><path class="cls-2" d="M73.32,47.06a4.25,4.25,0,1,1-4.25-4.24A4.25,4.25,0,0,1,73.32,47.06Z" transform="translate(1.53 0.78)"/><path class="cls-2" d="M84.51,45.73a4.25,4.25,0,1,1-4.24-4.24A4.24,4.24,0,0,1,84.51,45.73Z" transform="translate(1.53 0.78)"/><path class="cls-2" d="M95.6,42.49a4.25,4.25,0,1,1-4.24-4.25A4.24,4.24,0,0,1,95.6,42.49Z" transform="translate(1.53 0.78)"/><g class="cls-4"><path class="cls-5" d="M.78,44.51s6.54,7.1,9.31,7.32,12.88.24,16.19-.52,5.32-.19,9.86,0,12.64.31,15.14-.47,19-.39,23-.86,22.62-5.86,23.51-7.16,1.76-1.36,5.37-1.33S90.25,63.58,9.65,55.27C2.44,52.83-5.58,46.92.78,44.51Z" transform="translate(1.53 0.78)"/><path class="cls-5" d="M1.44,45.73s8.87-3.27,16-3.24,32.26,1,39.13.33,23.06,1,33.26-4.58S98.67,34,100,32.65c1.11,1.11.78,3.11,4.11,3.44s-1.44-8.87-1.44-8.87l-99.12,11Z" transform="translate(1.53 0.78)"/></g><path class="cls-2" d="M57.48,113.56s10.79,2.9,16-2.44a117.29,117.29,0,0,0,12.19-14,64.27,64.27,0,0,1,11-12.61c4.64-4,9.83-8.23,12.27-12.5S113,65.35,118,60.41s5.69-5,7-10.35,1.89-11.41-1.94-16.3Z" transform="translate(1.53 0.78)"/><path class="cls-3" d="M57.24,113.33s.81-8.48,3.9-11.35,42.93-42.69,46.46-47.92,8.47-20.2,8.74-23.34c1.71-1.12,6.13,1,7,3.66s2.46,7.33.5,12.54S108,71.78,97.06,82.14s-24.72,27-27.57,28.55S59.56,111.26,57.24,113.33Z" transform="translate(1.53 0.78)"/><path class="cls-2" d="M73.1,97.93a4.25,4.25,0,1,1-6,.1A4.26,4.26,0,0,1,73.1,97.93Z" transform="translate(1.53 0.78)"/><path class="cls-2" d="M79.58,91.25a4.24,4.24,0,1,1-6,.09A4.24,4.24,0,0,1,79.58,91.25Z" transform="translate(1.53 0.78)"/><path class="cls-2" d="M87.61,83a4.24,4.24,0,1,1-6,.09A4.25,4.25,0,0,1,87.61,83Z" transform="translate(1.53 0.78)"/><path class="cls-2" d="M95,75.33a4.24,4.24,0,1,1-6,.09A4.25,4.25,0,0,1,95,75.33Z" transform="translate(1.53 0.78)"/><path class="cls-2" d="M101.26,68.41a4.25,4.25,0,1,1-6,.09A4.24,4.24,0,0,1,101.26,68.41Z" transform="translate(1.53 0.78)"/><path class="cls-2" d="M108.76,61.16a4.25,4.25,0,1,1-6,.09A4.25,4.25,0,0,1,108.76,61.16Z" transform="translate(1.53 0.78)"/><path class="cls-2" d="M115.6,52.2a4.24,4.24,0,1,1-6,.09A4.25,4.25,0,0,1,115.6,52.2Z" transform="translate(1.53 0.78)"/><path class="cls-2" d="M121,42a4.24,4.24,0,1,1-6,.09A4.23,4.23,0,0,1,121,42Z" transform="translate(1.53 0.78)"/><g class="cls-6"><path class="cls-5" d="M56.43,111.46s9.65.25,11.73-1.59,9.14-9.08,10.9-12,3.56-4,6.87-7.09,9-8.85,10.19-11.19,12.93-13.88,15.4-17.11,11.54-20.32,11.22-21.86.26-2.22,2.79-4.79,6.87,24.66-55.21,76.73C63.56,116.06,53.73,117.7,56.43,111.46Z" transform="translate(1.53 0.78)"/><path class="cls-5" d="M57.77,111.83s3.82-8.65,8.78-13.72S89.7,75.62,94,70.25,110.81,54.4,113.9,43.18,117,33.85,117,32c1.56,0,2.76,1.6,5.32-.55s-7.37-5.14-7.37-5.14L53.85,105.11Z" transform="translate(1.53 0.78)"/></g><path class="cls-2" d="M149.27,126S159,120.53,159,113.1a117.87,117.87,0,0,0-1-18.55,64.56,64.56,0,0,1-.89-16.71c.56-6.09,1.33-12.75.11-17.51s-1.66-7.65-1.55-14.64.62-7.54-2.18-12.3S146.93,23.88,140.78,23Z" transform="translate(1.53 0.78)"/><path class="cls-3" d="M148.94,126s-5.32-6.65-5.1-10.86,1.1-60.54,0-66.75-8-20.4-10-22.84c.45-2,5.1-3.54,7.54-2.21s6.87,3.54,9.09,8.64,6,28.83,5.32,43.91,1,36.58.08,39.69S149.16,122.86,148.94,126Z" transform="translate(1.53 0.78)"/><path class="cls-2" d="M149.6,103.87a4.25,4.25,0,1,1-4.24,4.24A4.24,4.24,0,0,1,149.6,103.87Z" transform="translate(1.53 0.78)"/><path class="cls-2" d="M149.6,94.55a4.25,4.25,0,1,1-4.24,4.25A4.25,4.25,0,0,1,149.6,94.55Z" transform="translate(1.53 0.78)"/><path class="cls-2" d="M149.6,83a4.25,4.25,0,1,1-4.24,4.25A4.25,4.25,0,0,1,149.6,83Z" transform="translate(1.53 0.78)"/><path class="cls-2" d="M149.6,72.38a4.25,4.25,0,1,1-4.24,4.24A4.24,4.24,0,0,1,149.6,72.38Z" transform="translate(1.53 0.78)"/><path class="cls-2" d="M149.27,63.07A4.25,4.25,0,1,1,145,67.31,4.24,4.24,0,0,1,149.27,63.07Z" transform="translate(1.53 0.78)"/><path class="cls-2" d="M149.6,52.64a4.25,4.25,0,1,1-4.24,4.25A4.25,4.25,0,0,1,149.6,52.64Z" transform="translate(1.53 0.78)"/><path class="cls-2" d="M148.27,41.45A4.25,4.25,0,1,1,144,45.69,4.24,4.24,0,0,1,148.27,41.45Z" transform="translate(1.53 0.78)"/><path class="cls-2" d="M145,30.36a4.25,4.25,0,1,1-4.25,4.24A4.24,4.24,0,0,1,145,30.36Z" transform="translate(1.53 0.78)"/><g class="cls-7"><path class="cls-5" d="M147.05,125.18s7.1-6.54,7.32-9.31.24-12.88-.52-16.19-.19-5.32,0-9.86.31-12.64-.47-15.14-.39-19-.86-23-5.86-22.62-7.16-23.51S144,26.41,144,22.8s22.09,12.91,13.78,93.51C155.37,123.52,149.46,131.54,147.05,125.18Z" transform="translate(1.53 0.78)"/><path class="cls-5" d="M148.27,124.52s-3.27-8.87-3.24-16,1-32.26.33-39.13,1-23.06-4.58-33.26-4.26-8.87-5.59-10.2c1.11-1.11,3.11-.78,3.44-4.11s-8.87,1.45-8.87,1.45l11,99.11Z" transform="translate(1.53 0.78)"/></g><path class="cls-2" d="M216.1,68.48s2.9-10.78-2.44-16a117.29,117.29,0,0,0-14-12.19,64.27,64.27,0,0,1-12.61-11c-4-4.64-8.23-9.83-12.5-12.27S167.89,12.93,163,8,158,2.3,152.6,1,141.19-.9,136.3,2.93Z" transform="translate(1.53 0.78)"/><path class="cls-3" d="M215.87,68.72s-8.48-.81-11.35-3.9S161.83,21.89,156.6,18.36s-20.2-8.47-23.34-8.74c-1.12-1.71,1-6.13,3.66-6.95s7.33-2.47,12.54-.51,24.86,15.77,35.22,26.74,27,24.72,28.55,27.58S213.8,66.4,215.87,68.72Z" transform="translate(1.53 0.78)"/><path class="cls-2" d="M200.47,52.86a4.25,4.25,0,1,1,.1,6A4.26,4.26,0,0,1,200.47,52.86Z" transform="translate(1.53 0.78)"/><path class="cls-2" d="M193.79,46.38a4.24,4.24,0,1,1,.09,6A4.25,4.25,0,0,1,193.79,46.38Z" transform="translate(1.53 0.78)"/><path class="cls-2" d="M185.51,38.35a4.24,4.24,0,1,1,.09,6A4.25,4.25,0,0,1,185.51,38.35Z" transform="translate(1.53 0.78)"/><path class="cls-2" d="M177.87,30.94a4.24,4.24,0,1,1,.09,6A4.25,4.25,0,0,1,177.87,30.94Z" transform="translate(1.53 0.78)"/><path class="cls-2" d="M171,24.7a4.25,4.25,0,1,1,.09,6A4.25,4.25,0,0,1,171,24.7Z" transform="translate(1.53 0.78)"/><path class="cls-2" d="M163.7,17.21a4.25,4.25,0,1,1,.09,6A4.24,4.24,0,0,1,163.7,17.21Z" transform="translate(1.53 0.78)"/><path class="cls-2" d="M154.74,10.37a4.24,4.24,0,1,1,.09,6A4.24,4.24,0,0,1,154.74,10.37Z" transform="translate(1.53 0.78)"/><path class="cls-2" d="M144.52,5a4.24,4.24,0,1,1,.09,6A4.24,4.24,0,0,1,144.52,5Z" transform="translate(1.53 0.78)"/><g class="cls-8"><path class="cls-5" d="M214,69.53s.25-9.64-1.59-11.73-9.08-9.14-12-10.9-4-3.56-7.09-6.86-8.85-9-11.19-10.2S168.27,16.91,165,14.44,144.72,2.9,143.18,3.22,141,3,138.39.43s24.66-6.87,76.73,55.21C218.6,62.41,220.24,72.23,214,69.53Z" transform="translate(1.53 0.78)"/><path class="cls-5" d="M214.38,68.19s-8.65-3.82-13.73-8.78-22.49-23.15-27.86-27.48-15.85-16.78-27.07-19.87S136.39,9,134.51,9c0-1.56,1.6-2.76-.55-5.32S128.82,11,128.82,11l78.83,61.09Z" transform="translate(1.53 0.78)"/></g></g></g></g></svg>
