<svg xmlns="http://www.w3.org/2000/svg" viewBox="0 0 111.43 101.65"><defs><style>.cls-1{fill:#bad657;}.cls-2{fill:#af6837;}.cls-3{fill:#eaa678;}.cls-4{fill:#8aa03b;}.cls-5{fill:#ce754e;}.cls-6{fill:#7b8741;}.cls-7{fill:#c3875f;}.cls-8{fill:#c3d86a;}.cls-9{fill:#d58c64;}.cls-10{fill:#b4cd44;}.cls-11{fill:#ad775a;}</style></defs><g id="Layer_2" data-name="Layer 2"><g id="Layer_1-2" data-name="Layer 1"><g id="Pistachios"><path class="cls-1" d="M24.56,75.66c0,9.26-4.36,16.76-9.73,16.76s-9.72-7.5-9.72-16.76S9.46,58.9,14.83,58.9,24.56,66.4,24.56,75.66Z"/><path class="cls-2" d="M5.38,79.65s13.25-3.91,15.37,0S16,92.25,16,92.25Z"/><path class="cls-3" d="M14.83,89.94c-.45-5-6.11-23-9-31.78C2.3,62.58,0,69.57,0,77.43c0,13.38,6.66,24.22,14.88,24.22S29.76,90.81,29.76,77.43c0-8.38-2.62-15.77-6.6-20.12C18.24,66.07,14.83,84,14.83,89.94Z"/><path class="cls-4" d="M66.83,19.21c0,9.26-4.35,16.77-9.72,16.77s-9.73-7.51-9.73-16.77S51.74,2.45,57.11,2.45,66.83,10,66.83,19.21Z"/><path class="cls-2" d="M47.66,28.64s13.24-3.9,15.37,0-4.79,12.6-4.79,12.6Z"/><path class="cls-5" d="M57.11,32.63c-.45-5-6.11-23-9-31.78-3.57,4.42-5.87,11.41-5.87,19.27,0,13.37,6.66,24.22,14.88,24.22S72,33.49,72,20.12C72,11.74,69.42,4.35,65.44,0,60.52,8.76,57.11,26.7,57.11,32.63Z"/><path class="cls-6" d="M66.88,75.66c0,9.26-4.35,16.76-9.72,16.76s-9.73-7.5-9.73-16.76S51.79,58.9,57.16,58.9,66.88,66.4,66.88,75.66Z"/><path class="cls-2" d="M49.22,79.65s13.24-3.91,15.37,0-4.79,12.6-4.79,12.6Z"/><path class="cls-7" d="M57.16,89.94c-.45-5-6.11-23-9-31.78-3.57,4.42-5.88,11.41-5.88,19.27,0,13.38,6.67,24.22,14.89,24.22S72.09,90.81,72.09,77.43c0-8.38-2.62-15.77-6.6-20.12C60.56,66.07,57.16,84,57.16,89.94Z"/><path class="cls-8" d="M104.62,18.35c0,9.26-4.36,16.76-9.73,16.76s-9.72-7.5-9.72-16.76S89.52,1.58,94.89,1.58,104.62,9.09,104.62,18.35Z"/><path class="cls-2" d="M85.45,24.81s13.24-3.91,15.37,0S96,37.41,96,37.41Z"/><path class="cls-9" d="M94.89,32.63c-.45-5-6.11-23-9-31.78-3.56,4.42-5.87,11.41-5.87,19.27,0,13.37,6.66,24.22,14.88,24.22s14.88-10.85,14.88-24.22c0-8.38-2.62-15.77-6.6-20.12C98.3,8.76,94.89,26.71,94.89,32.63Z"/><path class="cls-10" d="M106.23,75.17c0,9.25-4.36,16.76-9.73,16.76s-9.72-7.51-9.72-16.76S91.13,58.4,96.5,58.4,106.23,65.91,106.23,75.17Z"/><path class="cls-3" d="M87.05,82.12s13.24-3.9,15.37,0-4.79,12.6-4.79,12.6Z"/><path class="cls-11" d="M96.5,89.94c-.45-5-6.11-23-9-31.78C84,62.58,81.67,69.57,81.67,77.43c0,13.38,6.66,24.22,14.88,24.22s14.88-10.84,14.88-24.22c0-8.38-2.62-15.77-6.6-20.12C99.91,66.07,96.5,84,96.5,89.94Z"/><path class="cls-1" d="M25,18.35c0,9.26-4.36,16.76-9.73,16.76s-9.72-7.5-9.72-16.76S9.92,1.58,15.29,1.58,25,9.09,25,18.35Z"/><path class="cls-2" d="M5.85,20.85S21.47,2.33,23.6,6.23s-7.17,27.22-7.17,27.22Z"/><path class="cls-7" d="M15.29,32.63c-.45-5-6.11-23-9-31.78C2.76,5.27.46,12.26.46,20.12c0,13.37,6.66,24.22,14.88,24.22S30.22,33.49,30.22,20.12c0-8.38-2.62-15.77-6.6-20.12C18.7,8.76,15.29,26.7,15.29,32.63Z"/></g></g></g></svg>
