<svg xmlns="http://www.w3.org/2000/svg" xmlns:xlink="http://www.w3.org/1999/xlink" viewBox="0 0 312.53 277.65"><defs><style>.cls-1{fill:none;}.cls-2,.cls-5{fill:#fbefef;}.cls-3{fill:#d8848a;}.cls-4{clip-path:url(#clip-path);}.cls-5{opacity:0.5;}.cls-6{clip-path:url(#clip-path-2);}</style><clipPath id="clip-path" transform="translate(9.87 16.33)"><path class="cls-1" d="M69,50.34c-1.26,1.48-1,3,1.33,7.67S79.67,69.34,80,77.34s3.67,22,15.33,21.33,62,6.67,94,14.34,79.34-20,89.34-31.34,13.66-10,14-23.66,1-36.34-11.34-41.34S236.67-.33,219.67,0s-27-.67-42.67,3.66S123,22.34,104.33,32,75.46,42.77,69,50.34Z"/></clipPath><clipPath id="clip-path-2" transform="translate(9.87 16.33)"><path class="cls-1" d="M223.8,194.66c1.26-1.48,1-3-1.33-7.67s-9.34-11.33-9.67-19.33-3.67-22-15.33-21.33-62-6.67-94-14.34-79.34,20-89.34,31.34S.47,173.33.13,187s-1,36.34,11.34,41.34,44.66,17,61.66,16.66,27,.67,42.67-3.66,54-18.67,72.67-28.34S217.34,202.23,223.8,194.66Z"/></clipPath></defs><g id="Layer_2" data-name="Layer 2"><g id="Layer_1-2" data-name="Layer 1"><g id="Pork"><path class="cls-2" d="M78,46l7.67,16S27,82.67,26.33,90L18,69.67Z" transform="translate(9.87 16.33)"/><path class="cls-3" d="M69,50.34c-1.26,1.48-1,3,1.33,7.67S79.67,69.34,80,77.34s3.67,22,15.33,21.33,62,6.67,94,14.34,79.34-20,89.34-31.34,13.66-10,14-23.66,1-36.34-11.34-41.34S236.67-.33,219.67,0s-27-.67-42.67,3.66S123,22.34,104.33,32,75.46,42.77,69,50.34Z" transform="translate(9.87 16.33)"/><g class="cls-4"><path class="cls-5" d="M68.25,55.34s29.08-22,36.08-19,8-.5,7.67,3.75c3.33-.75,6.3-4.08,3.32,4.58S109,62.34,113.67,71s7.33,11,14,13.33c-3.34-6-15.37-21.33-12.35-28s.68-16,6-17,11-11.67,31.34-11S204,14.34,210.33,13s21-9.67,39-3.67S280,22,281.67,31s1.33,10.65,6.66,17.15,14.34,0,14.34,0L268-16.33H185.67L130,4,67.67,30Z" transform="translate(9.87 16.33)"/></g><path class="cls-2" d="M214.8,199l-7.67-16s58.67-20.66,59.34-28l8.33,20.34Z" transform="translate(9.87 16.33)"/><path class="cls-3" d="M223.8,194.66c1.26-1.48,1-3-1.33-7.67s-9.34-11.33-9.67-19.33-3.67-22-15.33-21.33-62-6.67-94-14.34-79.34,20-89.34,31.34S.47,173.33.13,187s-1,36.34,11.34,41.34,44.66,17,61.66,16.66,27,.67,42.67-3.66,54-18.67,72.67-28.34S217.34,202.23,223.8,194.66Z" transform="translate(9.87 16.33)"/><g class="cls-6"><path class="cls-5" d="M224.55,189.66s-29.08,22-36.08,19-8,.5-7.67-3.75c-3.33.75-6.3,4.08-3.32-4.58s6.32-17.67,1.65-26.34-7.33-11-14-13.33c3.34,6,15.37,21.33,12.35,28s-.68,16-6,17-11,11.67-31.34,11S88.8,230.66,82.47,232s-21,9.67-39,3.67S12.8,223,11.13,214,9.8,203.34,4.47,196.84s-14.34,0-14.34,0L24.8,261.33h82.33L162.8,241l62.33-26Z" transform="translate(9.87 16.33)"/></g></g></g></g></svg>
