<svg xmlns="http://www.w3.org/2000/svg" xmlns:xlink="http://www.w3.org/1999/xlink" viewBox="0 0 191.53 172.08"><defs><style>.cls-1{fill:none;}.cls-2{fill:#f9c7c7;}.cls-3{fill:#e55955;}.cls-4{clip-path:url(#clip-path);}.cls-5{clip-path:url(#clip-path-2);}</style><clipPath id="clip-path"><path class="cls-1" d="M50.13,88.42s3.21,7.91,4.8,11.78C56.3,101.12,62,110,65,113c2.74,1.82,11.24,3.79,12,7.13,2.12-.76,6.22-1.67,8.5-2.58,1.82-4.55,2.86-9.24,5.76-11.23.38-6.3,7.67-24.52,18.6-25.89S131,87.45,135.08,92.46s2,14.8-.45,21.86,1,16.3-1.89,21-13.59,14.51-17,17S100,164.42,89.54,164.42s-21.85.45-28.23-5-15.71-12.07-21.4-17.76S23.73,105.58,22.49,101,50.13,88.42,50.13,88.42Z"/></clipPath><clipPath id="clip-path-2"><path class="cls-1" d="M160.21,87.49s0-8.55,0-12.73c-.92-1.36-2.86-11.73-4.49-15.59-1.85-2.71-9-7.73-8.44-11.11-2.25-.1-6.39-.79-8.84-.81-3.4,3.54-6.14,7.5-9.56,8.24-2.73,5.7-16.32,19.85-27,17S84.92,58,83,51.82s3.67-14.49,8.64-20.09S96.82,16.25,101.28,13s18-8.34,22.16-9.38,19.09-5.28,28.8-1.34S172.67,10,176.52,17.5s10,17.08,13.17,24.5,1.44,39.5.86,44.22S160.21,87.49,160.21,87.49Z"/></clipPath></defs><g id="Layer_2" data-name="Layer 2"><g id="Layer_1-2" data-name="Layer 1"><g id="Shrimp"><path class="cls-2" d="M50.13,88.42s3.21,7.91,4.8,11.78C56.3,101.12,62,110,65,113c2.74,1.82,11.24,3.79,12,7.13,2.12-.76,6.22-1.67,8.5-2.58,1.82-4.55,2.86-9.24,5.76-11.23.38-6.3,7.67-24.52,18.6-25.89S131,87.45,135.08,92.46s2,14.8-.45,21.86,1,16.3-1.89,21-13.59,14.51-17,17S100,164.42,89.54,164.42s-21.85.45-28.23-5-15.71-12.07-21.4-17.76S23.73,105.58,22.49,101,50.13,88.42,50.13,88.42Z"/><path class="cls-3" d="M38.31,63.09,44.23,54s-1.14-2.5,2.05-8.88,6.65-33.88,7-42.67S39.5,11,37.77,17.91C36.26,15,35.12,8.9,34.9,4.57,34.9.47,23.74,11.63,24.19,18s-3.14,11-2.36,15.85c-2.64-2.64-6.58-10.67-6.09-12.92S13,14.56,9.15,15.71,7.57,19.14,7.34,22.1-4.95,26.2,2.34,38,12.81,59,15.77,62c-2,3,5,35.52,8.65,45.09,4.78-5.24,25.73-18.9,27.78-13.21C48.33,82.67,38.31,63.09,38.31,63.09Z"/><g class="cls-4"><path class="cls-3" d="M73.83,112.73c-1.36,1.82-10.93,11.38-16.62,18.9s3.19,15,11.16,21.63c-12.07-3.87-17.08-13-16.4-16.4,2.28-2.73,1.83-6.37,2.05-12.52a12.64,12.64,0,0,0-3.64-9.56s4.1,5,8,5.69S70.42,113,70.42,113,75.2,110.91,73.83,112.73Zm4.78,2s6.61,8.42,3.19,15.94S80.09,144.27,86,149.79s10.65,6.2,15.89,5.06c1.82-3.19,0-5,0-5s-8,1.6-12.75-5-5.24-12.52-2.73-15.93-2.74-15-5.24-16.63S78.61,114.78,78.61,114.78Zm57.23,18.51s-3.72-1.44-11.91-.52-13.21,4.55-17.54-1.6-3.41-6.6-5.23-10.7-3.09,3.54.62,10.77,7.35,8.58,12.58,7.9,17.91-7.6,20.11-4.48S135.84,133.29,135.84,133.29Zm7.5-31.2s-18.73,14-28.63,7.34l-9.91-6.72,2,8s7.29,5.92,10.7,8.42,10.37-7.39,11.68-2.89,9.84,4.15,9.84,4.15Z"/></g><path class="cls-2" d="M160.21,87.49s0-8.55,0-12.73c-.92-1.36-2.86-11.73-4.49-15.59-1.85-2.71-9-7.73-8.44-11.11-2.25-.1-6.39-.79-8.84-.81-3.4,3.54-6.14,7.5-9.56,8.24-2.73,5.7-16.32,19.85-27,17S84.92,58,83,51.82s3.67-14.49,8.64-20.09S96.82,16.25,101.28,13s18-8.34,22.16-9.38,19.09-5.28,28.8-1.34S172.67,10,176.52,17.5s10,17.08,13.17,24.5,1.44,39.5.86,44.22S160.21,87.49,160.21,87.49Z"/><path class="cls-3" d="M161.65,115.4l-8.91,6.21s.12,2.75-5.23,7.46S128.62,158,125,166s16-2.77,20.17-8.53c.31,3.22-.94,9.35-2.36,13.44-1.54,3.8,13-2.35,15-8.43s7-9,8.14-13.8c1.46,3.45,2.09,12.37.8,14.27s.13,6.93,4.14,7.31,2.75-2.59,4.07-5.25,12.94.83,10.63-12.89-1.83-23.34-3.47-27.2c3-2,8.71-34.8,8.92-45-6.39,3.06-30.94,7.85-30.7,1.8C159.72,93.48,161.65,115.4,161.65,115.4Z"/><g class="cls-5"><path class="cls-3" d="M147.38,56.05c2-1.18,14.41-6.44,22.51-11.27s2.69-15.13-2.22-24.24c9.73,8.12,11,18.44,9,21.35-3.14,1.68-4.09,5.23-6.61,10.84A12.65,12.65,0,0,0,169.89,63s-1.92-6.18-5.25-8.27-14,2.43-14,2.43S145.43,57.22,147.38,56.05Zm-3.66-3.7s-2.95-10.28,3-16,6.68-11.91,3.32-19.23S142.53,7.4,137.25,6.49c-2.88,2.27-1.88,4.64-1.88,4.64s8,1.52,9.94,9.43.14,13.58-3.46,15.8-3.11,15-1.39,17.37S143.72,52.35,143.72,52.35ZM97.64,13.7s2.91,2.72,10.85,5,13.94.74,15.64,8.06.69,7.41.84,11.89,4.19-2.12,3.47-10.21-3.59-10.72-8.7-12.06-19.44.32-20.32-3.4S97.64,13.7,97.64,13.7ZM79,39.8s22.64-6,29.29,4l6.66,10L116,45.54s-4.52-8.22-6.75-11.82-12.39,3-11.91-1.7-7.56-7.55-7.56-7.55Z"/></g></g></g></g></svg>
