<svg xmlns="http://www.w3.org/2000/svg" xmlns:xlink="http://www.w3.org/1999/xlink" viewBox="0 0 318.45 200.68"><defs><style>.cls-1{fill:none;}.cls-2{fill:#b42025;}.cls-3,.cls-7{opacity:0.8;}.cls-4,.cls-7{fill:#fff;}.cls-5{fill:#991c1f;}.cls-6{clip-path:url(#clip-path);}</style><clipPath id="clip-path" transform="translate(0 0.69)"><path class="cls-1" d="M12.61,76.37S1.34,82.81,3.22,92.48s5.64,29.8,12.89,36.25,14.23,7.52,15.3,19.87,16.38,37.86,35.18,38.13,54-2.42,64.71-9.67,40-25.51,49.94-28.46c0,0,35.17.53,52.63-5.91s43,3.51,62.56-11.13S308,97,307.44,85.77s-8.59-11.55-12.89-27.66S255.35,7.63,218.29,3.87s-74.91,5.1-109.82,18-59.07,25-74.11,33.56c-9.29.49-16.64,5.64-23.09,6.45C10,66.14,10.23,70.74,12.61,76.37Z"/></clipPath></defs><g id="Layer_2" data-name="Layer 2"><g id="Layer_1-2" data-name="Layer 1"><g id="Steak"><path class="cls-2" d="M18.72,126.34c.41,4.64,6.33,16.2,8.28,30.07C30,177.74,59.52,197.8,71.27,198c18.79.27,54-2.42,64.71-9.67s40-25.51,49.94-28.46c0,0,35.18.53,52.63-5.91s43,3.51,62.56-11.13,7.95-34.1,7.41-45.37Z" transform="translate(0 0.69)"/><g class="cls-3"><path class="cls-4" d="M308.52,97.42c.54,11.28,12.19,30.73-7.41,45.38-10.72,8-23.21,8.66-35.18,8.66-2.32,0-4.62,0-6.88,0-7.41,0-14.44.26-20.5,2.5-15,5.52-43,5.92-50.63,5.92h-2c-9.93,2.95-39.2,21.21-49.94,28.46C125.72,195.22,93.18,198,73.9,198H71.27C59.52,197.8,30,177.74,27,156.41c-1.95-13.87-7.87-25.43-8.28-30.07l289.8-28.92m1.9-2.19-2.1.2L18.52,124.35l-2,.2.17,2c.18,2.07,1.18,4.93,2.56,8.88,1.93,5.51,4.58,13.06,5.73,21.29.81,5.77,4.43,17.34,19.55,30C54,194.52,64.71,199.87,71.24,200H73.9a282.19,282.19,0,0,0,34.68-2.26c14-1.84,23.62-4.46,28.52-7.76,10.43-7.05,39.15-25,49.11-28.12h1.71c8.2,0,36.14-.44,51.32-6,5.94-2.19,13-2.38,19.81-2.38h3.39l3.49,0c12.27,0,25.19-.7,36.38-9.06,16.08-12,12.46-27.24,9.81-38.36a53.11,53.11,0,0,1-1.6-8.71l-.1-2.1Z" transform="translate(0 0.69)"/></g><path class="cls-5" d="M12.61,76.37S1.34,82.81,3.22,92.48s5.64,29.8,12.89,36.25,14.23,7.52,15.3,19.87,16.38,37.86,35.18,38.13,54-2.42,64.71-9.67,40-25.51,49.94-28.46c0,0,35.17.53,52.63-5.91s43,3.51,62.56-11.13S308,97,307.44,85.77s-8.59-11.55-12.89-27.66S255.35,7.63,218.29,3.87s-74.91,5.1-109.82,18-59.07,25-74.11,33.56c-9.29.49-16.64,5.64-23.09,6.45C10,66.14,10.23,70.74,12.61,76.37Z" transform="translate(0 0.69)"/><g class="cls-3"><path class="cls-4" d="M200.75,3a174.13,174.13,0,0,1,17.54.87c37.06,3.76,72,38.13,76.26,54.24s12.35,16.38,12.89,27.66,8.59,31.14-11,45.79c-10.72,8-23.21,8.66-35.19,8.66-2.31,0-4.61,0-6.87,0-7.42,0-14.45.26-20.5,2.5-15,5.52-43,5.92-50.63,5.92h-2c-9.94,3-39.2,21.21-49.94,28.46C121,184,88.49,186.74,69.22,186.74H66.59c-18.8-.27-34.11-25.78-35.18-38.13s-8-13.43-15.3-19.87S5.1,102.15,3.22,92.48s9.39-16.11,9.39-16.11c-2.38-5.63-2.64-10.23-1.34-14.5,6.45-.81,13.8-6,23.09-6.45,15-8.59,39.21-20.67,74.11-33.56C137.89,11,169.39,3,200.75,3m0-3c-28.08,0-58.61,6.23-93.32,19.05-35.59,13.14-59.77,25.37-74,33.43C28,52.89,23.19,54.75,19,56.39a37,37,0,0,1-8,2.5L9,59.13,8.4,61A22.51,22.51,0,0,0,9,75.21C5.32,77.92-1.44,84.26.27,93.05l.14.72c1,4.94,2.41,12.41,4.52,19.42C7.58,122,10.59,127.84,14.11,131a60.81,60.81,0,0,0,5.58,4.3c4.84,3.44,8,5.72,8.73,13.59,1.24,14.18,17.79,40.57,38.12,40.87h2.68c19.55,0,52.67-2.71,63.75-10.19,10.35-7,38.73-24.72,48.71-28h1.56c8.24,0,36.33-.44,51.67-6.11,5.78-2.13,12.78-2.31,19.46-2.31h3.38l3.49,0c12.45,0,25.55-.72,37-9.26,17.35-13,14.76-30.12,13-41.46-.38-2.53-.74-4.91-.83-6.88-.32-6.58-2.92-10.05-5.67-13.71a37.93,37.93,0,0,1-7.32-14.57c-2.45-9.19-13-22.27-26.87-33.33C261,16.37,241.49,3.21,218.6.89A177,177,0,0,0,200.75,0Z" transform="translate(0 0.69)"/></g><g class="cls-6"><path class="cls-7" d="M137.2,1.45a133.29,133.29,0,0,1-.26,13.7c5.63-4.57,16.37-3,16.37-3s-1.07,3.23.27,4.84c40.82,5.64,70.35,30.07,70.35,30.07l-.8,2.95L228,52.47,226.08,56l3.49,4.3s-1.61,0-7-3.49C172.65-9.29,53.7,43.07,53.7,43.07Zm10.74,3.49-3.22,3.5,10.74,1.88S188.22,2,206.75,4.94s39.2,8.87,47.52,14,28.2,20.14,31.15,26.85,9.4,18.53,10.2,26c2.42,6.45,5.64,7,7.52,13.16s2.42,22.56,4.3,27.93,11,5.63,11,5.63L307.71,70.46,279,26.69l-44-22.38-48.87-5ZM27.65,143.23c2.15-3.49,20.68.8,20.68.8S47,150.75,48.06,154s7.25,6.44,11.81,8.05c-2.95-3.22-8-8.05-8.86-9.13s1.08-8,1.08-8l3.76,3.49s8-.27,13.42-3c-7.79-3-46.18-9.13-46.18-9.13S25.5,146.72,27.65,143.23ZM75.18,143s-1.61,6.44,0,7.52a4.2,4.2,0,0,0,1.07-3.76s13.43-1.88,18.53,2.41c4-1.61,33.29-7.24,36-4.56a57.86,57.86,0,0,0,2.15-6.18l-5.1,3.76-.54-3.76L120,141.62l-.54-3.23-10.74,4.84-8.32-3,.27,4.17S79.47,143,75.18,143ZM121.9,74.22s2.15,8.32,6.71,13.43c-1.34-2.15,3.49-12.36,6.45-14.77-4.84,1.88-7.25,9.13-7.25,9.13l-3.23-7.79Zm83.37,23.21-12,19.73s11,12,25,0-4,4.58-12.5-1-4.5,6.33-2.5-6.2Z" transform="translate(0 0.69)"/></g></g></g></g></svg>
