<svg width="50" height="56" viewBox="0 0 50 56" fill="none" xmlns="http://www.w3.org/2000/svg">
<path fill-rule="evenodd" clip-rule="evenodd" d="M22.7196 0.373047C30.2529 0.373047 37.073 3.47311 42.0098 8.48522C46.9465 13.4973 50 20.4215 50 28.0697C50 35.718 46.9465 42.6422 42.0098 47.6543C37.073 52.6664 30.2529 55.7665 22.7196 55.7665C18.1484 55.7665 13.8398 54.625 10.0552 52.6075L9.97277 52.5633L10.0266 52.5747C10.3752 52.6449 10.6835 52.6531 10.9623 52.6085L11.0261 52.5973C11.7499 52.4583 12.2843 51.9572 12.6588 51.2479C13.7128 49.252 13.4768 45.5949 12.8736 44.2931C12.4943 43.4745 11.7275 42.3536 10.8196 41.0287C8.54292 37.7061 5.36083 33.0823 5.31313 28.7247L5.31269 28.6317C5.74006 30.1082 6.74693 33.3837 8.06514 35.7741L8.12916 35.8891C8.59747 36.7216 9.10457 37.4392 9.63686 37.9289C10.1246 38.3776 10.6351 38.6355 11.1556 38.6355C12.8742 38.6355 15.6298 39.8545 18.4511 41.123L18.7591 41.2615L19.1661 41.4445C21.4042 42.4497 23.6324 43.4282 25.3769 43.8191C27.4746 44.2893 31.0276 43.8085 34.223 42.8765C37.4056 41.9482 40.2175 40.5668 40.9282 39.2592C40.9666 39.1885 41.0019 39.1125 41.0334 39.0316C40.9545 39.0425 40.876 39.0525 40.7978 39.0616C35.7898 39.6438 28.3048 36.973 23.9472 33.7174L23.8161 33.6186L23.6848 33.5177L23.5547 33.4182C21.0191 31.5046 19.3839 31.7974 17.7532 32.0905L17.5523 32.1265C16.5138 32.3109 15.4608 32.4586 14.1449 31.9493C13.4063 31.6635 12.97 31.2816 12.7116 30.8306C12.3579 30.2132 12.3323 29.4739 12.2994 28.6995L12.292 28.5293C12.2409 27.3915 12.1352 26.1943 11.092 25.1616C11.605 25.3218 11.954 25.578 12.1953 25.8998C12.5948 26.4328 12.7045 27.1354 12.7942 27.8519L12.8195 28.0568C12.9512 29.1273 13.0974 30.1903 13.9736 30.8299C14.6091 31.2939 15.6367 31.5407 17.3545 31.3798C18.1742 31.3031 18.85 31.2123 19.4369 31.1335C21.3598 30.8753 22.3123 30.7446 24.2982 31.692L24.4237 31.7526L24.6731 31.8751C26.0504 32.5343 27.9074 33.0153 30.0336 33.4277L30.2471 33.4688L30.3534 36.7204C31.2294 36.1514 31.7789 35.1741 31.9873 33.779L32.289 33.8295L32.5931 33.8796L32.9676 33.9404L33.7253 34.0612L35.0837 34.273C35.386 35.659 35.4937 36.6986 35.4011 37.3918C35.3909 37.4684 35.3772 37.5485 35.36 37.6319C35.4379 37.6025 35.515 37.5683 35.5912 37.5291C36.0619 37.2875 36.405 36.9092 36.6193 36.393C36.8194 35.9109 36.9064 35.3058 36.876 34.5766C37.4807 34.6369 38.0484 34.7022 38.6176 34.7517C38.9496 36.2917 39.1165 37.5026 39.1165 38.3844C39.1165 38.4803 39.1145 38.58 39.1107 38.6835C39.1938 38.618 39.2705 38.5501 39.3408 38.4797C39.9896 37.8303 40.4409 36.6277 40.678 34.8611C41.0326 34.8681 41.3879 34.8691 41.7438 34.864C41.9193 36.5085 42.0072 37.8144 42.0072 38.7818C42.0072 38.9191 42.0054 39.0633 42.0019 39.2142C42.0913 39.0931 42.1738 38.9732 42.2496 38.8545C42.847 37.9183 43.3381 36.5578 43.7191 34.7714C44.1334 34.7227 44.4839 34.5679 44.8389 34.4089C45.1581 34.266 45.481 34.1199 45.8661 34.0612C46.9477 29.041 46.5084 24.5985 44.758 21.5005C43.9082 19.9965 42.7497 18.8077 41.2938 18.0314C39.9151 17.2962 38.2688 16.9306 36.3626 17.0212C33.2093 17.171 31.7209 16.0225 30.1161 14.7891C29.095 14.0043 28.0277 13.1858 26.4778 12.6272L26.3099 12.5683L26.1799 12.525L25.8399 12.4136C23.4173 11.6133 22.58 10.4494 21.8256 9.40198C21.1473 8.4601 20.531 7.61241 18.9775 7.17124C17.5029 6.75248 16.6973 7.30244 15.8611 7.94813L15.7518 8.03282L15.6574 8.10604C14.7256 8.82714 13.6775 9.56571 11.4451 8.96824L11.3306 8.93671L11.1909 8.89597C9.79597 8.5017 6.67436 8.10573 3.55797 9.74472C2.35491 10.3774 1.15184 11.3134 0.0497979 12.6712L0 12.733L0.0436608 12.6665C2.13223 9.50365 4.84574 6.80194 8.00474 4.74358L8.1987 4.61836C12.4037 1.92891 17.3827 0.373047 22.7196 0.373047ZM18.2062 4.65466C17.3921 4.65535 16.5769 4.83145 15.9719 5.10534C15.6607 5.24622 15.4044 5.41364 15.2281 5.59521C15.0426 5.78631 14.944 5.99444 15.0758 6.33952C15.7225 6.33952 16.2589 6.11228 16.7802 5.88822C17.2422 5.68961 17.6915 5.49275 18.2063 5.49275C18.752 5.49275 19.2844 5.71243 19.8035 5.92301C20.3283 6.13587 20.8402 6.33952 21.4686 6.20572C21.4686 5.99356 21.3701 5.7848 21.1847 5.59326C21.0085 5.41121 20.7524 5.24353 20.4411 5.10262C19.837 4.82912 19.0224 4.65397 18.2062 4.65466Z" fill="#E8CE49"/>
</svg>
