<?xml version="1.0" standalone="no"?>
<!DOCTYPE svg PUBLIC "-//W3C//DTD SVG 20010904//EN"
 "http://www.w3.org/TR/2001/REC-SVG-20010904/DTD/svg10.dtd">
<svg version="1.0" xmlns="http://www.w3.org/2000/svg"
 width="512.000000pt" height="512.000000pt" viewBox="0 0 512.000000 512.000000"
 preserveAspectRatio="xMidYMid meet">

<g transform="translate(0.000000,512.000000) scale(0.100000,-0.100000)"
fill="#000000" stroke="none">
<path d="M2315 5109 c-800 -83 -1501 -518 -1927 -1196 -487 -774 -516 -1777
-75 -2578 234 -426 603 -795 1023 -1022 281 -153 573 -247 909 -295 117 -16
512 -17 630 0 631 88 1152 360 1577 821 349 378 572 862 650 1406 17 118 17
512 0 630 -59 416 -191 769 -410 1099 -92 140 -185 254 -315 385 -399 404
-893 653 -1462 737 -123 18 -478 26 -600 13z m535 -153 c540 -68 1025 -302
1406 -681 373 -370 597 -806 691 -1345 26 -150 26 -577 0 -735 -58 -352 -185
-679 -375 -966 -375 -564 -928 -924 -1617 -1051 -165 -31 -602 -33 -765 -4
-287 50 -538 134 -760 252 -712 382 -1182 1078 -1270 1882 -16 144 -8 501 14
632 124 725 546 1336 1180 1710 244 144 599 267 861 299 50 6 101 13 115 15
70 10 418 4 520 -8z"/>
<path d="M3420 3579 c-83 -14 -174 -62 -239 -124 -100 -95 -157 -235 -168
-407 l-6 -98 -62 0 c-103 0 -120 -31 -113 -209 4 -127 14 -141 112 -148 l66
-6 0 -489 0 -489 25 -24 c24 -25 27 -25 200 -25 173 0 176 0 200 25 l25 24 0
496 0 495 103 0 c138 0 141 2 145 152 6 184 -4 198 -150 198 l-98 0 0 63 c0
80 15 133 46 164 23 23 31 25 92 20 37 -3 79 -9 94 -12 21 -6 32 -2 52 18 25
26 26 29 26 167 0 135 -1 142 -24 165 -13 13 -41 29 -62 35 -54 16 -198 21
-264 9z m208 -115 c20 -6 22 -12 22 -75 l0 -69 -52 0 c-73 0 -122 -16 -164
-52 -69 -61 -94 -148 -94 -330 l0 -108 125 0 125 0 0 -60 0 -60 -125 0 -125 0
0 -520 0 -520 -105 0 -105 0 0 520 0 520 -90 0 -90 0 0 60 0 59 88 3 87 3 6
155 c7 161 15 203 55 282 47 93 125 158 223 184 49 13 181 18 219 8z"/>
<path d="M2235 3439 c-197 -13 -363 -70 -511 -174 -76 -55 -199 -185 -243
-259 -149 -249 -172 -624 -57 -930 84 -222 275 -400 521 -484 128 -43 221 -57
395 -56 220 1 368 30 422 85 l28 27 0 145 c0 130 -2 146 -19 161 -26 24 -51
23 -146 -3 -114 -32 -287 -39 -389 -17 -281 63 -426 257 -426 571 0 378 212
580 590 561 125 -6 207 -24 282 -62 58 -30 92 -24 114 18 12 24 15 59 12 173
-4 168 -6 173 -102 204 -112 37 -285 52 -471 40z m380 -136 l70 -18 3 -79 c3
-72 1 -78 -15 -72 -131 51 -374 64 -516 27 -225 -59 -385 -218 -442 -441 -22
-87 -30 -258 -16 -350 16 -105 56 -219 100 -287 76 -118 230 -221 386 -259
115 -28 320 -23 458 11 l27 7 0 -75 0 -76 -77 -18 c-61 -14 -118 -18 -263 -18
-216 1 -294 16 -445 90 -203 99 -310 229 -381 460 -26 84 -28 102 -28 280 -1
216 8 263 74 400 116 240 345 394 645 434 101 14 336 5 420 -16z"/>
</g>
</svg>
