<?xml version="1.0" standalone="no"?>
<!DOCTYPE svg PUBLIC "-//W3C//DTD SVG 20010904//EN"
 "http://www.w3.org/TR/2001/REC-SVG-20010904/DTD/svg10.dtd">
<svg version="1.0" xmlns="http://www.w3.org/2000/svg"
 width="512.000000pt" height="512.000000pt" viewBox="0 0 512.000000 512.000000"
 preserveAspectRatio="xMidYMid meet">

<g transform="translate(0.000000,512.000000) scale(0.100000,-0.100000)"
fill="#000000" stroke="none">
<path d="M1085 4948 c-27 -5 -86 -27 -131 -48 -152 -73 -274 -232 -303 -394
-15 -83 -15 -3809 0 -3892 35 -194 186 -361 389 -430 53 -18 115 -19 1520 -19
1405 0 1467 1 1520 19 179 61 306 183 372 359 l23 62 3 1675 2 1674 -502 503
-503 503 -1170 -1 c-683 -1 -1191 -5 -1220 -11z m2275 -371 c0 -260 8 -313 60
-422 63 -133 169 -227 319 -284 63 -24 77 -25 324 -29 l257 -4 0 -1119 0
-1119 -1760 0 -1760 0 2 1448 3 1447 32 67 c17 37 50 87 72 111 44 48 135 101
197 116 22 5 519 9 1147 10 l1107 1 0 -223z m808 -575 c-18 -2 -103 -2 -188 0
-150 3 -157 4 -222 35 -93 44 -151 100 -196 191 l-37 76 -3 190 -3 191 341
-340 c333 -333 340 -340 308 -343z m150 -2969 l-3 -408 -32 -67 c-44 -93 -100
-151 -191 -196 l-76 -37 -1455 0 -1456 0 -67 32 c-93 44 -151 100 -196 191
l-37 76 -3 408 -3 408 1761 0 1761 0 -3 -407z"/>
<path d="M1760 3667 c-49 -16 -133 -102 -148 -153 -8 -26 -12 -112 -12 -233 0
-190 0 -192 -25 -216 -15 -16 -36 -25 -55 -25 -41 0 -80 -39 -80 -80 0 -41 39
-80 80 -80 19 0 40 -9 55 -25 25 -24 25 -26 25 -216 0 -230 6 -256 75 -324 75
-76 173 -98 220 -50 50 49 15 135 -55 135 -19 0 -40 9 -55 25 -25 24 -25 25
-25 218 0 199 -6 237 -42 290 -19 27 -19 27 0 55 36 52 42 90 42 289 0 193 0
194 25 218 15 16 36 25 55 25 41 0 80 39 80 80 0 67 -68 96 -160 67z"/>
<path d="M3225 3655 c-16 -15 -25 -36 -25 -55 0 -19 9 -40 25 -55 15 -16 36
-25 55 -25 19 0 40 -9 55 -25 25 -24 25 -25 25 -218 0 -199 6 -237 42 -289 19
-28 19 -28 0 -55 -36 -53 -42 -91 -42 -290 0 -193 0 -194 -25 -218 -15 -16
-36 -25 -55 -25 -41 0 -80 -39 -80 -80 0 -42 39 -80 81 -80 62 0 113 23 164
75 69 68 75 94 75 324 0 190 0 192 25 216 15 16 36 25 55 25 41 0 80 39 80 80
0 41 -39 80 -80 80 -19 0 -40 9 -55 25 -25 24 -25 26 -25 216 0 230 -6 256
-75 324 -75 76 -173 98 -220 50z"/>
<path d="M2505 3175 c-50 -49 -15 -135 55 -135 19 0 40 9 55 25 16 15 25 36
25 55 0 19 -9 40 -25 55 -15 16 -36 25 -55 25 -19 0 -40 -9 -55 -25z"/>
<path d="M2505 2855 c-50 -49 -15 -135 55 -135 19 0 40 9 55 25 16 15 25 36
25 55 0 19 -9 40 -25 55 -15 16 -36 25 -55 25 -19 0 -40 -9 -55 -25z"/>
<path d="M1924 1270 c-52 -16 -126 -73 -160 -123 -147 -213 -88 -530 118 -639
59 -31 177 -32 228 -2 43 25 58 61 41 102 -18 43 -53 56 -113 41 -41 -11 -53
-10 -82 3 -152 73 -152 383 0 456 29 13 41 14 82 3 60 -15 95 -2 113 41 28 67
-28 118 -134 124 -34 2 -76 -1 -93 -6z"/>
<path d="M2480 1267 c-49 -16 -133 -102 -148 -153 -28 -94 -8 -169 63 -239 51
-52 102 -75 164 -75 42 0 81 -38 81 -80 0 -19 -9 -40 -25 -55 -23 -24 -31 -25
-135 -25 -104 0 -112 -1 -135 -25 -16 -15 -25 -36 -25 -55 0 -19 9 -40 25 -55
23 -24 31 -25 136 -25 144 0 181 11 244 75 52 51 75 102 75 165 0 123 -116
240 -239 240 -71 0 -106 85 -56 135 23 24 31 25 135 25 104 0 112 1 135 25 16
15 25 36 25 55 0 19 -9 40 -25 55 -23 24 -29 25 -142 24 -65 -1 -134 -6 -153
-12z"/>
<path d="M3120 1267 c-49 -16 -133 -102 -148 -153 -28 -94 -8 -169 63 -239 51
-52 102 -75 164 -75 42 0 81 -38 81 -80 0 -19 -9 -40 -25 -55 -23 -24 -31 -25
-135 -25 -104 0 -112 -1 -135 -25 -33 -32 -33 -78 0 -110 23 -24 31 -25 136
-25 144 0 181 11 244 75 52 51 75 102 75 165 0 123 -116 240 -239 240 -42 0
-81 38 -81 80 0 19 9 40 25 55 23 24 31 25 135 25 104 0 112 1 135 25 16 15
25 36 25 55 0 19 -9 40 -25 55 -23 24 -29 25 -142 24 -65 -1 -134 -6 -153 -12z"/>
</g>
</svg>
