<svg xmlns="http://www.w3.org/2000/svg" viewBox="0 0 446.61 259.8"><g id="Layer_2" data-name="Layer 2"><g id="Layer_1-2" data-name="Layer 1"><path d="M340.39,221.89c20.84,11.85,44.71,12.41,68,13.4l.48,1.44c-7.59,8-18.27,13-27.72,18.46-10.54,5-22.73,4.89-34.22,4.36-21.89-1-45.49,4.16-64.45-9.49-10.5-6.3,10-11.82-3.43-20.31-7.61-5.46-7.61-5.46-3.58-13.85,3.12-6.67-8.4-14.47-9.73-4.59-2.55,9.2-1.39,19.3-8.65,26.57-2.21-2-4.95-3.58-6.52-6-7.84-15-13.58,9-21.91-12.52-6.32-11.14-13.07,1.64-17.2-16.9-4.21-12.7-17.8-.22-22.2-15.25-3.85-13.8-17.53-4.72-14.87-15.74,1.51-8.33,1.47-16.45-1.49-24.6-8.34-29.32-35.14-7.92-50.33,3.14l-1.51-1.14c3.92-13.57,33-28.36,33.66-40-.6-1.25-3.36-2.27-5-2.08-26.84,1.2-52.19,10.48-78.46,14.29l-.82-1.85c20.6-15.81,45.5-25.37,69.85-33.58C120.22,79.33,98.93,78,78.18,75c-23.35-2.39-46.85-3.33-70.26-5.21C5.2,69.52,2.64,67.32,0,66c2.29-1.35,4.47-3.61,6.9-3.92,46.48-5.67,92.95-10.48,139.55-1.79-28.68-39-67.24-46.5-110.79-57.5l.12-1.5c52.1-5.92,102.14,7.81,141.45,44.15A70.61,70.61,0,0,0,194,57.06c24.73,12.25,45.53,30,67.14,46.66,9.74,7.53,20,14.4,30.26,21.23,10.42,9,17.78-6,27.71-9,11.27-6.16,15.72,5.57,22.57,12.38,3.72,4.56,7.33,9.25,10.88,13.93,11.4,12.1,34.73,11.33,44.79-1.81,11.81-15.42,19.29-33,24.53-51.59,2.22-6.44,2-14,7.41-18.86,9.76,12.85.62,46.54-3.5,61.66-8.11,17.48-17.11,21.6,5.8,31.95,19.87,8.55,14.65,32.46,13.74,49.82-.57,3.79-8.7,20.12-12.48,10.5-4.8-15.55-20-4.73-28.59,1.13-15.06,11.81-15.27-11.9-39.35-7.35-8,1-16,1.37-24.08,2C340.68,220.47,340.53,221.18,340.39,221.89Zm-83.32-84.43,4.22-2.38c-4.71-6.85-12.6-10.11-15.24-18.66-3-7.06-8.06-12.43-14.65-16.53-8.86-5.7-16.73-13.08-25.77-18.53-1.12-.66-3.48.8-5.27,1.28,2.24,9.44,13.72,11,16,23.3C220.25,119.48,241.84,136.37,257.07,137.46ZM409,179.16c-2-27.33-22.48.4-28.8,9.41-2.12,2.83-.82,6.46,2.45,8.65C398.15,207,405.93,190.21,409,179.16Zm-67-17.32c.77-13-13.3-22.32-23.12-11.93-5.49,5.85-2.42,13.82,1.19,19.77C327.63,183.19,341.64,174.84,342,161.84ZM292.61,198.7c.13-7.78-9.33-16.75-12.28-7.46C279.72,199,287.79,205,292.61,198.7Zm71.45-16.45h-1.81c-3.92,4.59-1.65,6.06,1.85,9.55C370,188.51,366.11,186.48,364.06,182.25Z"/></g></g></svg>