<svg xmlns="http://www.w3.org/2000/svg" viewBox="0 0 344.56 236.15"><g id="Layer_2" data-name="Layer 2"><g id="Layer_1-2" data-name="Layer 1"><path d="M342.86,104.81c-10.43-22.56-2.21-52.34-33.64-61.07C254.13,29.48,198.87,10.4,142.71,2.32c-10.83,1.38-21.2,0-31.74-1.8-9.34-2.5-17,4.91-26.13,2.85C70.77,3.14,53.55-4.37,42.4,7.53,29.25,20.7,11.94,28.16,25.17,48.4c2.24,4.48,3.61,10.33,2.89,15.18C24.91,74.14,22.92,97.63,8.72,97.82c-18.83,2.87-2.52,27.05,5.62,34.09,38.23,32.92,79.91,70.22,131.46,77.6,42.54,1.18,83.39,12.93,124.84,21.4,8.95,1.89,17.86,4.36,26.92,5.22,15.91.74,20.42-17.91,8.51-27.55l-4.39,3.17c-.19-2.45-.33-4.26-.53-6.74l-8,4.81V202a21.93,21.93,0,0,1-6.63,4.93,25.39,25.39,0,0,1-1.47-8.23l-1.29-.38c-1.93,2.45-3.69,5-6.81,6-1.73-2.59-1.38-5.37-1-8.28l-2.1-1.37-3.91,7.47L268.6,201c-.15-1.86-.3-3.71-.56-7-7.25,8-13.54,7.29-12.18-4.11l-1.16-.47c-6.45,10.75-10.46,7.86-12.53-3.12-7,5.94-12,10.79-10.17-2.79l-1.28-.49c-2.31,3.72-4.2,5.84-8.94,6.72.55-3.72.88-5.92,1.21-8.11l-1.26-.69c-2.15,2.45-3.83,5.32-7.48,5.32-.88-3,.31-5.89,1-8.83l-1.53-.89c-5.3,5.77-11.72,11.27-9.5-1.68-3.1,3.17-4.64,3.71-8.39,4.47a17.93,17.93,0,0,1-.31-8.82c-3.14,1.31-4.95,4.48-7.1,4.72-5.32.61-1-4.65-2.91-6.5-5.52,2.83-5.55,2.87-11-.84-30.46-26-64.71-44-105.06-47.79-7-.73-18.46-7.7-19.36-14.88,32.16-7.46,53.57,14.87,86.78,7.68q20.28-2.87,40.67-4.85c5.44-.53,11.85-3.79,15.28,4,3.89-6.5,4.53-6.82,9.88-2.35l3.46-4.42a21.66,21.66,0,0,0,5.64,6.51,9.34,9.34,0,0,0,3.08-5.26c2.28-4.69,4.67-.3,5.12,2.71,3.65,6.94,5.21-4,8.67-5.51,3.76,2.54,4.33,6.84,5.64,10.84l2,0a45.55,45.55,0,0,1,3.89-10.68c2.55,3.62,4.82,7.42,7.14,11.19,1.32-3.86,2.35-7.83,4.68-11.24,3.19,3.08,3.78,7.35,5,11.41l2-.11c1.46-3.79,1.84-8.14,5.07-10.93,2.55,3,2.76,7,3.78,10.62l2.31.2c1.64-3.77,2.1-8.24,5.62-10.81,2.58,2.71,3.06,6.4,4.18,9.81l2-.06c1.51-3.34,1.61-7.63,5.13-9.56,2.27,2.58,2.53,6.13,3.63,9.28,5.49-6.58,10.44-13.3,11.62.23l1.44.16c4.91-7.66,8-8.25,8.1,2.38l7.66-6.49c.31,3.23.53,5.5.86,9l5.72-5C334.62,121.56,349.61,119.7,342.86,104.81ZM82.49,158.27c8.46-6.27,22.68,6.56,27.87,13.17C115.86,183.84,78.25,166.15,82.49,158.27Zm0-78.37c-3.15,1.2-5.26-1.33-4.85-4.3.78-5.68,9.55-13.41,16.09-14.2C94,67.41,87.38,78.23,82.44,79.9ZM120.1,9.33c8.44,1.87,16.81,4.14,25.08,6.66,13.34,1.88,10.87,16.56,0,20.88a97.83,97.83,0,0,1-14.66,2.83C106.91,45.53,97.78,4.84,120.1,9.33Zm18.32,44.23c-6.13,5.63-16.54,23.49-25.79,18.6-1.91-1.27-3.43-5.19-2.95-7.5,1.91-12.33,15.71-13.45,25-18.08l.55,1.3C140,47.91,141.46,49.87,138.42,53.56Zm82.06-.18c-9.33-1.68-13.39,4-17.27,10.88-3.37,6-8.68,8.89-16,9.32-11.3-1.24-31,10-38.54.32C133,53,168.16,32.62,185,31.62c14.49.82,25.39,5.58,34.74,14C222.11,47.34,226.06,54,220.48,53.38ZM321.64,73.92c-7.89,6.59-30.41-11.75-39.08-15.6-2.3-1.39-3.29-4.93-4.89-7.49,13.18-10.57,31.89-3.54,42.51,7.87C324.5,62.34,324,69.86,321.64,73.92Z"/></g></g></svg>