<svg xmlns="http://www.w3.org/2000/svg" viewBox="0 0 399.04 262.45"><g id="Layer_2" data-name="Layer 2"><g id="Layer_1-2" data-name="Layer 1"><path d="M91.19,0c21.11,24.14,49.86,43.31,81.48,49.36,18.67,2.85,32.41,13,44.11,26.94,12.93,12.43,25,40.7,46.32,27.66,33-20,58.62-50.62,82.65-80.38,1.77-2.4,3.25-3.81,6.5-2,38.18,18.56,62.59,68.68,34.91,105.91-10.35,16-24.25,30-30.33,48.34-10.27,23.46-38.87,31.25-62.16,34.76-12.7,2.11-21.51-21-30.73-28.69-8.11-11.32-20.27-.11-28.26,5.8-18.88,16.41,14.09,35.78-15.79,50.73-26.61,12.64-57,14.61-85.56,21-19.26,3.41-44,6.17-60.92-4.74C57.78,246.45,34,244.92,22,230.35c3.08-.55,30.92-9.17,33.61-8.39,17.43.54,31.65,15.53,49.22,9.31,20.89-6.79,52.76-3.12,67.35-21.44,2.84-4.09,7.23-4.1,7.15-9.28-.11-6.77-1.37-9-8-10.72-13-3.33-24.16,9.29-36.84,13.26-15.74,4.61-31.73,8.58-47.29,13.76-9.31,1.83-17.69-4.46-26.1-7.49-16.42-7-31.91,16.77-47.83,21.26-23.41,7.77-16-59.64,24.08-71.55,21.21-6.91-30.79-28.87-26-42.73,1.67.19,3.58-.1,5,.62,30.11,16.75,66.77,28.83,100.15,14.11q10.79-4.63,21.66-9.08c14.59-6.78,46.38-29.08,25.85-45.06C135.34,56.28,93,41.45,91.19,0Zm74.39,121.61c-.08,15.2,13.94,22.52,24.08,11C203,115.43,167.42,94.57,165.58,121.61ZM51.47,165.39c-19.14-1.11-11.55,21.33.21,24.24C75.16,188.9,73.68,168.49,51.47,165.39Z"/></g></g></svg>