<svg xmlns="http://www.w3.org/2000/svg" viewBox="0 0 355.11 220.45"><g id="Layer_2" data-name="Layer 2"><g id="Layer_1-2" data-name="Layer 1"><path d="M206.09,131c-14.7,1.6-28.89-1.14-43-4.57-6.17-1.82-4,3.46-6.62,7-3.61-1.89-4.08-3.7-5.49-8-3.66,5.44.58,10.69-1.53,15.47-5.61-1.1-5.3-6.65-8.67-11.56-1.21,7.25-2.21,13.16-3.2,19.07l-2.39.15-3.33-14.62-1.07-.12a17.45,17.45,0,0,1-2.39,7c-2.27-1.56-4.46-3.23-6.63-4.92-4.15,6.21-1.1,13.77-1.24,20.72l-1.33.62c-5.81-5.33-2.31-14.38-8.27-19.55-5.26,6.87-.14,13.47-2.2,21.69-8-5.58-5-14-9.89-21.14-3.32,3.11-3.24,7.46-3.93,11.63l-2,.43-5-9.91-1.35,0c-1,8.14.68,15,4.48,22.37-10.56,4-12.3-14.57-15.74-21.05-1.11-3.3-9.35-7.47-12.19-5.36-2.14,2.76-.3,6.24.3,9.77-6.7-2.08-4.73-8.42-8.78-12.4-5.55,6.26.18,14.27-1.09,21.64-1.84-.8-4.83-1.17-5.31-2.48a150.2,150.2,0,0,1-4.69-16.54c-.06-4.77,2.09-9.83-5.5-9.64a82.49,82.49,0,0,0,2.14,17.38l-1.66,1c-5.65-4-4.84-10.8-6.77-16.68-1.18-4.2-7.83-6.36-7.66-.27a6.08,6.08,0,0,1-.66,2.88c-4.16,6.46-6.31-3.18-7.26-6.67l-1.3.13a16.86,16.86,0,0,1-1.5,9.07c-1.41-.69-3.79-1.09-4.09-2.1-2.45-8.35-9.17-15-9.32-24.25C0,86,17.76,67.7,37,61c15.85-3.7,4.46-24.15,23.64-28.64,7.21-8,10.7-15.42,23.27-11,13.21,3.53,22.8,18.52,37.55,12.75,30.88-6.54,54.13-52.72,71.56-25.58,20.57,28.54,61-15.3,112.8,23,24.42,18.27,29.07,20.05,17.72,50.17-15,45.75,88,51.61-14.4,100.91-32.37,16.08-67.47,25.63-103.68,26.9-33.95,3.91-67.68,9.42-102,7.75-27-.91-61.87,13.44-81.68-11.67-2.05-2.85-1.74-6.08,1.28-7.84,6.25-3.74,6.49-11.36,11.38-16.42l1.92.52c.17,4.16,0,8.25,3,11.59,4.25-3.78,1.51-10.68,6.72-13.43,3.38,4,.29,7.86,5.12,11.86,4.92-5.4-.37-13.46,5.68-18.18l3.23,15.63L62,189c1.1-6.32-2-13.3,3.31-19.3,2.13,4.19,1.18,21.2,8.74,16.5.9-.59,1.21-2.44,1.34-3.76.69-5.5-.28-11.28,2.91-16.16l1.47.17c1.47,4.75-2.31,18.66,5.69,17.3,2.92-.7,3.67-2.09,3.15-5-.42-3.35-.25-7.05,3-9.05,3.2,3.23,2.56,6.18,3.67,11.21,2.84-4.23.39-9.77,6.14-11.43.59,3.13,1.13,6,1.68,8.82l1.09,0q1.59-6.31,3.2-12.63l2,0c2.37,4.32,1.23,11.92,8.39,9.39,32.54-7.77,60.49-25.48,88.63-42.65C206.32,131.89,206.21,131.46,206.09,131ZM111.25,83.4c17.49-3,32.86-8.45,50.11-2.48,31.72,10.07,23-23.87,14.3-40.94-9-10.7-29.36,6.08-39.84,9.53C127.15,53,90.67,76,111.25,83.4Zm107.64-2.6c3.39-.3,7.63.1,11.22-1.25,5.54-2.32,7.6-9.82,1-12.57-11.27-2.79-22.68-5-34.1-7.13-3.76-.7-5,1.56-4.36,5.18C194.61,78.39,207.18,80.91,218.89,80.8ZM35.46,85.06c4.26-1.33,17.65-2.15,13.42-10.14-3-4.71-8.06-6.52-13.35-6.58-8.47-2.37-22,13-8.54,15.53C29.44,84.32,31.92,84.57,35.46,85.06Zm237.67,36.52c9.85-.53,19.53-10.26,7.55-15.9-6.33-2.65-12.47-.88-17.78,3.18C254.41,115.44,268.27,119.75,273.13,121.58ZM210.39,54.79l.16.64c5.78-1.58,21.94-3,13.61-11.93C215.08,32.42,183,51.28,210.39,54.79ZM301.47,135c4.56-.15,13.16-6.83,14.45-11.23C317.9,106.69,285.1,133.19,301.47,135Z"/></g></g></svg>