<svg xmlns="http://www.w3.org/2000/svg" viewBox="0 0 398.26 200.68"><g id="Layer_2" data-name="Layer 2"><g id="Layer_1-2" data-name="Layer 1"><path d="M40.28,163.22c2,3.47,3.17,5.62,4.34,7.68l5.84-2.31.69-6.08,1.33-.3,3.32,6.46,2-3.79c1.22,1.35,2.14,2.35,3.36,3.69L63.46,161l4.12,8.26c1.37-2,2.16-3.1,3.79-5.42l1.5,4.44,1.37-.94-.59-12.22,1.77-.46,7,14.39c.84-3.08,1.24-4.56,2-7.19L88.06,168l4.69-14.26,2.06.37c0,4.67-.86,9.39,2.06,13.44a28.11,28.11,0,0,0,3.37-7.61,18.61,18.61,0,0,0,4.79,6.94c2-4.18,1.68-8.76,2-13.25l1.82-.29,5.45,13.09c1.21-2.21,1.87-3.39,2.71-4.93l3.31,3.78c-.22-6.11-2.21-11.58,1.68-17.64,3.76,6.28,3.41,12.33,8.79,17.3l3.46-4.69,4.35,5.38c.34-4.49.57-7.61.8-10.74l1.42-.27,4.71,9.26c.7-2.09,1.14-3.37,1.67-5l2.74,1.07c.21-2.4.43-4.76.64-7.12l1.39-.62,5.47,7.62c.73-2.18,1.3-3.91,2-6.07l3.63,2.65c.21-1.67.38-3,.61-4.92,1.7,1.1,3,1.95,3.18,2.06,3.58-1.19,5.37-1.72,8.09-2.6,14.71-9.49,31.81-7.28,47.94-9.88,16.43-3.44,33.89-3.73,49.44-10.32l.39-1.74c-32.78-25-14.22-4.92-36.73-8.4-23-2.62-49.18-13.65-71.87-8.43l-.71,1.87-2.63-5c-1,3.43-1.53,5.44-2.09,7.46l-1.1.15c-.75-2.78-1.65-5.09-4.65-6-1.9,2.81-.76,5.9-.44,9l-1.32.39-4-7.32-1.53,2.59-4-4.27c.69,4.48,1.18,7.68,1.76,11.47-5.22-1.5-4.15-6.53-6-9.39L132.44,118c.18,1.87.49,5.06.86,8.85-6.37-2.12-6-7.82-8.34-12.26l-2.83,3.73-3.7-3.14c1,5.72,1.76,10.41,2.78,16.48-7.29-3.61-7.78-9.94-10.72-15.47l-2.11,4.83-3.86-4.74-1.56-.06c-.39,5.57-.78,11.13-1.25,17.75-6.87-4.44-6.1-11-8-17.48l-2.31,6.63-5.29-7.59c-2.43,7.3,3.8,12.49,3.35,19.67-8.11-4.18-8.83-12.6-13.51-18.43l-3.07,4.44-3.33-4.7-1,0,1,16c-7.66-3.79-7.41-11.65-10.88-19.21-1,4.45-1.69,7.36-2.36,10.27l-1.67.26L51.5,113c-4.36,3.27-.84,12.13-1.31,17.72-9.43-4.3-6.21-16.23-15.47-20.78.31,4.23.52,7.06.76,10.36-5.91-1.7-3.92-7.62-7.77-11.77-1.33,6.91,3.69,11.12.36,17.14-5.94-1.22-7-8.1-9.72-12.66C12,101.63.11,114.06.31,94.14-2.51,76,14.67,68.6,25.8,58.06c16.13-13.34,28.78-9.26,46.27-3A175.79,175.79,0,0,0,146.3,42C161.51,35.3,175.59,25.72,193,26.91c11.57-.58,22.78-2,33.44-7.18,7.62-3.71,15.75-5.31,24.1-1.21,1.73.86,4.26.42,6.36.15,17.51-2.19,35.16-3.65,51.42-11.56C316.25,4,324.78-1.47,333.52.37,346.1,3.64,358,10.1,371.23,10.26c6.46.69,9.58,7.51,10.7,12.81.38,8.08,7.19,9.11,13.69,10.24,8.26,2.92-5.25,9.25-7.51,12.39-8,6.54,1.28,13.45,4.69,20.47-7.87,2.09-13.39,9.43-23.1,6.72-8.86,32,14.4,39.77,3.1,43.59-3.94,1-9.21,3-5.61,7.94,3.05,4.73,5.43,9.91,8.05,14.92,2.21,4.24,1.3,7.46-2.86,10.12q-22.29,14.29-44.4,28.88c-13,7.65-23.36,20.57-39.28,21.43-14.4,1.79-28.61,1.15-42.44-3.71-24.93-8.8-52-3.78-77.77-2.64-16.45,7.15-33.44,3.63-50.31,2.71-25.1-1.37-50.21-2.67-75.32-4.06-8.1-.76-18.07-1-20.55-10.55-1-3.24-3.28-6.1,1.25-9,1.54-1,1.09-5,1.55-7.69l1.33-.28a17.12,17.12,0,0,0,5.4,8,45,45,0,0,0,2.49-7.79l5.32,7.4A36,36,0,0,1,40.28,163.22ZM188.55,92.46c8.72-3.08,15-8.88,22.62-13.47,7.44-3.54,12.4-9,14.71-16.65,2.66-8.85.5-16.78-5.84-23.5-7.29-7.39-16.73-2.42-24.76.13-7.38,2.61-16.1,3.63-22.78,7.55C133.31,76.47,149.87,82.68,188.55,92.46ZM268,78.54l.29,1.09c29.43-6,30.61-4.44,35.51-35.06,5.43-28-42.51-17.2-56.41-10.19-3.2,1.28-2.69,3.92-1.1,6.23C256,58.44,229.79,80.9,268,78.54Zm62.17-3.36c1.1,14.62,27.28,11.5,21.12,1.7C337,57.19,363,51.35,353,40.69,337.66,29.43,330.6,63.55,330.19,75.18ZM36.71,83.57c9-2.63,24.09-4.49,18.26-16.75-4.92-10.55-16.83-.06-22.46,4.87C27.49,77.53,30.55,80.91,36.71,83.57Zm282.86,37.57c-5.3-6.93-22.23-9.83-31-5.5C293.08,131.44,308,128.21,319.57,121.14Zm-.32,35.49c25.63-5.41,4.22-23.56-6.21-4.51ZM82,92.4l4.8-3.66c-3.55-3.69-5-4.78-9-.78Z"/></g></g></svg>