<svg xmlns="http://www.w3.org/2000/svg" viewBox="0 0 369.11 268.94"><g id="Layer_2" data-name="Layer 2"><g id="Layer_1-2" data-name="Layer 1"><path d="M237.82,146.72l-6.44-17.13c-1.16,5.19-.36,8.69-3.94,12-5.56-3.22-2.1-10.52-6.61-14.61a21.51,21.51,0,0,0-4.29,6.92c-5.14-3.08-.68-8.1-13.06-6.6-11.12-.24-22.61,6.9-33.13,1.62-8.68-6.48-8.7,18.8-31.69,32.13,15,6.28,30.29,9.4,46,12.85,13.94-1,37.82,47.09,37.06,11.81,2.93,3.42,2.93,3.42,3,17.49l7-17.11c4.05,8,2.1,15.07,1,22.08l1.49.35c1.77-6.48,3.54-13,5.45-19.94,5.64,7.48,2.51,17,2.53,25.56l1.75.29c1.28-5.78,2.56-11.56,4-18.26,5.89,6,3.7,13.12,3.95,19.62l1.71.25,3.39-19.39,1.68-.32c6.35,6.58,1.79,18.44,9,23.82,6.52,2.47,7.4,2.07,8.55-4.82,1.17-8.18.78-15.07,1.6-23.61,11.31,7.88,8.93,19.88,10.26,31.4,4.64-10,2.39-20.76,3-31.43,10.11,7.68,9.85,19.17,12.25,30.05q2-10.72,4.06-21.45c5.85,7,4.07,15.46,5.7,23.11l1.45.16q2.73-9.45,5.47-18.9l1.74-.07a51,51,0,0,1,2.49,16.87c6.51.88,7.11.41,6.8-5.62-.26-5.07-.68-10.13-1.06-15.64,9.42,2.22,6.43,11.93,10.82,18.41V203.4l2.09-.33c7.49,22.17,1.14,35.76-14.31,50.88-22.7,26.16-57.63,10.47-86.72,8.86-32.41-1.05-64.69,6.45-97.14,1.09-44.51-1.55-101.33-80.19-128.5-75-13.75,1-10.35-24.84-4.9-32.14,5-9.56,13.94,6.27,16.82-5.3,4.35-11.86,14.17-23.59,6.71-36.38-3.67-5-4.64-20.54-13.53-14-4.53,4.38-10.19,8.15-16.41,4.73-8.74-3.42-3.28-26-4.8-34.52,0-5.41,3.46-10.71,8.74-12.15C19.18,56.09,12,41.24,29.62,33.84,37.88,29.89,38.42,26,38,17c-.21-4.46,2.8-9.21,5-13.53.44-.89,3.92-1.16,5.37-.44,8,3.7,16.14,15.92,24.35,6.29C77.17,5,90.82-3.63,95.9,1.68,105,12.33,114.13,3.8,124.63,7.47,157.22,22.07,193,18.71,227.47,23.6c40.92-1.68,81.39,7.34,119.25,22.54,14.36,8.24,15.48,28.83,21.49,43,1.47,4.65,1.41,9.39-2.3,13.64-2.05,4.89-2.09,11.6-3.83,16.89l-1.48-.27V104.92l-1.16-.08q-1.8,10-3.59,19.92l-2.34-.12q-.78-9.23-1.57-18.46l-1.36,0c-.94,9.45.74,19.36-3.95,29.56-5.24-7.82-2.73-16.19-5.31-23.27-4.44.73-5.68,2.75-5.08,7,.83,10.05,2.85,18.58.22,28.83-7.72-8.81-8-19.24-12.35-27.93,1.46,14.09,4.92,29.2-3.56,41.94l-10.68-36.45-1.49.25c2.49,10.5,4.73,21,2.26,32-6.38-8.4-7.95-19-12.88-28.06,3.12,12.44,2.81,24.48-2.05,36.14l-1.76.23c-4.91-11-3.45-24.34-9.52-34.73-.05,9.65,1.47,19.35-3.95,29.23-6.56-8.69-6.13-19-11.8-27.5q-1.23,5.25-2.47,10.51l-1.39.41c-2-2.85-4.05-5.7-6.06-8.52-2.19,7.85,0,18.75-7.14,24.12-6.39-7.57-1.27-19.81-8.51-26.9l-3.51,13.83Zm-34.39-45.2c9.08-1.68,20.18-.56,26.39-8.67,9.21-11.79,14.07-29.94.1-40.33-7.57-5.93-16.56-8.07-25.72-8.28-11.64,1.47-35.68-9.33-42.27-4.56-4.46,9.33,16.49,8.93,9.64,27.19C162.25,87.37,184.44,103.16,203.43,101.52ZM74.88,123.19l0,.88c8.45-.24,21-.73,16.32-12.55C87.11,99.1,84.5,86,79.85,73.84c-3.94-9.22-8-18-7.83-28.52-1.52-20.76-24.25-.81-33.47,3.75-4.88,4.69-6.91,12.32-6.88,19,2.51-.06,5.47.72,7.44-.34,7.94-4.3,16-3.89,24.24-1.71,12.11,3.21,13.56,6.12,7.54,17-6,12.75-16.86,23.82-19.76,37.69C52.56,127.27,69.31,122.38,74.88,123.19Zm50-52.15c2.7,13.46,3,27,15.84,34,4.94,2.56,7.15,1.3,7.5-4.21,1.07-15.42,3-31.37-6.42-44.87-6.27-10.1-13.38-19.11-23.56-25.49-7.17-6-11,8.62-13.34,13.3-1.28,10.23,10.35,17.43,19.24,20,2.94.68,5.7,2.53,8.22,4.31C135.06,73.34,129.61,74.16,124.92,71ZM304.65,46.36c-.34.57-.68,1.13-1,1.7,17.44,18.84,21,12.8,40.95,22.15,2.79.84,5.77-1.36,4.35-4.4C341.39,48.78,320.94,47.36,304.65,46.36ZM244.57,71.79c-.31,25.29,34.8,8.28,23.33-7.65C259.7,59.61,244.48,58.79,244.57,71.79ZM61.14,195.19c6.7-3.85,9.68-6.77,3.94-12.74-3.63-3.39-20.26-3.33-18.5,4.26C51.1,189.58,55.8,192.14,61.14,195.19Zm57.62,31.41c4.91,6.82,15.67,20.36,23,13.63.47-.36-.47-4-1.63-4.72C133,232.27,127.08,226.37,118.76,226.6ZM97.92,151c8.46,1.45,15,2.63,21.67,3.68,4.59,1,8.85,1.66,10.39-3.94a4.86,4.86,0,0,0-2.69-2C117.1,149.16,107.81,147,97.92,151Zm-19.8,4.2-.28-.91c-6-1.13-11.86-4.47-18-2.69,1.07,1.39,2.08,3.92,3.22,4C68.06,155.8,73.1,155.35,78.12,155.16Z"/></g></g></svg>