<svg
  viewBox="0 0 1041 308.07"
  xmlns="http://www.w3.org/2000/svg"
  fill="#000"
>
<path d="M 468.1962890625 292.6097412109375 A 22.808142020798584 22.808142020798584 0 0 0 490.0026550292969 270.2087707519531 L 491.739990234375 167.38766479492188 A 15.795534423336472 15.795534423336472 0 0 0 476.6242980957031 151.33981323242188 L 141.70278930664062 136.95933532714844 A 21.719919984020024 21.719919984020024 0 0 0 119.05318450927734 158.36126708984375 L 117.2862548828125 287.13702392578125 A 19.6981397810524 19.6981397810524 0 0 0 137.84494018554688 307.0865478515625 L 468.1962890625 292.6097412109375 Z " transform="matrix(1 0 0 1 0.00000102556 9.68916e-7)" class="" fill-opacity="1" fill="none" stroke-dasharray="0" stroke-linecap="round" stroke-width="8" stroke="#000000"></path><path d="M 22.997806549072266 116.09320068359375 A 6.703494192960999 6.703494192960999 0 0 1 19.990234375 103.57701110839844 L 69.96551513671875 75.01970672607422 A 53.21393619370153 53.21393619370153 0 0 1 100.1239013671875 68.14118957519531 L 514.9610595703125 97.5018081665039 A 28.784976525784572 28.784976525784572 0 0 1 519.857666015625 98.27635192871094 L 577.710205078125 112.62393188476562 A 2.5502927330360436 2.5502927330360436 0 0 1 576.9242553710938 117.6371841430664 L 528.739501953125 115.01844787597656 A 3.7600095576879538 3.7600095576879538 0 0 0 526.9008178710938 122.15900421142578 L 542.1148681640625 129.5037078857422 A 5.860459823956047 5.860459823956047 0 0 1 539.2887573242188 140.6352081298828 L 22.997806549072266 116.09320068359375 Z " transform="matrix(1 0 0 1 0.00000102556 9.68916e-7)" class="" fill-opacity="1" fill="none" stroke-dasharray="0" stroke-linecap="round" stroke-width="8" stroke="#000000"></path><path d="M 376.17352294921875 40.06716537475586 A 13.348602849745287 13.348602849745287 0 0 1 388.5455322265625 53.85234451293945 L 388.08782958984375 66.79502868652344 A 10.300604092761223 10.300604092761223 0 0 1 377.0465087890625 76.70447540283203 L 342.3143615722656 74.17850494384766 A 9.995282441310197 9.995282441310197 0 0 1 333.0503234863281 63.85630416870117 L 333.5188293457031 50.60770034790039 A 13.118193025615321 13.118193025615321 0 0 1 347.5803527832031 37.9876594543457 L 376.17352294921875 40.06716537475586 Z " transform="matrix(1 0 0 1 0.00000102556 9.68916e-7)" fill-opacity="1" fill="none" class="" stroke-dasharray="0" stroke-linecap="round" stroke-width="8" stroke="#000000"></path><path d="M 249.1250457763672 30.281822204589844 A 10.27691034620727 10.27691034620727 0 0 1 258.65008544921875 40.89484786987305 L 258.00250244140625 59.208045959472656 A 7.974386821377845 7.974386821377845 0 0 1 249.4546661376953 66.8796157836914 L 213.57530212402344 64.27020263671875 A 11.307571356887296 11.307571356887296 0 0 1 203.09500122070312 52.592811584472656 L 203.48072814941406 41.68434524536133 A 14.156097561215237 14.156097561215237 0 0 1 218.65481567382812 28.06580352783203 L 249.1250457763672 30.281822204589844 Z " transform="matrix(1 0 0 1 0.00000102556 9.68916e-7)" fill-opacity="1" fill="none" stroke-dasharray="0" stroke-linecap="round" stroke-width="8" class="" stroke="#000000"></path><path d="M 534.4385986328125 90.12599182128906 L 640.8841552734375 126.11436462402344 L 1015.8848876953125 137.64190673828125 L 893.9547119140625 99.44107818603516 L 534.4385986328125 90.12599182128906 Z " transform="matrix(1 0 0 1 0.00000102556 9.68916e-7)" class="" fill-opacity="1" fill="none" stroke-dasharray="0" stroke-linecap="round" stroke-width="8" stroke="#000000"></path><path d="M 543.5038452148438 38.7032470703125 A 9.80231772851778 9.80231772851778 0 0 1 553 48.50078201293945 L 553 74.00431823730469 A 6.698132467932866 6.698132467932866 0 0 1 546.0109252929688 80.69612884521484 L 534.8792724609375 80.21215057373047 A 9.752868535870162 9.752868535870162 0 0 0 526.9073486328125 83.77992248535156 L 527.1435546875 83.49126434326172 A 3.4631771756773233 3.4631771756773233 0 0 1 521 81.29824829101562 L 521 48.494781494140625 A 10.171941299485669 10.171941299485669 0 0 1 531.4896240234375 38.32780456542969 L 543.5038452148438 38.7032470703125 Z " transform="matrix(1 0 0 1 0.00000102556 9.68916e-7)" fill-opacity="1" fill="none" stroke-dasharray="0" stroke-linecap="round" stroke-width="8" class="" stroke="#000000"></path><path d="M 693.155517578125 203.6346435546875 A 5.722918016566786 5.722918016566786 0 0 1 687.6356811523438 209.18821716308594 L 642.0838623046875 210.78652954101562 A 5.722918016566786 5.722918016566786 0 0 1 636.1622924804688 204.91458129882812 L 637.8406982421875 141.97471618652344 A 5.722918016566786 5.722918016566786 0 0 1 643.9622192382812 136.41839599609375 L 689.52099609375 139.61550903320312 A 5.722918016566786 5.722918016566786 0 0 1 694.8408813476562 145.49020385742188 L 693.155517578125 203.6346435546875 Z " transform="matrix(1 0 0 1 0.00000102556 9.68916e-7)" fill-opacity="1" fill="none" stroke-dasharray="0" stroke-linecap="round" stroke-width="8" class="" stroke="#000000"></path><path d="M 927.7958984375 197.38706970214844 A 5.927553625528695 5.927553625528695 0 0 1 921.8056030273438 203.16632080078125 L 894.7564697265625 202.87161254882812 A 5.927553625528695 5.927553625528695 0 0 1 888.8950805664062 196.808349609375 L 889.8953857421875 153.23941040039062 A 5.927553625528695 5.927553625528695 0 0 1 895.9845581054688 147.4501495361328 L 923.1099243164062 148.1972198486328 A 5.927553625528695 5.927553625528695 0 0 1 928.8724365234375 154.27047729492188 L 927.7958984375 197.38706970214844 Z " transform="matrix(1 0 0 1 0.00000102556 9.68916e-7)" fill-opacity="1" fill="none" stroke-dasharray="0" stroke-linecap="round" stroke-width="8" stroke="#000000" class=""></path><path d="M 927.7958984375 197.38706970214844 A 5.927553625528695 5.927553625528695 0 0 1 921.8056030273438 203.16632080078125 L 894.7564697265625 202.87161254882812 A 5.927553625528695 5.927553625528695 0 0 1 888.8950805664062 196.808349609375 L 889.8953857421875 153.23941040039062 A 5.927553625528695 5.927553625528695 0 0 1 895.9845581054688 147.4501495361328 L 923.1099243164062 148.1972198486328 A 5.927553625528695 5.927553625528695 0 0 1 928.8724365234375 154.27047729492188 L 927.7958984375 197.38706970214844 Z " transform="matrix(1 0 0 1 54.8378 0.0000863332)" fill-opacity="1" fill="none" stroke-dasharray="0" stroke-linecap="round" stroke-width="8" stroke="#000000" class=""></path><path d="" transform="matrix(1 0 0 1 0.00000102556 9.68916e-7)" fill-opacity="1" fill="none" stroke-dasharray="0" stroke-linecap="round" stroke-width="8" stroke="#000000" class=""></path><path d="M 753.0984497070312 212.21177673339844 A 4.177284577759272 4.177284577759272 0 0 1 749.2201538085938 216.26998901367188 L 729.5857543945312 217.67245483398438 A 4.177284577759272 4.177284577759272 0 0 1 725.1121215820312 213.4039306640625 L 726.889404296875 140.53492736816406 A 4.177284577759272 4.177284577759272 0 0 1 731.5104370117188 136.48326110839844 L 751.1690673828125 138.58953857421875 A 4.177284577759272 4.177284577759272 0 0 1 754.8999633789062 142.8515167236328 L 753.0984497070312 212.21177673339844 Z " transform="matrix(1 0 0 1 0.00000102556 9.68916e-7)" fill-opacity="1" fill="none" stroke-dasharray="0" stroke-linecap="round" stroke-width="8" stroke="#000000" class=""></path><path d="M 0 0 " transform="matrix(1 0 0 1 0.00000102556 9.68916e-7)" fill-opacity="1" fill="none" stroke-dasharray="0" stroke-linecap="round" stroke-width="8" stroke="#000000" class=""></path><path d="M 761 222.903076171875 A 3.1253106625932214 3.1253106625932214 0 0 1 758.1007080078125 226.02020263671875 L 720.351318359375 228.7570343017578 A 3.1253106625932214 3.1253106625932214 0 0 1 717 225.63990783691406 L 717 224.93275451660156 A 3.1253106625932214 3.1253106625932214 0 0 1 719.9268188476562 221.81375122070312 L 757.6762084960938 219.41151428222656 A 3.1253106625932214 3.1253106625932214 0 0 1 761 222.530517578125 L 761 222.903076171875 Z " transform="matrix(1 0 0 1 0.00000102556 9.68916e-7)" fill-opacity="1" fill="none" stroke-dasharray="0" stroke-linecap="round" stroke-width="8" stroke="#000000" class=""></path><path d="M 767 232.176513671875 A 3.8657918251463133 3.8657918251463133 0 0 1 763.4375610351562 236.0303955078125 L 717.1690673828125 239.67189025878906 A 3.8657918251463133 3.8657918251463133 0 0 1 713 235.81800842285156 L 713 236.4499969482422 A 3.8657918251463133 3.8657918251463133 0 0 1 716.5908813476562 232.593994140625 L 762.8593139648438 229.2952117919922 A 3.8657918251463133 3.8657918251463133 0 0 1 767 233.15121459960938 L 767 232.176513671875 Z " transform="matrix(1 0 0 1 0.00000102556 9.68916e-7)" fill-opacity="1" fill="none" stroke-dasharray="0" stroke-linecap="round" stroke-width="8" stroke="#000000" class=""></path><path d="M 824.9051513671875 235.80599975585938 A 4.988132996459267 4.988132996459267 0 0 1 824.1929321289062 245.63685607910156 L 665.5458374023438 258.7889404296875 A 4.988132996459267 4.988132996459267 0 0 1 661.3408813476562 257.05755615234375 L 652.8821411132812 247.15455627441406 A 4.988132996459267 4.988132996459267 0 0 1 656.31591796875 238.9396514892578 L 794.3916625976562 228.9742889404297 A 4.988132996459267 4.988132996459267 0 0 1 795.8750610351562 229.08970642089844 L 824.9051513671875 235.80599975585938 Z " transform="matrix(1 0 0 1 10 10)" fill-opacity="1" fill="none" stroke-dasharray="0" stroke-linecap="round" stroke-width="8" stroke="#000000" class=""></path><path d="M 458.35595703125 30.384523391723633 A 3.8695769713271817 3.8695769713271817 0 0 1 461.5185546875 35.44424057006836 L 460.6831970214844 37.95032501220703 A 2.7337121530063158 2.7337121530063158 0 0 1 457.847900390625 39.808841705322266 L 114.4705581665039 9.308273315429688 A 5.919588055257332 5.919588055257332 0 0 1 109.58492279052734 5.816072463989258 L 109.12779235839844 4.78753137588501 A 3.23101996151703 3.23101996151703 0 0 1 112.23321533203125 0.24788883328437805 L 295.00238037109375 8.905374526977539 A 47.34566932347689 47.34566932347689 0 0 1 298.9825439453125 9.262744903564453 L 458.35595703125 30.384523391723633 Z " transform="matrix(1 0 0 1 0.00000102556 9.68916e-7)" fill-opacity="1" fill="none" class="" stroke-dasharray="0" stroke-linecap="round" stroke-width="8" stroke="#000000"></path>
</svg>
