<?xml version="1.0" encoding="UTF-8"?>
<svg xmlns="http://www.w3.org/2000/svg" xmlns:xlink="http://www.w3.org/1999/xlink" viewBox="0 0 1200 800" version="1.1">
<g id="surface1">
<path style=" stroke:none;fill-rule:nonzero;fill:rgb(100%,100%,100%);fill-opacity:0;" d="M 702.578125 677.527344 L 702.578125 679.0625 C 702.523438 680.070313 701.15625 681.035156 698.996094 681.035156 L 501.003906 681.035156 C 498.84375 681.035156 497.476563 680.070313 497.421875 679.0625 L 497.421875 679.003906 C 497.421875 678.472656 497.804688 677.933594 498.632813 677.527344 L 702.578125 677.527344 "/>
<path style="fill:none;stroke-width:100;stroke-linecap:round;stroke-linejoin:round;stroke:rgb(0%,0%,0%);stroke-opacity:1;stroke-miterlimit:10;" d="M 7025.78125 1224.726563 L 7025.78125 1209.375 C 7025.234375 1199.296875 7011.5625 1189.648438 6989.960938 1189.648438 L 5010.039063 1189.648438 C 4988.4375 1189.648438 4974.765625 1199.296875 4974.21875 1209.375 L 4974.21875 1209.960938 C 4974.21875 1215.273438 4978.046875 1220.664063 4986.328125 1224.726563 Z M 7025.78125 1224.726563 " transform="matrix(0.1,0,0,-0.1,0,800)"/>
<path style=" stroke:none;fill-rule:nonzero;fill:rgb(100%,100%,100%);fill-opacity:0;" d="M 698.996094 681.128906 L 501.003906 681.128906 C 497.523438 681.128906 496.089844 676.957031 498.933594 675.074219 L 518.800781 661.910156 C 522.535156 659.433594 524.933594 655.566406 525.371094 651.316406 L 531.855469 588.371094 L 668.144531 588.371094 L 674.628906 651.316406 C 675.066406 655.566406 677.464844 659.433594 681.199219 661.910156 L 701.066406 675.074219 C 703.910156 676.957031 702.476563 681.128906 698.996094 681.128906 "/>
<path style="fill:none;stroke-width:100;stroke-linecap:round;stroke-linejoin:round;stroke:rgb(0%,0%,0%);stroke-opacity:1;stroke-miterlimit:10;" d="M 6989.960938 1188.710938 L 5010.039063 1188.710938 C 4975.234375 1188.710938 4960.898438 1230.429688 4989.335938 1249.257813 L 5188.007813 1380.898438 C 5225.351563 1405.664063 5249.335938 1444.335938 5253.710938 1486.835938 L 5318.554688 2116.289063 L 6681.445313 2116.289063 L 6746.289063 1486.835938 C 6750.664063 1444.335938 6774.648438 1405.664063 6811.992188 1380.898438 L 7010.664063 1249.257813 C 7039.101563 1230.429688 7024.765625 1188.710938 6989.960938 1188.710938 Z M 6989.960938 1188.710938 " transform="matrix(0.1,0,0,-0.1,0,800)"/>
<path style=" stroke:none;fill-rule:nonzero;fill:rgb(100%,100%,100%);fill-opacity:0;" d="M 940.304688 135.320313 L 940.304688 571.554688 C 940.304688 580.640625 932.941406 588.007813 923.855469 588.007813 L 276.144531 588.007813 C 267.058594 588.007813 259.695313 580.640625 259.695313 571.554688 L 259.695313 135.320313 C 259.695313 126.234375 267.058594 118.871094 276.144531 118.871094 L 923.855469 118.871094 C 932.941406 118.871094 940.304688 126.234375 940.304688 135.320313 "/>
<path style="fill:none;stroke-width:100;stroke-linecap:round;stroke-linejoin:round;stroke:rgb(0%,0%,0%);stroke-opacity:1;stroke-miterlimit:10;" d="M 9403.046875 6646.796875 L 9403.046875 2284.453125 C 9403.046875 2193.59375 9329.414063 2119.921875 9238.554688 2119.921875 L 2761.445313 2119.921875 C 2670.585938 2119.921875 2596.953125 2193.59375 2596.953125 2284.453125 L 2596.953125 6646.796875 C 2596.953125 6737.65625 2670.585938 6811.289063 2761.445313 6811.289063 L 9238.554688 6811.289063 C 9329.414063 6811.289063 9403.046875 6737.65625 9403.046875 6646.796875 Z M 9403.046875 6646.796875 " transform="matrix(0.1,0,0,-0.1,0,800)"/>
<path style=" stroke:none;fill-rule:nonzero;fill:rgb(100%,100%,100%);fill-opacity:0;" d="M 940.304688 525.808594 L 940.304688 571.710938 C 940.304688 575.851563 938.742188 579.636719 936.167969 582.507813 C 933.160156 585.878906 928.757813 588 923.855469 588 L 276.144531 588 C 271.242188 588 266.839844 585.878906 263.832031 582.507813 C 261.257813 579.636719 259.695313 575.851563 259.695313 571.710938 L 259.695313 525.808594 L 940.304688 525.808594 "/>
<path style="fill:none;stroke-width:100;stroke-linecap:round;stroke-linejoin:round;stroke:rgb(0%,0%,0%);stroke-opacity:1;stroke-miterlimit:10;" d="M 9403.046875 2741.914063 L 9403.046875 2282.890625 C 9403.046875 2241.484375 9387.421875 2203.632813 9361.679688 2174.921875 C 9331.601563 2141.210938 9287.578125 2120 9238.554688 2120 L 2761.445313 2120 C 2712.421875 2120 2668.398438 2141.210938 2638.320313 2174.921875 C 2612.578125 2203.632813 2596.953125 2241.484375 2596.953125 2282.890625 L 2596.953125 2741.914063 Z M 9403.046875 2741.914063 " transform="matrix(0.1,0,0,-0.1,0,800)"/>
<path style=" stroke:none;fill-rule:nonzero;fill:rgb(100%,100%,100%);fill-opacity:0;" d="M 911.855469 149.398438 L 911.855469 497 L 288.144531 497 L 288.144531 149.398438 L 911.855469 149.398438 "/>
<path style="fill:none;stroke-width:100;stroke-linecap:round;stroke-linejoin:round;stroke:rgb(0%,0%,0%);stroke-opacity:1;stroke-miterlimit:10;" d="M 9118.554688 6506.015625 L 9118.554688 3030 L 2881.445313 3030 L 2881.445313 6506.015625 Z M 9118.554688 6506.015625 " transform="matrix(0.1,0,0,-0.1,0,800)"/>
</g>
</svg>
