<?xml version="1.0" standalone="no"?>
<!DOCTYPE svg PUBLIC "-//W3C//DTD SVG 20010904//EN"
 "http://www.w3.org/TR/2001/REC-SVG-20010904/DTD/svg10.dtd">
<svg version="1.0" xmlns="http://www.w3.org/2000/svg"
 width="526.000000pt" height="422.000000pt" viewBox="0 0 526.000000 422.000000"
 preserveAspectRatio="xMidYMid meet">

<g transform="translate(0.000000,422.000000) scale(0.100000,-0.100000)"
fill="#000000" stroke="none">
<path d="M3392 4188 c-17 -17 -15 -42 6 -60 9 -8 77 -48 150 -89 l134 -74 -92
-11 c-155 -20 -226 -60 -221 -127 1 -17 4 -130 7 -249 l5 -218 -192 0 -191 0
-34 29 c-45 40 -109 49 -170 26 -25 -9 -50 -26 -57 -36 -11 -18 -33 -19 -563
-19 -458 0 -553 -2 -563 -14 -25 -30 -80 -351 -81 -468 0 -3 -184 -8 -408 -10
l-409 -3 -46 -37 c-107 -88 -166 -212 -174 -365 l-6 -92 -75 -3 c-58 -2 -77
-7 -86 -20 -8 -13 -8 -23 0 -35 9 -14 28 -19 92 -21 l81 -3 10 -37 c6 -20 13
-49 16 -64 9 -34 22 -45 60 -50 26 -3 30 -7 33 -38 5 -75 24 -193 34 -216 l11
-24 447 0 c346 0 450 3 458 13 13 16 29 94 37 184 l7 71 35 4 c29 4 37 0 46
-19 10 -22 15 -23 119 -23 59 0 108 -1 108 -3 0 -2 -23 -27 -51 -56 -28 -29
-65 -83 -82 -119 l-32 -67 -3 -864 c-2 -797 -1 -865 14 -882 14 -16 32 -19
111 -19 149 0 133 -104 133 868 0 786 1 829 19 862 10 19 33 45 51 58 l33 22
781 0 c762 0 782 -1 814 -20 18 -11 41 -34 52 -52 19 -32 20 -52 20 -570 l0
-538 -40 -20 c-59 -30 -118 -93 -149 -159 -35 -76 -38 -211 -4 -283 30 -66
105 -143 172 -175 49 -24 68 -28 146 -28 78 0 97 4 146 28 67 32 142 109 171
175 65 146 12 331 -123 423 l-54 38 -5 573 -5 573 -29 59 c-16 33 -52 83 -80
112 l-51 52 102 4 c75 3 107 8 118 19 20 20 42 125 57 273 11 108 14 119 35
127 16 6 26 22 34 54 6 25 16 45 23 46 6 0 128 4 271 9 278 9 336 18 405 64
44 29 76 90 86 162 11 88 28 84 -391 84 l-364 0 -6 58 c-11 102 -35 247 -53
313 l-17 64 -103 3 -102 3 0 192 c1 153 4 196 15 211 23 30 19 91 -7 120 -23
24 -541 316 -562 316 -7 0 -17 -5 -24 -12z m433 -313 c38 -8 76 -22 85 -31 14
-14 13 -17 -7 -34 -86 -70 -515 -39 -455 33 35 42 245 60 377 32z m-165 -189
c69 -1 149 3 178 7 l52 8 0 -171 0 -170 -215 0 -215 0 0 174 0 174 38 -11 c20
-6 93 -11 162 -11z m-750 -321 c76 -39 36 -145 -55 -145 -38 0 -84 27 -95 55
-28 73 70 131 150 90z m-190 -117 c25 -53 62 -73 135 -73 73 0 110 20 135 73
l15 32 554 -3 555 -2 13 -50 c29 -112 45 -287 39 -425 -3 -74 -9 -154 -12
-178 l-7 -42 -1256 2 -1256 3 -8 50 c-5 28 -9 124 -10 215 -1 158 14 287 43
393 l11 37 517 0 517 0 15 -32z m2203 -414 c9 -10 -13 -60 -36 -82 -47 -44
-99 -53 -370 -64 -144 -6 -262 -6 -267 -2 -4 5 -6 42 -3 82 l6 72 332 0 c182
0 334 -3 338 -6z m-3381 -139 c4 -49 13 -112 20 -140 11 -43 17 -50 41 -53 15
-2 27 -6 27 -10 0 -4 7 -61 15 -127 8 -66 15 -128 15 -138 0 -16 -30 -17 -527
-15 l-528 3 -14 40 c-7 22 -16 85 -18 141 -8 153 27 255 118 346 l48 48 398
-2 398 -3 7 -90z m2534 -282 c-8 -104 -25 -211 -38 -235 -8 -17 -73 -18 -1143
-18 l-1134 0 -10 38 c-10 37 -24 136 -36 245 l-6 57 1187 0 1187 0 -7 -87z
m-2907 -283 l363 0 -7 -77 c-4 -43 -11 -88 -16 -100 l-9 -23 -389 0 -389 0 -7
28 c-10 50 -21 172 -16 178 3 3 29 3 56 0 28 -3 214 -6 414 -6z m2071 -49
l495 -6 53 -30 c70 -38 135 -111 164 -183 23 -57 23 -58 26 -633 l3 -577 30
-12 c141 -59 209 -229 145 -365 -27 -60 -72 -107 -130 -138 -58 -31 -184 -31
-241 0 -141 75 -193 233 -124 372 33 66 68 98 142 131 l47 21 -2 578 -3 577
-28 42 c-15 23 -46 54 -69 69 l-42 28 -811 0 -811 0 -42 -27 c-22 -15 -54 -49
-69 -75 l-28 -48 -5 -830 -5 -830 -58 -3 -57 -3 2 848 3 848 23 46 c49 100
127 165 232 193 62 17 308 18 1160 7z"/>
<path d="M2724 2800 c-130 -17 -157 -42 -73 -69 62 -20 367 -19 429 1 101 32
25 65 -170 72 -63 3 -147 1 -186 -4z"/>
<path d="M960 2430 c-169 -19 -176 -57 -17 -79 130 -18 318 -9 391 19 23 8 26
13 16 24 -26 32 -248 52 -390 36z"/>
<path d="M3871 549 c-75 -16 -131 -85 -131 -161 0 -135 137 -214 257 -149 12
6 35 28 50 48 24 31 28 46 28 98 0 52 -4 67 -28 98 -43 57 -106 81 -176 66z
m79 -74 c81 -42 80 -138 -1 -181 -89 -45 -180 71 -118 150 36 45 73 55 119 31z"/>
</g>
</svg>
